<svg xmlns="http://www.w3.org/2000/svg" xmlns:xlink="http://www.w3.org/1999/xlink" width="396" height="160" overflow="hidden"><defs><clipPath id="clip0"><path fill-rule="evenodd" d="M823 14 1219 14 1219 174 823 174Z" clip-rule="evenodd"/></clipPath></defs><g clip-path="url(#clip0)" transform="translate(-823 -14)"><rect width="71" height="39" x="914.5" y="110.5" fill="#DBE1EF" stroke="#385183" stroke-linejoin="round" stroke-miterlimit="10"/><text font-family="IBM Plex Sans,IBM Plex Sans_MSFontService,sans-serif" font-size="16" font-stretch="condensed" font-weight="500" transform="translate(925.452 134)">Node A</text><rect width="72" height="40" x="985.5" y="40.5" fill="#DBE1EF" stroke="#385183" stroke-linejoin="round" stroke-miterlimit="10"/><text font-family="IBM Plex Sans,IBM Plex Sans_MSFontService,sans-serif" font-size="16" font-stretch="condensed" font-weight="500" transform="translate(997.198 65)">Node C</text><path d="M985.5 129 1050.41 129 1050.41 130 985.5 130ZM1049.08 125.5 1057.08 129.5 1049.08 133.5Z"/><path d="M1092.88 110.267 1061 66.1946 1061.81 65.6085 1093.69 109.681ZM1058.95 69.3263 1057.5 60.5001 1065.43 64.6373Z"/><path d="M0.405111-0.293061 32.2873 43.7792 31.4771 44.3653-0.405111 0.293061ZM34.3416 40.6474 35.7897 49.4737 27.8598 45.3364Z" transform="matrix(-1 -8.74228e-08 -8.74228e-08 1 985.29 60.5001)"/><rect width="71" height="39" x="1057.5" y="110.5" fill="#DBE1EF" stroke="#385183" stroke-linejoin="round" stroke-miterlimit="10"/><text font-family="IBM Plex Sans,IBM Plex Sans_MSFontService,sans-serif" font-size="16" font-stretch="condensed" font-weight="500" transform="translate(1068.61 134)">Node B<tspan x="-66.943" y="10" font-family="Cambria Math,Cambria Math_MSFontService,sans-serif" font-size="12" font-stretch="normal" font-weight="400">ğ‘</tspan><tspan x="-56.65" y="10" font-family="Cambria Math,Cambria Math_MSFontService,sans-serif" font-size="12" font-stretch="normal" font-weight="400">=</tspan><tspan x="-44.316" y="10" font-family="Cambria Math,Cambria Math_MSFontService,sans-serif" font-size="12" font-stretch="normal" font-weight="400">ğ‘£</tspan><tspan x="-38.216" y="13" font-family="Cambria Math,Cambria Math_MSFontService,sans-serif" font-size="9" font-stretch="normal" font-weight="400">1</tspan><tspan x="-66.943" y="23" font-family="Cambria Math,Cambria Math_MSFontService,sans-serif" font-size="12" font-stretch="normal" font-weight="400">ğœ‘</tspan><tspan x="-55.183" y="23" font-family="Cambria Math,Cambria Math_MSFontService,sans-serif" font-size="12" font-stretch="normal" font-weight="400">=</tspan><tspan x="-42.849" y="23" font-family="Cambria Math,Cambria Math_MSFontService,sans-serif" font-size="12" font-stretch="normal" font-weight="400">2</tspan><tspan x="-66.943" y="36" font-family="Cambria Math,Cambria Math_MSFontService,sans-serif" font-size="12" font-stretch="normal" font-weight="400">Î”</tspan><tspan x="-59.776" y="36" font-family="Cambria Math,Cambria Math_MSFontService,sans-serif" font-size="12" font-stretch="normal" font-weight="400">ğ‘¡</tspan><tspan x="-51.483" y="36" font-family="Cambria Math,Cambria Math_MSFontService,sans-serif" font-size="12" font-stretch="normal" font-weight="400">=</tspan><tspan x="-39.15" y="36" font-family="Cambria Math,Cambria Math_MSFontService,sans-serif" font-size="12" font-stretch="normal" font-weight="400">1</tspan></text><text font-family="Cambria Math,Cambria Math_MSFontService,sans-serif" font-weight="400" transform="matrix(0.565521 0.824734 -0.824734 0.565521 1099.74 63)">ğ‘<tspan x="9.89" y="-.277">=</tspan><tspan x="22.906" y=".192">ğ‘£</tspan><tspan x="28.754" y="2.273" font-size="9">2</tspan><tspan x="-.29" y="12.801">ğœ‘</tspan><tspan x="11.718" y="12.971">=</tspan><tspan x="23.91" y="12.874">1</tspan><tspan x=".244" y="26.168">Î”</tspan><tspan x="7.485" y="26.218">ğ‘¡</tspan><tspan x="15.086" y="25.743">=</tspan><tspan x="28.102" y="26.212">2</tspan></text><text font-family="Cambria Math,Cambria Math_MSFontService,sans-serif" font-weight="400" transform="matrix(0.580211 -0.814467 0.814467 0.580211 933.278 82)">ğ‘<tspan x="9.981" y=".223">=</tspan><tspan x="22.277" y=".249">0</tspan><tspan x="28.594" y=".498">.</tspan><tspan x="31.065" y=".519">5</tspan><tspan x="40.722" y=".288">â‹…</tspan><tspan x="46.815" y=".222">ğ‘£</tspan><tspan x="53.377" y="2.539" font-size="9">3</tspan><tspan x="-.372" y="13.265">ğœ‘</tspan><tspan x="11.731" y="13.021">=</tspan><tspan x="24.028" y="13.047">ğ‘£</tspan><tspan x="29.602" y="15.701" font-size="9">4</tspan><tspan x=".07" y="25.95">Î”</tspan><tspan x="6.555" y="26.436">ğ‘¡</tspan><tspan x="15.048" y="26.294">=</tspan><tspan x="27.344" y="26.32">3</tspan></text><rect width="71" height="39" x="824.5" y="110.5" fill="#C7F8D8" stroke="#385183" stroke-linejoin="round" stroke-miterlimit="10"/><text font-family="IBM Plex Sans,IBM Plex Sans_MSFontService,sans-serif" font-size="16" font-stretch="condensed" font-weight="500" transform="translate(841.212 134)">Input</text><rect width="71" height="39" x="1147.5" y="110.5" fill="#C7F8D8" stroke="#385183" stroke-linejoin="round" stroke-miterlimit="10"/><text font-family="IBM Plex Sans,IBM Plex Sans_MSFontService,sans-serif" font-size="16" font-stretch="condensed" font-weight="500" transform="translate(1159.57 134)">Output</text><path d="M1128.5 129 1129.5 129 1129.5 130 1128.5 130ZM1130.5 129 1131.5 129 1131.5 130 1130.5 130ZM1132.5 129 1133.5 129 1133.5 130 1132.5 130ZM1134.5 129 1135.5 129 1135.5 130 1134.5 130ZM1136.5 129 1137.5 129 1137.5 130 1136.5 130ZM1138.5 129 1139.5 129 1139.5 130 1138.5 130ZM1138.8 125.5 1146.8 129.5 1138.8 133.5Z"/><path d="M895.5 129 896.5 129 896.5 130 895.5 130ZM897.5 129 898.5 129 898.5 130 897.5 130ZM899.5 129 900.5 129 900.5 130 899.5 130ZM901.5 129 902.5 129 902.5 130 901.5 130ZM903.5 129 904.5 129 904.5 130 903.5 130ZM905.5 129 906.5 129 906.5 130 905.5 130ZM905.911 125.5 913.911 129.5 905.911 133.5Z"/></g></svg>