<svg xmlns="http://www.w3.org/2000/svg" xmlns:xlink="http://www.w3.org/1999/xlink" width="553pt" height="412" viewBox="0 0 552.5 309"><g id="graph0" class="graph" transform="scale(1 1) rotate(0) translate(4 305)"><title>structs</title><polygon fill="#fff" stroke="none" points="-4 4 -4 -305 548.5 -305 548.5 4 -4 4"/><g id="node1" class="node"><title>Splitter0i0</title><polygon fill="none" stroke="#000" points="172 -264.5 172 -300.5 245 -300.5 245 -264.5 172 -264.5"/><text x="208.5" y="-278.8" font-family="Times New Roman,serif" font-size="14" text-anchor="middle">Splitter0i0</text></g><g id="node2" class="node"><title>Splitter0o0</title><polygon fill="none" stroke="#000" points="6 -176.5 6 -212.5 83 -212.5 83 -176.5 6 -176.5"/><text x="44.5" y="-190.8" font-family="Times New Roman,serif" font-size="14" text-anchor="middle">Splitter0o0</text></g><g id="edge1" class="edge"><title>Splitter0i0-&gt;Splitter0o0</title><path fill="none" stroke="#000" d="M171.968,-280.237C121.195,-277.626 33.2859,-269.713 13.5,-246 7.00706,-238.218 10.1023,-228.947 16.3676,-220.485"/><polygon fill="#000" stroke="#000" points="19.219 -222.54 23.137 -212.696 13.935 -217.948 19.219 -222.54"/><text x="103" y="-234.8" font-family="Times New Roman,serif" font-size="14" text-anchor="middle">a0.7071067811865475, p0.0, d1</text></g><g id="node3" class="node"><title>Splitter0o1</title><polygon fill="none" stroke="#000" points="334 -176.5 334 -212.5 411 -212.5 411 -176.5 334 -176.5"/><text x="372.5" y="-190.8" font-family="Times New Roman,serif" font-size="14" text-anchor="middle">Splitter0o1</text></g><g id="edge2" class="edge"><title>Splitter0i0-&gt;Splitter0o1</title><path fill="none" stroke="#000" d="M241.294,-264.303C267.076,-250.783 303.157,-231.863 330.959,-217.284"/><polygon fill="#000" stroke="#000" points="332.812 -220.264 340.043 -212.52 329.561 -214.065 332.812 -220.264"/><text x="389" y="-234.8" font-family="Times New Roman,serif" font-size="14" text-anchor="middle">a0.7071067811865475, p0.0, d1</text></g><g id="node4" class="node"><title>Combiner0i0</title><polygon fill="none" stroke="#000" points="0 -88.5 0 -124.5 89 -124.5 89 -88.5 0 -88.5"/><text x="44.5" y="-102.8" font-family="Times New Roman,serif" font-size="14" text-anchor="middle">Combiner0i0</text></g><g id="edge5" class="edge"><title>Splitter0o0-&gt;Combiner0i0</title><path fill="none" stroke="#000" d="M25.2386,-176.411C20.4827,-171.043 16.0292,-164.742 13.5,-158 10.2625,-149.37 13.088,-140.596 18.1293,-132.834"/><polygon fill="#000" stroke="#000" points="20.942 -134.918 24.287 -124.865 15.403 -130.638 20.942 -134.918"/><text x="103" y="-146.8" font-family="Times New Roman,serif" font-size="14" text-anchor="middle">a0.5, p15.707963267948966, d2</text></g><g id="node6" class="node"><title>Combiner0i1</title><polygon fill="none" stroke="#000" points="328 -88.5 328 -124.5 417 -124.5 417 -88.5 328 -88.5"/><text x="372.5" y="-102.8" font-family="Times New Roman,serif" font-size="14" text-anchor="middle">Combiner0i1</text></g><g id="edge6" class="edge"><title>Splitter0o1-&gt;Combiner0i1</title><path fill="none" stroke="#000" d="M372.5,-176.097C372.5,-164.246 372.5,-148.317 372.5,-134.792"/><polygon fill="#000" stroke="#000" points="376 -134.584 372.5 -124.584 369 -134.584 376 -134.584"/><text x="458.5" y="-146.8" font-family="Times New Roman,serif" font-size="14" text-anchor="middle">a0.7, p18.84955592153876, d3</text></g><g id="node5" class="node"><title>Combiner0o0</title><polygon fill="none" stroke="#000" points="162 -.5 162 -36.5 255 -36.5 255 -.5 162 -.5"/><text x="208.5" y="-14.8" font-family="Times New Roman,serif" font-size="14" text-anchor="middle">Combiner0o0</text></g><g id="edge3" class="edge"><title>Combiner0i0-&gt;Combiner0o0</title><path fill="none" stroke="#000" d="M23.1365,-88.3044C13.0599,-78.1308 4.93199,-65.2687 13.5,-55 30.8247,-34.2366 100.379,-25.5874 151.5,-22.0038"/><polygon fill="#000" stroke="#000" points="152.029 -25.477 161.78 -21.333 151.573 -18.492 152.029 -25.477"/><text x="103" y="-58.8" font-family="Times New Roman,serif" font-size="14" text-anchor="middle">a0.7071067811865475, p0.0, d1</text></g><g id="edge4" class="edge"><title>Combiner0i1-&gt;Combiner0o0</title><path fill="none" stroke="#000" d="M339.706,-88.3033C313.924,-74.7833 277.843,-55.8626 250.041,-41.2837"/><polygon fill="#000" stroke="#000" points="251.439 -38.065 240.957 -36.52 248.188 -44.264 251.439 -38.065"/><text x="389" y="-58.8" font-family="Times New Roman,serif" font-size="14" text-anchor="middle">a0.7071067811865475, p0.0, d1</text></g></g></svg>