<svg xmlns="http://www.w3.org/2000/svg" xmlns:xlink="http://www.w3.org/1999/xlink" width="614.4" height="460.8" version="1.1" viewBox="0 0 460.8 345.6"><defs><style type="text/css">*{stroke-linecap:butt;stroke-linejoin:round}</style></defs><g id="figure_1"><g id="patch_1"><path fill="#fff" d="M 0 345.6 L 460.8 345.6 L 460.8 0 L 0 0 z"/></g><g id="axes_1"><g id="patch_2"><path fill="#fff" d="M 57.6 307.584 L 414.72 307.584 L 414.72 41.472 L 57.6 41.472 z"/></g><g id="matplotlib.axis_1"><g id="xtick_1"><g id="line2d_1"><defs><path id="m7b670f613a" stroke="#000" stroke-width=".8" d="M 0 0 L 0 3.5"/></defs><g><use x="73.833" y="307.584" stroke="#000" stroke-width=".8" xlink:href="#m7b670f613a"/></g></g><g id="text_1"><defs><path id="DejaVuSans-48" d="M 31.78125 66.40625 Q 24.171875 66.40625 20.328125 58.90625 Q 16.5 51.421875 16.5 36.375 Q 16.5 21.390625 20.328125 13.890625 Q 24.171875 6.390625 31.78125 6.390625 Q 39.453125 6.390625 43.28125 13.890625 Q 47.125 21.390625 47.125 36.375 Q 47.125 51.421875 43.28125 58.90625 Q 39.453125 66.40625 31.78125 66.40625 z M 31.78125 74.21875 Q 44.046875 74.21875 50.515625 64.515625 Q 56.984375 54.828125 56.984375 36.375 Q 56.984375 17.96875 50.515625 8.265625 Q 44.046875 -1.421875 31.78125 -1.421875 Q 19.53125 -1.421875 13.0625 8.265625 Q 6.59375 17.96875 6.59375 36.375 Q 6.59375 54.828125 13.0625 64.515625 Q 19.53125 74.21875 31.78125 74.21875 z"/></defs><g transform="translate(70.651477 322.182437)scale(0.1 -0.1)"><use xlink:href="#DejaVuSans-48"/></g></g></g><g id="xtick_2"><g id="line2d_2"><g><use x="138.764" y="307.584" stroke="#000" stroke-width=".8" xlink:href="#m7b670f613a"/></g></g><g id="text_2"><defs><path id="DejaVuSans-50" d="M 19.1875 8.296875 L 53.609375 8.296875 L 53.609375 0 L 7.328125 0 L 7.328125 8.296875 Q 12.9375 14.109375 22.625 23.890625 Q 32.328125 33.6875 34.8125 36.53125 Q 39.546875 41.84375 41.421875 45.53125 Q 43.3125 49.21875 43.3125 52.78125 Q 43.3125 58.59375 39.234375 62.25 Q 35.15625 65.921875 28.609375 65.921875 Q 23.96875 65.921875 18.8125 64.3125 Q 13.671875 62.703125 7.8125 59.421875 L 7.8125 69.390625 Q 13.765625 71.78125 18.9375 73 Q 24.125 74.21875 28.421875 74.21875 Q 39.75 74.21875 46.484375 68.546875 Q 53.21875 62.890625 53.21875 53.421875 Q 53.21875 48.921875 51.53125 44.890625 Q 49.859375 40.875 45.40625 35.40625 Q 44.1875 33.984375 37.640625 27.21875 Q 31.109375 20.453125 19.1875 8.296875 z"/></defs><g transform="translate(135.582386 322.182437)scale(0.1 -0.1)"><use xlink:href="#DejaVuSans-50"/></g></g></g><g id="xtick_3"><g id="line2d_3"><g><use x="203.695" y="307.584" stroke="#000" stroke-width=".8" xlink:href="#m7b670f613a"/></g></g><g id="text_3"><defs><path id="DejaVuSans-52" d="M 37.796875 64.3125 L 12.890625 25.390625 L 37.796875 25.390625 z M 35.203125 72.90625 L 47.609375 72.90625 L 47.609375 25.390625 L 58.015625 25.390625 L 58.015625 17.1875 L 47.609375 17.1875 L 47.609375 0 L 37.796875 0 L 37.796875 17.1875 L 4.890625 17.1875 L 4.890625 26.703125 z"/></defs><g transform="translate(200.513295 322.182437)scale(0.1 -0.1)"><use xlink:href="#DejaVuSans-52"/></g></g></g><g id="xtick_4"><g id="line2d_4"><g><use x="268.625" y="307.584" stroke="#000" stroke-width=".8" xlink:href="#m7b670f613a"/></g></g><g id="text_4"><defs><path id="DejaVuSans-54" d="M 33.015625 40.375 Q 26.375 40.375 22.484375 35.828125 Q 18.609375 31.296875 18.609375 23.390625 Q 18.609375 15.53125 22.484375 10.953125 Q 26.375 6.390625 33.015625 6.390625 Q 39.65625 6.390625 43.53125 10.953125 Q 47.40625 15.53125 47.40625 23.390625 Q 47.40625 31.296875 43.53125 35.828125 Q 39.65625 40.375 33.015625 40.375 z M 52.59375 71.296875 L 52.59375 62.3125 Q 48.875 64.0625 45.09375 64.984375 Q 41.3125 65.921875 37.59375 65.921875 Q 27.828125 65.921875 22.671875 59.328125 Q 17.53125 52.734375 16.796875 39.40625 Q 19.671875 43.65625 24.015625 45.921875 Q 28.375 48.1875 33.59375 48.1875 Q 44.578125 48.1875 50.953125 41.515625 Q 57.328125 34.859375 57.328125 23.390625 Q 57.328125 12.15625 50.6875 5.359375 Q 44.046875 -1.421875 33.015625 -1.421875 Q 20.359375 -1.421875 13.671875 8.265625 Q 6.984375 17.96875 6.984375 36.375 Q 6.984375 53.65625 15.1875 63.9375 Q 23.390625 74.21875 37.203125 74.21875 Q 40.921875 74.21875 44.703125 73.484375 Q 48.484375 72.75 52.59375 71.296875 z"/></defs><g transform="translate(265.444205 322.182437)scale(0.1 -0.1)"><use xlink:href="#DejaVuSans-54"/></g></g></g><g id="xtick_5"><g id="line2d_5"><g><use x="333.556" y="307.584" stroke="#000" stroke-width=".8" xlink:href="#m7b670f613a"/></g></g><g id="text_5"><defs><path id="DejaVuSans-56" d="M 31.78125 34.625 Q 24.75 34.625 20.71875 30.859375 Q 16.703125 27.09375 16.703125 20.515625 Q 16.703125 13.921875 20.71875 10.15625 Q 24.75 6.390625 31.78125 6.390625 Q 38.8125 6.390625 42.859375 10.171875 Q 46.921875 13.96875 46.921875 20.515625 Q 46.921875 27.09375 42.890625 30.859375 Q 38.875 34.625 31.78125 34.625 z M 21.921875 38.8125 Q 15.578125 40.375 12.03125 44.71875 Q 8.5 49.078125 8.5 55.328125 Q 8.5 64.0625 14.71875 69.140625 Q 20.953125 74.21875 31.78125 74.21875 Q 42.671875 74.21875 48.875 69.140625 Q 55.078125 64.0625 55.078125 55.328125 Q 55.078125 49.078125 51.53125 44.71875 Q 48 40.375 41.703125 38.8125 Q 48.828125 37.15625 52.796875 32.3125 Q 56.78125 27.484375 56.78125 20.515625 Q 56.78125 9.90625 50.3125 4.234375 Q 43.84375 -1.421875 31.78125 -1.421875 Q 19.734375 -1.421875 13.25 4.234375 Q 6.78125 9.90625 6.78125 20.515625 Q 6.78125 27.484375 10.78125 32.3125 Q 14.796875 37.15625 21.921875 38.8125 z M 18.3125 54.390625 Q 18.3125 48.734375 21.84375 45.5625 Q 25.390625 42.390625 31.78125 42.390625 Q 38.140625 42.390625 41.71875 45.5625 Q 45.3125 48.734375 45.3125 54.390625 Q 45.3125 60.0625 41.71875 63.234375 Q 38.140625 66.40625 31.78125 66.40625 Q 25.390625 66.40625 21.84375 63.234375 Q 18.3125 60.0625 18.3125 54.390625 z"/></defs><g transform="translate(330.375114 322.182437)scale(0.1 -0.1)"><use xlink:href="#DejaVuSans-56"/></g></g></g><g id="xtick_6"><g id="line2d_6"><g><use x="398.487" y="307.584" stroke="#000" stroke-width=".8" xlink:href="#m7b670f613a"/></g></g><g id="text_6"><defs><path id="DejaVuSans-49" d="M 12.40625 8.296875 L 28.515625 8.296875 L 28.515625 63.921875 L 10.984375 60.40625 L 10.984375 69.390625 L 28.421875 72.90625 L 38.28125 72.90625 L 38.28125 8.296875 L 54.390625 8.296875 L 54.390625 0 L 12.40625 0 z"/></defs><g transform="translate(392.124773 322.182437)scale(0.1 -0.1)"><use xlink:href="#DejaVuSans-49"/><use x="63.623" xlink:href="#DejaVuSans-48"/></g></g></g><g id="text_7"><defs><path id="DejaVuSans-84" d="M -0.296875 72.90625 L 61.375 72.90625 L 61.375 64.59375 L 35.5 64.59375 L 35.5 0 L 25.59375 0 L 25.59375 64.59375 L -0.296875 64.59375 z"/><path id="DejaVuSans-105" d="M 9.421875 54.6875 L 18.40625 54.6875 L 18.40625 0 L 9.421875 0 z M 9.421875 75.984375 L 18.40625 75.984375 L 18.40625 64.59375 L 9.421875 64.59375 z"/><path id="DejaVuSans-109" d="M 52 44.1875 Q 55.375 50.25 60.0625 53.125 Q 64.75 56 71.09375 56 Q 79.640625 56 84.28125 50.015625 Q 88.921875 44.046875 88.921875 33.015625 L 88.921875 0 L 79.890625 0 L 79.890625 32.71875 Q 79.890625 40.578125 77.09375 44.375 Q 74.3125 48.1875 68.609375 48.1875 Q 61.625 48.1875 57.5625 43.546875 Q 53.515625 38.921875 53.515625 30.90625 L 53.515625 0 L 44.484375 0 L 44.484375 32.71875 Q 44.484375 40.625 41.703125 44.40625 Q 38.921875 48.1875 33.109375 48.1875 Q 26.21875 48.1875 22.15625 43.53125 Q 18.109375 38.875 18.109375 30.90625 L 18.109375 0 L 9.078125 0 L 9.078125 54.6875 L 18.109375 54.6875 L 18.109375 46.1875 Q 21.1875 51.21875 25.484375 53.609375 Q 29.78125 56 35.6875 56 Q 41.65625 56 45.828125 52.96875 Q 50 49.953125 52 44.1875 z"/><path id="DejaVuSans-101" d="M 56.203125 29.59375 L 56.203125 25.203125 L 14.890625 25.203125 Q 15.484375 15.921875 20.484375 11.0625 Q 25.484375 6.203125 34.421875 6.203125 Q 39.59375 6.203125 44.453125 7.46875 Q 49.3125 8.734375 54.109375 11.28125 L 54.109375 2.78125 Q 49.265625 0.734375 44.1875 -0.34375 Q 39.109375 -1.421875 33.890625 -1.421875 Q 20.796875 -1.421875 13.15625 6.1875 Q 5.515625 13.8125 5.515625 26.8125 Q 5.515625 40.234375 12.765625 48.109375 Q 20.015625 56 32.328125 56 Q 43.359375 56 49.78125 48.890625 Q 56.203125 41.796875 56.203125 29.59375 z M 47.21875 32.234375 Q 47.125 39.59375 43.09375 43.984375 Q 39.0625 48.390625 32.421875 48.390625 Q 24.90625 48.390625 20.390625 44.140625 Q 15.875 39.890625 15.1875 32.171875 z"/></defs><g transform="translate(223.7725 335.860562)scale(0.1 -0.1)"><use xlink:href="#DejaVuSans-84"/><use x="61.037" xlink:href="#DejaVuSans-105"/><use x="88.82" xlink:href="#DejaVuSans-109"/><use x="186.232" xlink:href="#DejaVuSans-101"/></g></g></g><g id="matplotlib.axis_2"><g id="ytick_1"><g id="line2d_7"><defs><path id="m2b67fff06e" stroke="#000" stroke-width=".8" d="M 0 0 L -3.5 0"/></defs><g><use x="57.6" y="295.488" stroke="#000" stroke-width=".8" xlink:href="#m2b67fff06e"/></g></g><g id="text_8"><defs><path id="DejaVuSans-46" d="M 10.6875 12.40625 L 21 12.40625 L 21 0 L 10.6875 0 z"/></defs><g transform="translate(28.334375 299.287219)scale(0.1 -0.1)"><use xlink:href="#DejaVuSans-48"/><use x="63.623" xlink:href="#DejaVuSans-46"/><use x="95.41" xlink:href="#DejaVuSans-48"/><use x="159.033" xlink:href="#DejaVuSans-48"/></g></g></g><g id="ytick_2"><g id="line2d_8"><g><use x="57.6" y="265.248" stroke="#000" stroke-width=".8" xlink:href="#m2b67fff06e"/></g></g><g id="text_9"><defs><path id="DejaVuSans-53" d="M 10.796875 72.90625 L 49.515625 72.90625 L 49.515625 64.59375 L 19.828125 64.59375 L 19.828125 46.734375 Q 21.96875 47.46875 24.109375 47.828125 Q 26.265625 48.1875 28.421875 48.1875 Q 40.625 48.1875 47.75 41.5 Q 54.890625 34.8125 54.890625 23.390625 Q 54.890625 11.625 47.5625 5.09375 Q 40.234375 -1.421875 26.90625 -1.421875 Q 22.3125 -1.421875 17.546875 -0.640625 Q 12.796875 0.140625 7.71875 1.703125 L 7.71875 11.625 Q 12.109375 9.234375 16.796875 8.0625 Q 21.484375 6.890625 26.703125 6.890625 Q 35.15625 6.890625 40.078125 11.328125 Q 45.015625 15.765625 45.015625 23.390625 Q 45.015625 31 40.078125 35.4375 Q 35.15625 39.890625 26.703125 39.890625 Q 22.75 39.890625 18.8125 39.015625 Q 14.890625 38.140625 10.796875 36.28125 z"/></defs><g transform="translate(28.334375 269.047219)scale(0.1 -0.1)"><use xlink:href="#DejaVuSans-48"/><use x="63.623" xlink:href="#DejaVuSans-46"/><use x="95.41" xlink:href="#DejaVuSans-50"/><use x="159.033" xlink:href="#DejaVuSans-53"/></g></g></g><g id="ytick_3"><g id="line2d_9"><g><use x="57.6" y="235.008" stroke="#000" stroke-width=".8" xlink:href="#m2b67fff06e"/></g></g><g id="text_10"><g transform="translate(28.334375 238.807219)scale(0.1 -0.1)"><use xlink:href="#DejaVuSans-48"/><use x="63.623" xlink:href="#DejaVuSans-46"/><use x="95.41" xlink:href="#DejaVuSans-53"/><use x="159.033" xlink:href="#DejaVuSans-48"/></g></g></g><g id="ytick_4"><g id="line2d_10"><g><use x="57.6" y="204.768" stroke="#000" stroke-width=".8" xlink:href="#m2b67fff06e"/></g></g><g id="text_11"><defs><path id="DejaVuSans-55" d="M 8.203125 72.90625 L 55.078125 72.90625 L 55.078125 68.703125 L 28.609375 0 L 18.3125 0 L 43.21875 64.59375 L 8.203125 64.59375 z"/></defs><g transform="translate(28.334375 208.567219)scale(0.1 -0.1)"><use xlink:href="#DejaVuSans-48"/><use x="63.623" xlink:href="#DejaVuSans-46"/><use x="95.41" xlink:href="#DejaVuSans-55"/><use x="159.033" xlink:href="#DejaVuSans-53"/></g></g></g><g id="ytick_5"><g id="line2d_11"><g><use x="57.6" y="174.528" stroke="#000" stroke-width=".8" xlink:href="#m2b67fff06e"/></g></g><g id="text_12"><g transform="translate(28.334375 178.327219)scale(0.1 -0.1)"><use xlink:href="#DejaVuSans-49"/><use x="63.623" xlink:href="#DejaVuSans-46"/><use x="95.41" xlink:href="#DejaVuSans-48"/><use x="159.033" xlink:href="#DejaVuSans-48"/></g></g></g><g id="ytick_6"><g id="line2d_12"><g><use x="57.6" y="144.288" stroke="#000" stroke-width=".8" xlink:href="#m2b67fff06e"/></g></g><g id="text_13"><g transform="translate(28.334375 148.087219)scale(0.1 -0.1)"><use xlink:href="#DejaVuSans-49"/><use x="63.623" xlink:href="#DejaVuSans-46"/><use x="95.41" xlink:href="#DejaVuSans-50"/><use x="159.033" xlink:href="#DejaVuSans-53"/></g></g></g><g id="ytick_7"><g id="line2d_13"><g><use x="57.6" y="114.048" stroke="#000" stroke-width=".8" xlink:href="#m2b67fff06e"/></g></g><g id="text_14"><g transform="translate(28.334375 117.847219)scale(0.1 -0.1)"><use xlink:href="#DejaVuSans-49"/><use x="63.623" xlink:href="#DejaVuSans-46"/><use x="95.41" xlink:href="#DejaVuSans-53"/><use x="159.033" xlink:href="#DejaVuSans-48"/></g></g></g><g id="ytick_8"><g id="line2d_14"><g><use x="57.6" y="83.808" stroke="#000" stroke-width=".8" xlink:href="#m2b67fff06e"/></g></g><g id="text_15"><g transform="translate(28.334375 87.607219)scale(0.1 -0.1)"><use xlink:href="#DejaVuSans-49"/><use x="63.623" xlink:href="#DejaVuSans-46"/><use x="95.41" xlink:href="#DejaVuSans-55"/><use x="159.033" xlink:href="#DejaVuSans-53"/></g></g></g><g id="ytick_9"><g id="line2d_15"><g><use x="57.6" y="53.568" stroke="#000" stroke-width=".8" xlink:href="#m2b67fff06e"/></g></g><g id="text_16"><g transform="translate(28.334375 57.367219)scale(0.1 -0.1)"><use xlink:href="#DejaVuSans-50"/><use x="63.623" xlink:href="#DejaVuSans-46"/><use x="95.41" xlink:href="#DejaVuSans-48"/><use x="159.033" xlink:href="#DejaVuSans-48"/></g></g></g><g id="text_17"><defs><path id="DejaVuSans-124" d="M 21 76.421875 L 21 -23.578125 L 12.703125 -23.578125 L 12.703125 76.421875 z"/><path id="DejaVuSans-120" d="M 54.890625 54.6875 L 35.109375 28.078125 L 55.90625 0 L 45.3125 0 L 29.390625 21.484375 L 13.484375 0 L 2.875 0 L 24.125 28.609375 L 4.6875 54.6875 L 15.28125 54.6875 L 29.78125 35.203125 L 44.28125 54.6875 z"/></defs><g transform="translate(21.976562 180.856125)rotate(-90)scale(0.1 -0.1)"><use xlink:href="#DejaVuSans-124"/><use x="33.691" xlink:href="#DejaVuSans-120"/><use x="92.871" xlink:href="#DejaVuSans-124"/></g></g></g><g id="line2d_16"><defs><path id="mb3d5805639" stroke="#1f77b4" d="M 0 3 C 0.795609 3 1.55874 2.683901 2.12132 2.12132 C 2.683901 1.55874 3 0.795609 3 0 C 3 -0.795609 2.683901 -1.55874 2.12132 -2.12132 C 1.55874 -2.683901 0.795609 -3 0 -3 C -0.795609 -3 -1.55874 -2.683901 -2.12132 -2.12132 C -2.683901 -1.55874 -3 -0.795609 -3 0 C -3 0.795609 -2.683901 1.55874 -2.12132 2.12132 C -1.55874 2.683901 -0.795609 3 0 3 z"/></defs><g clip-path="url(#p83e727a732)"><use x="73.833" y="174.528" fill="#1f77b4" stroke="#1f77b4" xlink:href="#mb3d5805639"/><use x="77.079" y="174.528" fill="#1f77b4" stroke="#1f77b4" xlink:href="#mb3d5805639"/><use x="80.326" y="174.528" fill="#1f77b4" stroke="#1f77b4" xlink:href="#mb3d5805639"/><use x="83.572" y="174.528" fill="#1f77b4" stroke="#1f77b4" xlink:href="#mb3d5805639"/><use x="86.819" y="174.528" fill="#1f77b4" stroke="#1f77b4" xlink:href="#mb3d5805639"/><use x="90.065" y="174.528" fill="#1f77b4" stroke="#1f77b4" xlink:href="#mb3d5805639"/><use x="93.312" y="174.528" fill="#1f77b4" stroke="#1f77b4" xlink:href="#mb3d5805639"/><use x="96.559" y="174.528" fill="#1f77b4" stroke="#1f77b4" xlink:href="#mb3d5805639"/><use x="99.805" y="174.528" fill="#1f77b4" stroke="#1f77b4" xlink:href="#mb3d5805639"/><use x="103.052" y="174.528" fill="#1f77b4" stroke="#1f77b4" xlink:href="#mb3d5805639"/><use x="106.298" y="174.528" fill="#1f77b4" stroke="#1f77b4" xlink:href="#mb3d5805639"/><use x="109.545" y="174.528" fill="#1f77b4" stroke="#1f77b4" xlink:href="#mb3d5805639"/><use x="112.791" y="174.528" fill="#1f77b4" stroke="#1f77b4" xlink:href="#mb3d5805639"/><use x="116.038" y="174.528" fill="#1f77b4" stroke="#1f77b4" xlink:href="#mb3d5805639"/><use x="119.284" y="174.528" fill="#1f77b4" stroke="#1f77b4" xlink:href="#mb3d5805639"/><use x="122.531" y="174.528" fill="#1f77b4" stroke="#1f77b4" xlink:href="#mb3d5805639"/><use x="125.777" y="174.528" fill="#1f77b4" stroke="#1f77b4" xlink:href="#mb3d5805639"/><use x="129.024" y="174.528" fill="#1f77b4" stroke="#1f77b4" xlink:href="#mb3d5805639"/><use x="132.271" y="174.528" fill="#1f77b4" stroke="#1f77b4" xlink:href="#mb3d5805639"/><use x="135.517" y="174.528" fill="#1f77b4" stroke="#1f77b4" xlink:href="#mb3d5805639"/><use x="138.764" y="53.568" fill="#1f77b4" stroke="#1f77b4" xlink:href="#mb3d5805639"/><use x="142.01" y="53.568" fill="#1f77b4" stroke="#1f77b4" xlink:href="#mb3d5805639"/><use x="145.257" y="53.568" fill="#1f77b4" stroke="#1f77b4" xlink:href="#mb3d5805639"/><use x="148.503" y="53.568" fill="#1f77b4" stroke="#1f77b4" xlink:href="#mb3d5805639"/><use x="151.75" y="53.568" fill="#1f77b4" stroke="#1f77b4" xlink:href="#mb3d5805639"/><use x="154.996" y="53.568" fill="#1f77b4" stroke="#1f77b4" xlink:href="#mb3d5805639"/><use x="158.243" y="53.568" fill="#1f77b4" stroke="#1f77b4" xlink:href="#mb3d5805639"/><use x="161.489" y="53.568" fill="#1f77b4" stroke="#1f77b4" xlink:href="#mb3d5805639"/><use x="164.736" y="53.568" fill="#1f77b4" stroke="#1f77b4" xlink:href="#mb3d5805639"/><use x="167.983" y="53.568" fill="#1f77b4" stroke="#1f77b4" xlink:href="#mb3d5805639"/><use x="171.229" y="53.568" fill="#1f77b4" stroke="#1f77b4" xlink:href="#mb3d5805639"/><use x="174.476" y="53.568" fill="#1f77b4" stroke="#1f77b4" xlink:href="#mb3d5805639"/><use x="177.722" y="53.568" fill="#1f77b4" stroke="#1f77b4" xlink:href="#mb3d5805639"/><use x="180.969" y="53.568" fill="#1f77b4" stroke="#1f77b4" xlink:href="#mb3d5805639"/><use x="184.215" y="53.568" fill="#1f77b4" stroke="#1f77b4" xlink:href="#mb3d5805639"/><use x="187.462" y="53.568" fill="#1f77b4" stroke="#1f77b4" xlink:href="#mb3d5805639"/><use x="190.708" y="53.568" fill="#1f77b4" stroke="#1f77b4" xlink:href="#mb3d5805639"/><use x="193.955" y="53.568" fill="#1f77b4" stroke="#1f77b4" xlink:href="#mb3d5805639"/><use x="197.201" y="53.568" fill="#1f77b4" stroke="#1f77b4" xlink:href="#mb3d5805639"/><use x="200.448" y="53.568" fill="#1f77b4" stroke="#1f77b4" xlink:href="#mb3d5805639"/><use x="203.695" y="53.568" fill="#1f77b4" stroke="#1f77b4" xlink:href="#mb3d5805639"/><use x="206.941" y="53.568" fill="#1f77b4" stroke="#1f77b4" xlink:href="#mb3d5805639"/><use x="210.188" y="53.568" fill="#1f77b4" stroke="#1f77b4" xlink:href="#mb3d5805639"/><use x="213.434" y="53.568" fill="#1f77b4" stroke="#1f77b4" xlink:href="#mb3d5805639"/><use x="216.681" y="53.568" fill="#1f77b4" stroke="#1f77b4" xlink:href="#mb3d5805639"/><use x="219.927" y="53.568" fill="#1f77b4" stroke="#1f77b4" xlink:href="#mb3d5805639"/><use x="223.174" y="53.568" fill="#1f77b4" stroke="#1f77b4" xlink:href="#mb3d5805639"/><use x="226.42" y="53.568" fill="#1f77b4" stroke="#1f77b4" xlink:href="#mb3d5805639"/><use x="229.667" y="53.568" fill="#1f77b4" stroke="#1f77b4" xlink:href="#mb3d5805639"/><use x="232.913" y="53.568" fill="#1f77b4" stroke="#1f77b4" xlink:href="#mb3d5805639"/><use x="236.16" y="53.568" fill="#1f77b4" stroke="#1f77b4" xlink:href="#mb3d5805639"/><use x="239.407" y="53.568" fill="#1f77b4" stroke="#1f77b4" xlink:href="#mb3d5805639"/><use x="242.653" y="53.568" fill="#1f77b4" stroke="#1f77b4" xlink:href="#mb3d5805639"/><use x="245.9" y="53.568" fill="#1f77b4" stroke="#1f77b4" xlink:href="#mb3d5805639"/><use x="249.146" y="53.568" fill="#1f77b4" stroke="#1f77b4" xlink:href="#mb3d5805639"/><use x="252.393" y="53.568" fill="#1f77b4" stroke="#1f77b4" xlink:href="#mb3d5805639"/><use x="255.639" y="53.568" fill="#1f77b4" stroke="#1f77b4" xlink:href="#mb3d5805639"/><use x="258.886" y="53.568" fill="#1f77b4" stroke="#1f77b4" xlink:href="#mb3d5805639"/><use x="262.132" y="53.568" fill="#1f77b4" stroke="#1f77b4" xlink:href="#mb3d5805639"/><use x="265.379" y="53.568" fill="#1f77b4" stroke="#1f77b4" xlink:href="#mb3d5805639"/><use x="268.625" y="53.568" fill="#1f77b4" stroke="#1f77b4" xlink:href="#mb3d5805639"/><use x="271.872" y="53.568" fill="#1f77b4" stroke="#1f77b4" xlink:href="#mb3d5805639"/><use x="275.119" y="53.568" fill="#1f77b4" stroke="#1f77b4" xlink:href="#mb3d5805639"/><use x="278.365" y="53.568" fill="#1f77b4" stroke="#1f77b4" xlink:href="#mb3d5805639"/><use x="281.612" y="53.568" fill="#1f77b4" stroke="#1f77b4" xlink:href="#mb3d5805639"/><use x="284.858" y="53.568" fill="#1f77b4" stroke="#1f77b4" xlink:href="#mb3d5805639"/><use x="288.105" y="53.568" fill="#1f77b4" stroke="#1f77b4" xlink:href="#mb3d5805639"/><use x="291.351" y="53.568" fill="#1f77b4" stroke="#1f77b4" xlink:href="#mb3d5805639"/><use x="294.598" y="53.568" fill="#1f77b4" stroke="#1f77b4" xlink:href="#mb3d5805639"/><use x="297.844" y="53.568" fill="#1f77b4" stroke="#1f77b4" xlink:href="#mb3d5805639"/><use x="301.091" y="295.488" fill="#1f77b4" stroke="#1f77b4" xlink:href="#mb3d5805639"/><use x="304.337" y="295.488" fill="#1f77b4" stroke="#1f77b4" xlink:href="#mb3d5805639"/><use x="307.584" y="295.488" fill="#1f77b4" stroke="#1f77b4" xlink:href="#mb3d5805639"/><use x="310.831" y="295.488" fill="#1f77b4" stroke="#1f77b4" xlink:href="#mb3d5805639"/><use x="314.077" y="295.488" fill="#1f77b4" stroke="#1f77b4" xlink:href="#mb3d5805639"/><use x="317.324" y="295.488" fill="#1f77b4" stroke="#1f77b4" xlink:href="#mb3d5805639"/><use x="320.57" y="295.488" fill="#1f77b4" stroke="#1f77b4" xlink:href="#mb3d5805639"/><use x="323.817" y="295.488" fill="#1f77b4" stroke="#1f77b4" xlink:href="#mb3d5805639"/><use x="327.063" y="295.488" fill="#1f77b4" stroke="#1f77b4" xlink:href="#mb3d5805639"/><use x="330.31" y="295.488" fill="#1f77b4" stroke="#1f77b4" xlink:href="#mb3d5805639"/><use x="333.556" y="295.488" fill="#1f77b4" stroke="#1f77b4" xlink:href="#mb3d5805639"/><use x="336.803" y="295.488" fill="#1f77b4" stroke="#1f77b4" xlink:href="#mb3d5805639"/><use x="340.049" y="295.488" fill="#1f77b4" stroke="#1f77b4" xlink:href="#mb3d5805639"/><use x="343.296" y="295.488" fill="#1f77b4" stroke="#1f77b4" xlink:href="#mb3d5805639"/><use x="346.543" y="295.488" fill="#1f77b4" stroke="#1f77b4" xlink:href="#mb3d5805639"/><use x="349.789" y="295.488" fill="#1f77b4" stroke="#1f77b4" xlink:href="#mb3d5805639"/><use x="353.036" y="295.488" fill="#1f77b4" stroke="#1f77b4" xlink:href="#mb3d5805639"/><use x="356.282" y="295.488" fill="#1f77b4" stroke="#1f77b4" xlink:href="#mb3d5805639"/><use x="359.529" y="295.488" fill="#1f77b4" stroke="#1f77b4" xlink:href="#mb3d5805639"/><use x="362.775" y="295.488" fill="#1f77b4" stroke="#1f77b4" xlink:href="#mb3d5805639"/><use x="366.022" y="295.488" fill="#1f77b4" stroke="#1f77b4" xlink:href="#mb3d5805639"/><use x="369.268" y="295.488" fill="#1f77b4" stroke="#1f77b4" xlink:href="#mb3d5805639"/><use x="372.515" y="295.488" fill="#1f77b4" stroke="#1f77b4" xlink:href="#mb3d5805639"/><use x="375.761" y="295.488" fill="#1f77b4" stroke="#1f77b4" xlink:href="#mb3d5805639"/><use x="379.008" y="295.488" fill="#1f77b4" stroke="#1f77b4" xlink:href="#mb3d5805639"/><use x="382.255" y="295.488" fill="#1f77b4" stroke="#1f77b4" xlink:href="#mb3d5805639"/><use x="385.501" y="295.488" fill="#1f77b4" stroke="#1f77b4" xlink:href="#mb3d5805639"/><use x="388.748" y="295.488" fill="#1f77b4" stroke="#1f77b4" xlink:href="#mb3d5805639"/><use x="391.994" y="295.488" fill="#1f77b4" stroke="#1f77b4" xlink:href="#mb3d5805639"/><use x="395.241" y="295.488" fill="#1f77b4" stroke="#1f77b4" xlink:href="#mb3d5805639"/></g></g><g id="line2d_17"><defs><path id="m2df64eb561" stroke="#ff7f0e" d="M -3 3 L 3 -3 M -3 -3 L 3 3"/></defs><g clip-path="url(#p83e727a732)"><use x="73.833" y="295.488" fill="#ff7f0e" stroke="#ff7f0e" xlink:href="#m2df64eb561"/><use x="77.079" y="295.488" fill="#ff7f0e" stroke="#ff7f0e" xlink:href="#m2df64eb561"/><use x="80.326" y="295.488" fill="#ff7f0e" stroke="#ff7f0e" xlink:href="#m2df64eb561"/><use x="83.572" y="215.05" fill="#ff7f0e" stroke="#ff7f0e" xlink:href="#m2df64eb561"/><use x="86.819" y="215.05" fill="#ff7f0e" stroke="#ff7f0e" xlink:href="#m2df64eb561"/><use x="90.065" y="215.05" fill="#ff7f0e" stroke="#ff7f0e" xlink:href="#m2df64eb561"/><use x="93.312" y="215.05" fill="#ff7f0e" stroke="#ff7f0e" xlink:href="#m2df64eb561"/><use x="96.559" y="229.216" fill="#ff7f0e" stroke="#ff7f0e" xlink:href="#m2df64eb561"/><use x="99.805" y="229.216" fill="#ff7f0e" stroke="#ff7f0e" xlink:href="#m2df64eb561"/><use x="103.052" y="229.216" fill="#ff7f0e" stroke="#ff7f0e" xlink:href="#m2df64eb561"/><use x="106.298" y="229.216" fill="#ff7f0e" stroke="#ff7f0e" xlink:href="#m2df64eb561"/><use x="109.545" y="236.376" fill="#ff7f0e" stroke="#ff7f0e" xlink:href="#m2df64eb561"/><use x="112.791" y="236.376" fill="#ff7f0e" stroke="#ff7f0e" xlink:href="#m2df64eb561"/><use x="116.038" y="236.376" fill="#ff7f0e" stroke="#ff7f0e" xlink:href="#m2df64eb561"/><use x="119.284" y="236.376" fill="#ff7f0e" stroke="#ff7f0e" xlink:href="#m2df64eb561"/><use x="122.531" y="231.312" fill="#ff7f0e" stroke="#ff7f0e" xlink:href="#m2df64eb561"/><use x="125.777" y="231.312" fill="#ff7f0e" stroke="#ff7f0e" xlink:href="#m2df64eb561"/><use x="129.024" y="231.312" fill="#ff7f0e" stroke="#ff7f0e" xlink:href="#m2df64eb561"/><use x="132.271" y="231.312" fill="#ff7f0e" stroke="#ff7f0e" xlink:href="#m2df64eb561"/><use x="135.517" y="232.722" fill="#ff7f0e" stroke="#ff7f0e" xlink:href="#m2df64eb561"/><use x="138.764" y="232.722" fill="#ff7f0e" stroke="#ff7f0e" xlink:href="#m2df64eb561"/><use x="142.01" y="232.722" fill="#ff7f0e" stroke="#ff7f0e" xlink:href="#m2df64eb561"/><use x="145.257" y="232.722" fill="#ff7f0e" stroke="#ff7f0e" xlink:href="#m2df64eb561"/><use x="148.503" y="153.506" fill="#ff7f0e" stroke="#ff7f0e" xlink:href="#m2df64eb561"/><use x="151.75" y="153.506" fill="#ff7f0e" stroke="#ff7f0e" xlink:href="#m2df64eb561"/><use x="154.996" y="153.506" fill="#ff7f0e" stroke="#ff7f0e" xlink:href="#m2df64eb561"/><use x="158.243" y="153.506" fill="#ff7f0e" stroke="#ff7f0e" xlink:href="#m2df64eb561"/><use x="161.489" y="166.64" fill="#ff7f0e" stroke="#ff7f0e" xlink:href="#m2df64eb561"/><use x="164.736" y="166.64" fill="#ff7f0e" stroke="#ff7f0e" xlink:href="#m2df64eb561"/><use x="167.983" y="166.64" fill="#ff7f0e" stroke="#ff7f0e" xlink:href="#m2df64eb561"/><use x="171.229" y="166.64" fill="#ff7f0e" stroke="#ff7f0e" xlink:href="#m2df64eb561"/><use x="174.476" y="173.583" fill="#ff7f0e" stroke="#ff7f0e" xlink:href="#m2df64eb561"/><use x="177.722" y="173.583" fill="#ff7f0e" stroke="#ff7f0e" xlink:href="#m2df64eb561"/><use x="180.969" y="173.583" fill="#ff7f0e" stroke="#ff7f0e" xlink:href="#m2df64eb561"/><use x="184.215" y="173.583" fill="#ff7f0e" stroke="#ff7f0e" xlink:href="#m2df64eb561"/><use x="187.462" y="168.503" fill="#ff7f0e" stroke="#ff7f0e" xlink:href="#m2df64eb561"/><use x="190.708" y="168.503" fill="#ff7f0e" stroke="#ff7f0e" xlink:href="#m2df64eb561"/><use x="193.955" y="168.503" fill="#ff7f0e" stroke="#ff7f0e" xlink:href="#m2df64eb561"/><use x="197.201" y="168.503" fill="#ff7f0e" stroke="#ff7f0e" xlink:href="#m2df64eb561"/><use x="200.448" y="169.897" fill="#ff7f0e" stroke="#ff7f0e" xlink:href="#m2df64eb561"/><use x="203.695" y="169.897" fill="#ff7f0e" stroke="#ff7f0e" xlink:href="#m2df64eb561"/><use x="206.941" y="169.897" fill="#ff7f0e" stroke="#ff7f0e" xlink:href="#m2df64eb561"/><use x="210.188" y="169.897" fill="#ff7f0e" stroke="#ff7f0e" xlink:href="#m2df64eb561"/><use x="213.434" y="170.039" fill="#ff7f0e" stroke="#ff7f0e" xlink:href="#m2df64eb561"/><use x="216.681" y="170.039" fill="#ff7f0e" stroke="#ff7f0e" xlink:href="#m2df64eb561"/><use x="219.927" y="170.039" fill="#ff7f0e" stroke="#ff7f0e" xlink:href="#m2df64eb561"/><use x="223.174" y="170.039" fill="#ff7f0e" stroke="#ff7f0e" xlink:href="#m2df64eb561"/><use x="226.42" y="169.75" fill="#ff7f0e" stroke="#ff7f0e" xlink:href="#m2df64eb561"/><use x="229.667" y="169.75" fill="#ff7f0e" stroke="#ff7f0e" xlink:href="#m2df64eb561"/><use x="232.913" y="169.75" fill="#ff7f0e" stroke="#ff7f0e" xlink:href="#m2df64eb561"/><use x="236.16" y="169.75" fill="#ff7f0e" stroke="#ff7f0e" xlink:href="#m2df64eb561"/><use x="239.407" y="169.867" fill="#ff7f0e" stroke="#ff7f0e" xlink:href="#m2df64eb561"/><use x="242.653" y="169.867" fill="#ff7f0e" stroke="#ff7f0e" xlink:href="#m2df64eb561"/><use x="245.9" y="169.867" fill="#ff7f0e" stroke="#ff7f0e" xlink:href="#m2df64eb561"/><use x="249.146" y="169.867" fill="#ff7f0e" stroke="#ff7f0e" xlink:href="#m2df64eb561"/><use x="252.393" y="169.857" fill="#ff7f0e" stroke="#ff7f0e" xlink:href="#m2df64eb561"/><use x="255.639" y="169.857" fill="#ff7f0e" stroke="#ff7f0e" xlink:href="#m2df64eb561"/><use x="258.886" y="169.857" fill="#ff7f0e" stroke="#ff7f0e" xlink:href="#m2df64eb561"/><use x="262.132" y="169.857" fill="#ff7f0e" stroke="#ff7f0e" xlink:href="#m2df64eb561"/><use x="265.379" y="169.843" fill="#ff7f0e" stroke="#ff7f0e" xlink:href="#m2df64eb561"/><use x="268.625" y="169.843" fill="#ff7f0e" stroke="#ff7f0e" xlink:href="#m2df64eb561"/><use x="271.872" y="169.843" fill="#ff7f0e" stroke="#ff7f0e" xlink:href="#m2df64eb561"/><use x="275.119" y="169.843" fill="#ff7f0e" stroke="#ff7f0e" xlink:href="#m2df64eb561"/><use x="278.365" y="169.851" fill="#ff7f0e" stroke="#ff7f0e" xlink:href="#m2df64eb561"/><use x="281.612" y="169.851" fill="#ff7f0e" stroke="#ff7f0e" xlink:href="#m2df64eb561"/><use x="284.858" y="169.851" fill="#ff7f0e" stroke="#ff7f0e" xlink:href="#m2df64eb561"/><use x="288.105" y="169.851" fill="#ff7f0e" stroke="#ff7f0e" xlink:href="#m2df64eb561"/><use x="291.351" y="169.849" fill="#ff7f0e" stroke="#ff7f0e" xlink:href="#m2df64eb561"/><use x="294.598" y="169.849" fill="#ff7f0e" stroke="#ff7f0e" xlink:href="#m2df64eb561"/><use x="297.844" y="169.849" fill="#ff7f0e" stroke="#ff7f0e" xlink:href="#m2df64eb561"/><use x="301.091" y="169.849" fill="#ff7f0e" stroke="#ff7f0e" xlink:href="#m2df64eb561"/><use x="304.337" y="169.849" fill="#ff7f0e" stroke="#ff7f0e" xlink:href="#m2df64eb561"/><use x="307.584" y="169.849" fill="#ff7f0e" stroke="#ff7f0e" xlink:href="#m2df64eb561"/><use x="310.831" y="245.358" fill="#ff7f0e" stroke="#ff7f0e" xlink:href="#m2df64eb561"/><use x="314.077" y="245.358" fill="#ff7f0e" stroke="#ff7f0e" xlink:href="#m2df64eb561"/><use x="317.324" y="245.358" fill="#ff7f0e" stroke="#ff7f0e" xlink:href="#m2df64eb561"/><use x="320.57" y="245.358" fill="#ff7f0e" stroke="#ff7f0e" xlink:href="#m2df64eb561"/><use x="323.817" y="275.486" fill="#ff7f0e" stroke="#ff7f0e" xlink:href="#m2df64eb561"/><use x="327.063" y="275.486" fill="#ff7f0e" stroke="#ff7f0e" xlink:href="#m2df64eb561"/><use x="330.31" y="275.486" fill="#ff7f0e" stroke="#ff7f0e" xlink:href="#m2df64eb561"/><use x="333.556" y="275.486" fill="#ff7f0e" stroke="#ff7f0e" xlink:href="#m2df64eb561"/><use x="336.803" y="287.507" fill="#ff7f0e" stroke="#ff7f0e" xlink:href="#m2df64eb561"/><use x="340.049" y="287.507" fill="#ff7f0e" stroke="#ff7f0e" xlink:href="#m2df64eb561"/><use x="343.296" y="287.507" fill="#ff7f0e" stroke="#ff7f0e" xlink:href="#m2df64eb561"/><use x="346.543" y="287.507" fill="#ff7f0e" stroke="#ff7f0e" xlink:href="#m2df64eb561"/><use x="349.789" y="292.304" fill="#ff7f0e" stroke="#ff7f0e" xlink:href="#m2df64eb561"/><use x="353.036" y="292.304" fill="#ff7f0e" stroke="#ff7f0e" xlink:href="#m2df64eb561"/><use x="356.282" y="292.304" fill="#ff7f0e" stroke="#ff7f0e" xlink:href="#m2df64eb561"/><use x="359.529" y="292.304" fill="#ff7f0e" stroke="#ff7f0e" xlink:href="#m2df64eb561"/><use x="362.775" y="294.217" fill="#ff7f0e" stroke="#ff7f0e" xlink:href="#m2df64eb561"/><use x="366.022" y="294.217" fill="#ff7f0e" stroke="#ff7f0e" xlink:href="#m2df64eb561"/><use x="369.268" y="294.217" fill="#ff7f0e" stroke="#ff7f0e" xlink:href="#m2df64eb561"/><use x="372.515" y="294.217" fill="#ff7f0e" stroke="#ff7f0e" xlink:href="#m2df64eb561"/><use x="375.761" y="294.981" fill="#ff7f0e" stroke="#ff7f0e" xlink:href="#m2df64eb561"/><use x="379.008" y="294.981" fill="#ff7f0e" stroke="#ff7f0e" xlink:href="#m2df64eb561"/><use x="382.255" y="294.981" fill="#ff7f0e" stroke="#ff7f0e" xlink:href="#m2df64eb561"/><use x="385.501" y="294.981" fill="#ff7f0e" stroke="#ff7f0e" xlink:href="#m2df64eb561"/><use x="388.748" y="295.286" fill="#ff7f0e" stroke="#ff7f0e" xlink:href="#m2df64eb561"/><use x="391.994" y="295.286" fill="#ff7f0e" stroke="#ff7f0e" xlink:href="#m2df64eb561"/><use x="395.241" y="295.286" fill="#ff7f0e" stroke="#ff7f0e" xlink:href="#m2df64eb561"/><use x="398.487" y="295.286" fill="#ff7f0e" stroke="#ff7f0e" xlink:href="#m2df64eb561"/></g></g><g id="patch_3"><path fill="none" stroke="#000" stroke-linecap="square" stroke-linejoin="miter" stroke-width=".8" d="M 57.6 307.584 L 57.6 41.472"/></g><g id="patch_4"><path fill="none" stroke="#000" stroke-linecap="square" stroke-linejoin="miter" stroke-width=".8" d="M 414.72 307.584 L 414.72 41.472"/></g><g id="patch_5"><path fill="none" stroke="#000" stroke-linecap="square" stroke-linejoin="miter" stroke-width=".8" d="M 57.6 307.584 L 414.72 307.584"/></g><g id="patch_6"><path fill="none" stroke="#000" stroke-linecap="square" stroke-linejoin="miter" stroke-width=".8" d="M 57.6 41.472 L 414.72 41.472"/></g><g id="legend_1"><g id="patch_7"><path fill="#fff" stroke="#ccc" stroke-linejoin="miter" d="M 64.6 302.584 L 141.496875 302.584 Q 143.496875 302.584 143.496875 300.584 L 143.496875 272.22775 Q 143.496875 270.22775 141.496875 270.22775 L 64.6 270.22775 Q 62.6 270.22775 62.6 272.22775 L 62.6 300.584 Q 62.6 302.584 64.6 302.584 z" opacity=".8"/></g><g id="line2d_19"><g><use x="76.6" y="278.326" fill="#1f77b4" stroke="#1f77b4" xlink:href="#mb3d5805639"/></g></g><g id="text_18"><defs><path id="DejaVuSans-73" d="M 9.8125 72.90625 L 19.671875 72.90625 L 19.671875 0 L 9.8125 0 z"/><path id="DejaVuSans-110" d="M 54.890625 33.015625 L 54.890625 0 L 45.90625 0 L 45.90625 32.71875 Q 45.90625 40.484375 42.875 44.328125 Q 39.84375 48.1875 33.796875 48.1875 Q 26.515625 48.1875 22.3125 43.546875 Q 18.109375 38.921875 18.109375 30.90625 L 18.109375 0 L 9.078125 0 L 9.078125 54.6875 L 18.109375 54.6875 L 18.109375 46.1875 Q 21.34375 51.125 25.703125 53.5625 Q 30.078125 56 35.796875 56 Q 45.21875 56 50.046875 50.171875 Q 54.890625 44.34375 54.890625 33.015625 z"/><path id="DejaVuSans-112" d="M 18.109375 8.203125 L 18.109375 -20.796875 L 9.078125 -20.796875 L 9.078125 54.6875 L 18.109375 54.6875 L 18.109375 46.390625 Q 20.953125 51.265625 25.265625 53.625 Q 29.59375 56 35.59375 56 Q 45.5625 56 51.78125 48.09375 Q 58.015625 40.1875 58.015625 27.296875 Q 58.015625 14.40625 51.78125 6.484375 Q 45.5625 -1.421875 35.59375 -1.421875 Q 29.59375 -1.421875 25.265625 0.953125 Q 20.953125 3.328125 18.109375 8.203125 z M 48.6875 27.296875 Q 48.6875 37.203125 44.609375 42.84375 Q 40.53125 48.484375 33.40625 48.484375 Q 26.265625 48.484375 22.1875 42.84375 Q 18.109375 37.203125 18.109375 27.296875 Q 18.109375 17.390625 22.1875 11.75 Q 26.265625 6.109375 33.40625 6.109375 Q 40.53125 6.109375 44.609375 11.75 Q 48.6875 17.390625 48.6875 27.296875 z"/><path id="DejaVuSans-117" d="M 8.5 21.578125 L 8.5 54.6875 L 17.484375 54.6875 L 17.484375 21.921875 Q 17.484375 14.15625 20.5 10.265625 Q 23.53125 6.390625 29.59375 6.390625 Q 36.859375 6.390625 41.078125 11.03125 Q 45.3125 15.671875 45.3125 23.6875 L 45.3125 54.6875 L 54.296875 54.6875 L 54.296875 0 L 45.3125 0 L 45.3125 8.40625 Q 42.046875 3.421875 37.71875 1 Q 33.40625 -1.421875 27.6875 -1.421875 Q 18.265625 -1.421875 13.375 4.4375 Q 8.5 10.296875 8.5 21.578125 z M 31.109375 56 z"/><path id="DejaVuSans-116" d="M 18.3125 70.21875 L 18.3125 54.6875 L 36.8125 54.6875 L 36.8125 47.703125 L 18.3125 47.703125 L 18.3125 18.015625 Q 18.3125 11.328125 20.140625 9.421875 Q 21.96875 7.515625 27.59375 7.515625 L 36.8125 7.515625 L 36.8125 0 L 27.59375 0 Q 17.1875 0 13.234375 3.875 Q 9.28125 7.765625 9.28125 18.015625 L 9.28125 47.703125 L 2.6875 47.703125 L 2.6875 54.6875 L 9.28125 54.6875 L 9.28125 70.21875 z"/></defs><g transform="translate(94.6 281.826187)scale(0.1 -0.1)"><use xlink:href="#DejaVuSans-73"/><use x="29.492" xlink:href="#DejaVuSans-110"/><use x="92.871" xlink:href="#DejaVuSans-112"/><use x="156.348" xlink:href="#DejaVuSans-117"/><use x="219.727" xlink:href="#DejaVuSans-116"/></g></g><g id="line2d_21"><g><use x="76.6" y="293.004" fill="#ff7f0e" stroke="#ff7f0e" xlink:href="#m2df64eb561"/></g></g><g id="text_19"><defs><path id="DejaVuSans-79" d="M 39.40625 66.21875 Q 28.65625 66.21875 22.328125 58.203125 Q 16.015625 50.203125 16.015625 36.375 Q 16.015625 22.609375 22.328125 14.59375 Q 28.65625 6.59375 39.40625 6.59375 Q 50.140625 6.59375 56.421875 14.59375 Q 62.703125 22.609375 62.703125 36.375 Q 62.703125 50.203125 56.421875 58.203125 Q 50.140625 66.21875 39.40625 66.21875 z M 39.40625 74.21875 Q 54.734375 74.21875 63.90625 63.9375 Q 73.09375 53.65625 73.09375 36.375 Q 73.09375 19.140625 63.90625 8.859375 Q 54.734375 -1.421875 39.40625 -1.421875 Q 24.03125 -1.421875 14.8125 8.828125 Q 5.609375 19.09375 5.609375 36.375 Q 5.609375 53.65625 14.8125 63.9375 Q 24.03125 74.21875 39.40625 74.21875 z"/><path id="DejaVuSans-32"/><path id="DejaVuSans-67" d="M 64.40625 67.28125 L 64.40625 56.890625 Q 59.421875 61.53125 53.78125 63.8125 Q 48.140625 66.109375 41.796875 66.109375 Q 29.296875 66.109375 22.65625 58.46875 Q 16.015625 50.828125 16.015625 36.375 Q 16.015625 21.96875 22.65625 14.328125 Q 29.296875 6.6875 41.796875 6.6875 Q 48.140625 6.6875 53.78125 8.984375 Q 59.421875 11.28125 64.40625 15.921875 L 64.40625 5.609375 Q 59.234375 2.09375 53.4375 0.328125 Q 47.65625 -1.421875 41.21875 -1.421875 Q 24.65625 -1.421875 15.125 8.703125 Q 5.609375 18.84375 5.609375 36.375 Q 5.609375 53.953125 15.125 64.078125 Q 24.65625 74.21875 41.21875 74.21875 Q 47.75 74.21875 53.53125 72.484375 Q 59.328125 70.75 64.40625 67.28125 z"/></defs><g transform="translate(94.6 296.504312)scale(0.1 -0.1)"><use xlink:href="#DejaVuSans-79"/><use x="78.711" xlink:href="#DejaVuSans-117"/><use x="142.09" xlink:href="#DejaVuSans-116"/><use x="181.299" xlink:href="#DejaVuSans-112"/><use x="244.775" xlink:href="#DejaVuSans-117"/><use x="308.154" xlink:href="#DejaVuSans-116"/><use x="347.363" xlink:href="#DejaVuSans-32"/><use x="379.15" xlink:href="#DejaVuSans-67"/></g></g></g></g></g><defs><clipPath id="p83e727a732"><rect width="357.12" height="266.112" x="57.6" y="41.472"/></clipPath></defs></svg>