<svg xmlns="http://www.w3.org/2000/svg" xmlns:xlink="http://www.w3.org/1999/xlink" width="382pt" height="221pt" viewBox="0 0 381.84 221"><g id="graph0" class="graph" transform="scale(1 1) rotate(0) translate(4 217)"><title>structs</title><polygon fill="#fff" stroke="none" points="-4 4 -4 -217 377.844 -217 377.844 4 -4 4"/><g id="node1" class="node"><title>a</title><polygon fill="none" stroke="#000" points="199.844 -176.5 199.844 -212.5 253.844 -212.5 253.844 -176.5 199.844 -176.5"/><text x="226.844" y="-190.8" font-family="Times New Roman,serif" font-size="14" text-anchor="middle">a</text></g><g id="node2" class="node"><title>b</title><polygon fill="none" stroke="#000" points="4.844 -88.5 4.844 -124.5 58.844 -124.5 58.844 -88.5 4.844 -88.5"/><text x="31.844" y="-102.8" font-family="Times New Roman,serif" font-size="14" text-anchor="middle">b</text></g><g id="edge2" class="edge"><title>a-&gt;b</title><path fill="none" stroke="#000" d="M199.769,-191.846C168.467,-188.893 116.323,-180.698 77.8438,-158 67.0993,-151.662 57.4182,-142.007 49.7407,-132.83"/><polygon fill="#000" stroke="#000" points="52.483 -130.655 43.533 -124.984 46.993 -134.998 52.483 -130.655"/><text x="157.844" y="-146.8" font-family="Times New Roman,serif" font-size="14" text-anchor="middle">a0.95, p0.0 + ph_ab*1, d0.2</text></g><g id="node3" class="node"><title>c</title><polygon fill="none" stroke="#000" points="162.844 -.5 162.844 -36.5 216.844 -36.5 216.844 -.5 162.844 -.5"/><text x="189.844" y="-14.8" font-family="Times New Roman,serif" font-size="14" text-anchor="middle">c</text></g><g id="edge3" class="edge"><title>b-&gt;c</title><path fill="none" stroke="#000" d="M12.1351,-88.1397C2.88747,-77.9076 -4.46278,-65.0419 3.84381,-55 22.3404,-32.6393 103.786,-24.2364 152.56,-21.1744"/><polygon fill="#000" stroke="#000" points="152.951 -24.658 162.731 -20.583 152.544 -17.669 152.951 -24.658"/><text x="120.844" y="-58.8" font-family="Times New Roman,serif" font-size="14" text-anchor="middle">a1.0 * amp_bc**1, p0.0 + ph_bc*1, d0.1</text></g><g id="edge1" class="edge"><title>c-&gt;a</title><path fill="none" stroke="#000" d="M217.092,-23.7762C235.408,-28.221 258.247,-37.1662 269.844,-55 294.8,-93.3771 289.356,-116.589 269.844,-158 267.737,-162.472 264.76,-166.572 261.343,-170.271"/><polygon fill="#000" stroke="#000" points="258.756 -167.899 253.852 -177.291 263.542 -173.007 258.756 -167.899"/><text x="329.844" y="-102.8" font-family="Times New Roman,serif" font-size="14" text-anchor="middle">a0.6, p0.5, d0.1</text></g></g></svg>