<?xml version="1.0" encoding="UTF-8" standalone="no"?>
<!DOCTYPE svg PUBLIC "-//W3C//DTD SVG 1.1//EN"
 "http://www.w3.org/Graphics/SVG/1.1/DTD/svg11.dtd">
<!-- Generated by graphviz version 2.38.0 (20140413.2041)
 -->
<!-- Title: structs Pages: 1 -->
<svg width="307pt" height="309pt"
 viewBox="0.00 0.00 307.00 309.00" xmlns="http://www.w3.org/2000/svg" xmlns:xlink="http://www.w3.org/1999/xlink">
<g id="graph0" class="graph" transform="scale(1 1) rotate(0) translate(4 305)">
<title>structs</title>
<polygon fill="white" stroke="none" points="-4,4 -4,-305 303,-305 303,4 -4,4"/>
<!-- a -->
<g id="node1" class="node"><title>a</title>
<polygon fill="none" stroke="black" points="161,-264.5 161,-300.5 215,-300.5 215,-264.5 161,-264.5"/>
<text text-anchor="middle" x="188" y="-278.8" font-family="Times New Roman,serif" font-size="14.00">a</text>
</g>
<!-- b -->
<g id="node2" class="node"><title>b</title>
<polygon fill="none" stroke="black" points="0,-176.5 0,-212.5 54,-212.5 54,-176.5 0,-176.5"/>
<text text-anchor="middle" x="27" y="-190.8" font-family="Times New Roman,serif" font-size="14.00">b</text>
</g>
<!-- a&#45;&gt;b -->
<g id="edge1" class="edge"><title>a&#45;&gt;b</title>
<path fill="none" stroke="black" d="M160.997,-277.18C136.785,-272.393 101.02,-263 74,-246 63.3367,-239.291 53.5012,-229.57 45.6136,-220.444"/>
<polygon fill="black" stroke="black" points="48.2699,-218.163 39.2117,-212.668 42.8659,-222.613 48.2699,-218.163"/>
<text text-anchor="middle" x="118" y="-234.8" font-family="Times New Roman,serif" font-size="14.00">a1.1, p0.5, d1.0</text>
</g>
<!-- c -->
<g id="node3" class="node"><title>c</title>
<polygon fill="none" stroke="black" points="0,-88.5 0,-124.5 54,-124.5 54,-88.5 0,-88.5"/>
<text text-anchor="middle" x="27" y="-102.8" font-family="Times New Roman,serif" font-size="14.00">c</text>
</g>
<!-- b&#45;&gt;c -->
<g id="edge2" class="edge"><title>b&#45;&gt;c</title>
<path fill="none" stroke="black" d="M18.6735,-176.194C16.3593,-170.53 14.1628,-164.118 13,-158 11.5117,-150.169 12.6817,-141.784 14.8649,-134.141"/>
<polygon fill="black" stroke="black" points="18.1937,-135.224 18.1801,-124.629 11.5837,-132.92 18.1937,-135.224"/>
<text text-anchor="middle" x="52" y="-146.8" font-family="Times New Roman,serif" font-size="14.00">a0.9, p1, d2.0</text>
</g>
<!-- d -->
<g id="node4" class="node"><title>d</title>
<polygon fill="none" stroke="black" points="140,-0.5 140,-36.5 194,-36.5 194,-0.5 140,-0.5"/>
<text text-anchor="middle" x="167" y="-14.8" font-family="Times New Roman,serif" font-size="14.00">d</text>
</g>
<!-- c&#45;&gt;d -->
<g id="edge3" class="edge"><title>c&#45;&gt;d</title>
<path fill="none" stroke="black" d="M36.9728,-88.4482C44.1133,-77.5499 54.6292,-63.8506 67,-55 85.7134,-41.6117 109.97,-32.8371 129.907,-27.3613"/>
<polygon fill="black" stroke="black" points="130.785,-30.7492 139.594,-24.8619 129.037,-23.9712 130.785,-30.7492"/>
<text text-anchor="middle" x="114.5" y="-58.8" font-family="Times New Roman,serif" font-size="14.00">a0.98, p0.2, d0.5</text>
</g>
<!-- d&#45;&gt;a -->
<g id="edge4" class="edge"><title>d&#45;&gt;a</title>
<path fill="none" stroke="black" d="M183.527,-36.5919C187.776,-42.048 191.774,-48.3962 194,-55 217.215,-123.873 203.794,-211.315 194.528,-254.646"/>
<polygon fill="black" stroke="black" points="191.107,-253.907 192.343,-264.429 197.938,-255.432 191.107,-253.907"/>
<text text-anchor="middle" x="252.5" y="-146.8" font-family="Times New Roman,serif" font-size="14.00">a0.8, p&#45;0.5, d1.5</text>
</g>
</g>
</svg>
