<svg xmlns="http://www.w3.org/2000/svg" xmlns:xlink="http://www.w3.org/1999/xlink" width="412" height="412" viewBox="0 0 309 309"><g id="graph0" class="graph" transform="scale(1 1) rotate(0) translate(4 305)"><title>structs</title><polygon fill="#fff" stroke="none" points="-4 4 -4 -305 305 -305 305 4 -4 4"/><g id="node1" class="node"><title>a</title><polygon fill="none" stroke="#000" points="157 -264.5 157 -300.5 211 -300.5 211 -264.5 157 -264.5"/><text x="184" y="-278.8" font-family="Times New Roman,serif" font-size="14" text-anchor="middle">a</text></g><g id="node2" class="node"><title>b</title><polygon fill="none" stroke="#000" points="0 -176.5 0 -212.5 54 -212.5 54 -176.5 0 -176.5"/><text x="27" y="-190.8" font-family="Times New Roman,serif" font-size="14" text-anchor="middle">b</text></g><g id="edge1" class="edge"><title>a-&gt;b</title><path fill="none" stroke="#000" d="M156.919,-278.012C131.831,-273.742 94.3722,-264.636 67,-246 57.4717,-239.513 49.1323,-230.064 42.5688,-221.09"/><polygon fill="#000" stroke="#000" points="45.384 -219.007 36.839 -212.743 39.613 -222.968 45.384 -219.007"/><text x="114.5" y="-234.8" font-family="Times New Roman,serif" font-size="14" text-anchor="middle">a0.95, p0.5, d1.0</text></g><g id="node3" class="node"><title>c</title><polygon fill="none" stroke="#000" points="0 -88.5 0 -124.5 54 -124.5 54 -88.5 0 -88.5"/><text x="27" y="-102.8" font-family="Times New Roman,serif" font-size="14" text-anchor="middle">c</text></g><g id="edge2" class="edge"><title>b-&gt;c</title><path fill="none" stroke="#000" d="M18.1801,-176.371C14.2176,-166.671 10.8596,-154.262 13,-143 13.5451,-140.132 14.3173,-137.2 15.2222,-134.31"/><polygon fill="#000" stroke="#000" points="18.55 -135.4 18.674 -124.806 11.97 -133.011 18.55 -135.4"/><text x="52" y="-146.8" font-family="Times New Roman,serif" font-size="14" text-anchor="middle">a0.9, p1, d2.0</text></g><g id="node4" class="node"><title>d</title><polygon fill="none" stroke="#000" points="140 -.5 140 -36.5 194 -36.5 194 -.5 140 -.5"/><text x="167" y="-14.8" font-family="Times New Roman,serif" font-size="14" text-anchor="middle">d</text></g><g id="edge3" class="edge"><title>c-&gt;d</title><path fill="none" stroke="#000" d="M36.9728,-88.4482C44.1133,-77.5499 54.6292,-63.8506 67,-55 85.7134,-41.6117 109.97,-32.8371 129.907,-27.3613"/><polygon fill="#000" stroke="#000" points="130.785 -30.749 139.594 -24.862 129.037 -23.971 130.785 -30.749"/><text x="114.5" y="-58.8" font-family="Times New Roman,serif" font-size="14" text-anchor="middle">a0.98, p0.2, d0.5</text></g><g id="edge4" class="edge"><title>d-&gt;a</title><path fill="none" stroke="#000" d="M183.527,-36.5919C187.776,-42.048 191.774,-48.3962 194,-55 221.115,-135.442 205.618,-161.91 194,-246 193.619,-248.759 193.078,-251.606 192.444,-254.43"/><polygon fill="#000" stroke="#000" points="188.989 -253.808 189.85 -264.368 195.762 -255.576 188.989 -253.808"/><text x="254.5" y="-146.8" font-family="Times New Roman,serif" font-size="14" text-anchor="middle">a0.8, p-0.5, d1.5</text></g></g></svg>