<svg xmlns="http://www.w3.org/2000/svg" xmlns:xlink="http://www.w3.org/1999/xlink" width="380" height="221pt" viewBox="0 0 285.48 221"><g id="graph0" class="graph" transform="scale(1 1) rotate(0) translate(4 217)"><title>structs</title><polygon fill="#fff" stroke="none" points="-4 4 -4 -217 281.482 -217 281.482 4 -4 4"/><g id="node1" class="node"><title>a</title><polygon fill="none" stroke="#000" points="115.482 -176.5 115.482 -212.5 169.482 -212.5 169.482 -176.5 115.482 -176.5"/><text x="142.482" y="-190.8" font-family="Times New Roman,serif" font-size="14" text-anchor="middle">a</text></g><g id="node2" class="node"><title>b</title><polygon fill="none" stroke="#000" points="115.482 -88.5 115.482 -124.5 169.482 -124.5 169.482 -88.5 115.482 -88.5"/><text x="142.482" y="-102.8" font-family="Times New Roman,serif" font-size="14" text-anchor="middle">b</text></g><g id="edge1" class="edge"><title>a-&gt;b</title><path fill="none" stroke="#000" d="M142.482,-176.097C142.482,-164.246 142.482,-148.317 142.482,-134.792"/><polygon fill="#000" stroke="#000" points="145.982 -134.584 142.482 -124.584 138.982 -134.584 145.982 -134.584"/><text x="175.982" y="-146.8" font-family="Times New Roman,serif" font-size="14" text-anchor="middle">a0.8, p1, d1</text></g><g id="node3" class="node"><title>c</title><polygon fill="none" stroke="#000" points="7.482 -.5 7.482 -36.5 61.482 -36.5 61.482 -.5 7.482 -.5"/><text x="34.482" y="-14.8" font-family="Times New Roman,serif" font-size="14" text-anchor="middle">c</text></g><g id="edge2" class="edge"><title>b-&gt;c</title><path fill="none" stroke="#000" d="M115.421,-102.497C78.9691,-97.8309 17.0797,-87.5065 3.48232,-70 -2.63881,-62.1191 0.329394,-52.9601 6.37774,-44.6231"/><polygon fill="#000" stroke="#000" points="9.096 -46.829 12.924 -36.95 3.771 -42.286 9.096 -46.829"/><text x="36.982" y="-58.8" font-family="Times New Roman,serif" font-size="14" text-anchor="middle">a0.6, p2, d2</text></g><g id="node4" class="node"><title>d</title><polygon fill="none" stroke="#000" points="223.482 -.5 223.482 -36.5 277.482 -36.5 277.482 -.5 223.482 -.5"/><text x="250.482" y="-14.8" font-family="Times New Roman,serif" font-size="14" text-anchor="middle">d</text></g><g id="edge3" class="edge"><title>b-&gt;d</title><path fill="none" stroke="#000" d="M164.078,-88.3033C180.413,-75.296 203.025,-57.29 221.02,-42.9607"/><polygon fill="#000" stroke="#000" points="223.281 -45.634 228.924 -36.667 218.921 -40.158 223.281 -45.634"/><text x="235.982" y="-58.8" font-family="Times New Roman,serif" font-size="14" text-anchor="middle">a0.4, p3, d3</text></g></g></svg>