<svg xmlns="http://www.w3.org/2000/svg" xmlns:xlink="http://www.w3.org/1999/xlink" width="397pt" height="221pt" viewBox="0 0 396.72 221"><g id="graph0" class="graph" transform="scale(1 1) rotate(0) translate(4 217)"><title>structs</title><polygon fill="#fff" stroke="none" points="-4 4 -4 -217 392.72 -217 392.72 4 -4 4"/><g id="node1" class="node"><title>a</title><polygon fill="none" stroke="#000" points="170.72 -176.5 170.72 -212.5 224.72 -212.5 224.72 -176.5 170.72 -176.5"/><text x="197.72" y="-190.8" font-family="Times New Roman,serif" font-size="14" text-anchor="middle">a</text></g><g id="node2" class="node"><title>b</title><polygon fill="none" stroke="#000" points="170.72 -88.5 170.72 -124.5 224.72 -124.5 224.72 -88.5 170.72 -88.5"/><text x="197.72" y="-102.8" font-family="Times New Roman,serif" font-size="14" text-anchor="middle">b</text></g><g id="edge1" class="edge"><title>a-&gt;b</title><path fill="none" stroke="#000" d="M197.72,-176.097C197.72,-164.246 197.72,-148.317 197.72,-134.792"/><polygon fill="#000" stroke="#000" points="201.22 -134.584 197.72 -124.584 194.22 -134.584 201.22 -134.584"/><text x="286.72" y="-146.8" font-family="Times New Roman,serif" font-size="14" text-anchor="middle">a1.0 * a1**1, p0.0 + phi1*1, d1</text></g><g id="node3" class="node"><title>c</title><polygon fill="none" stroke="#000" points="7.72 -.5 7.72 -36.5 61.72 -36.5 61.72 -.5 7.72 -.5"/><text x="34.72" y="-14.8" font-family="Times New Roman,serif" font-size="14" text-anchor="middle">c</text></g><g id="edge2" class="edge"><title>b-&gt;c</title><path fill="none" stroke="#000" d="M170.6,-104.654C122.344,-102.516 24.6577,-95.1166 3.72007,-70 -2.76934,-62.2153 0.326687,-52.9435 6.59171,-44.482"/><polygon fill="#000" stroke="#000" points="9.443 -46.537 13.36 -36.693 4.159 -41.946 9.443 -46.537"/><text x="92.72" y="-58.8" font-family="Times New Roman,serif" font-size="14" text-anchor="middle">a1.0 * a2**1, p0.0 + phi2*1, d2</text></g><g id="node4" class="node"><title>d</title><polygon fill="none" stroke="#000" points="334.72 -.5 334.72 -36.5 388.72 -36.5 388.72 -.5 334.72 -.5"/><text x="361.72" y="-14.8" font-family="Times New Roman,serif" font-size="14" text-anchor="middle">d</text></g><g id="edge3" class="edge"><title>b-&gt;d</title><path fill="none" stroke="#000" d="M224.801,-91.2988C252.339,-76.8583 295.17,-54.398 325.588,-38.4474"/><polygon fill="#000" stroke="#000" points="327.368 -41.466 334.599 -33.722 324.117 -35.267 327.368 -41.466"/><text x="322.22" y="-58.8" font-family="Times New Roman,serif" font-size="14" text-anchor="middle">a0.4, p3, d3</text></g></g></svg>