<?xml version="1.0" encoding="UTF-8" standalone="no"?>
<!DOCTYPE svg PUBLIC "-//W3C//DTD SVG 1.1//EN"
 "http://www.w3.org/Graphics/SVG/1.1/DTD/svg11.dtd">
<!-- Generated by graphviz version 2.38.0 (20140413.2041)
 -->
<!-- Title: structs Pages: 1 -->
<svg width="397pt" height="221pt"
 viewBox="0.00 0.00 396.72 221.00" xmlns="http://www.w3.org/2000/svg" xmlns:xlink="http://www.w3.org/1999/xlink">
<g id="graph0" class="graph" transform="scale(1 1) rotate(0) translate(4 217)">
<title>structs</title>
<polygon fill="white" stroke="none" points="-4,4 -4,-217 392.72,-217 392.72,4 -4,4"/>
<!-- a -->
<g id="node1" class="node"><title>a</title>
<polygon fill="none" stroke="black" points="170.72,-176.5 170.72,-212.5 224.72,-212.5 224.72,-176.5 170.72,-176.5"/>
<text text-anchor="middle" x="197.72" y="-190.8" font-family="Times New Roman,serif" font-size="14.00">a</text>
</g>
<!-- b -->
<g id="node2" class="node"><title>b</title>
<polygon fill="none" stroke="black" points="170.72,-88.5 170.72,-124.5 224.72,-124.5 224.72,-88.5 170.72,-88.5"/>
<text text-anchor="middle" x="197.72" y="-102.8" font-family="Times New Roman,serif" font-size="14.00">b</text>
</g>
<!-- a&#45;&gt;b -->
<g id="edge1" class="edge"><title>a&#45;&gt;b</title>
<path fill="none" stroke="black" d="M197.72,-176.097C197.72,-164.246 197.72,-148.317 197.72,-134.792"/>
<polygon fill="black" stroke="black" points="201.22,-134.584 197.72,-124.584 194.22,-134.584 201.22,-134.584"/>
<text text-anchor="middle" x="286.72" y="-146.8" font-family="Times New Roman,serif" font-size="14.00">a1.0 * a1**1, p0.0 + phi1*1, d1</text>
</g>
<!-- c -->
<g id="node3" class="node"><title>c</title>
<polygon fill="none" stroke="black" points="7.72007,-0.5 7.72007,-36.5 61.7201,-36.5 61.7201,-0.5 7.72007,-0.5"/>
<text text-anchor="middle" x="34.7201" y="-14.8" font-family="Times New Roman,serif" font-size="14.00">c</text>
</g>
<!-- b&#45;&gt;c -->
<g id="edge2" class="edge"><title>b&#45;&gt;c</title>
<path fill="none" stroke="black" d="M170.6,-104.654C122.344,-102.516 24.6577,-95.1166 3.72007,-70 -2.76934,-62.2153 0.326687,-52.9435 6.59171,-44.482"/>
<polygon fill="black" stroke="black" points="9.44291,-46.5369 13.36,-36.6927 4.15895,-41.9456 9.44291,-46.5369"/>
<text text-anchor="middle" x="92.7201" y="-58.8" font-family="Times New Roman,serif" font-size="14.00">a1.0 * a2**1, p0.0 + phi2*1, d2</text>
</g>
<!-- d -->
<g id="node4" class="node"><title>d</title>
<polygon fill="none" stroke="black" points="334.72,-0.5 334.72,-36.5 388.72,-36.5 388.72,-0.5 334.72,-0.5"/>
<text text-anchor="middle" x="361.72" y="-14.8" font-family="Times New Roman,serif" font-size="14.00">d</text>
</g>
<!-- b&#45;&gt;d -->
<g id="edge3" class="edge"><title>b&#45;&gt;d</title>
<path fill="none" stroke="black" d="M224.801,-91.2988C252.339,-76.8583 295.17,-54.398 325.588,-38.4474"/>
<polygon fill="black" stroke="black" points="327.368,-41.4661 334.599,-33.7222 324.117,-35.2667 327.368,-41.4661"/>
<text text-anchor="middle" x="322.22" y="-58.8" font-family="Times New Roman,serif" font-size="14.00">a0.4, p3, d3</text>
</g>
</g>
</svg>
