<svg xmlns="http://www.w3.org/2000/svg" xmlns:xlink="http://www.w3.org/1999/xlink" width="576" height="384" version="1.1" viewBox="0 0 432 288"><defs><style type="text/css">*{stroke-linecap:butt;stroke-linejoin:round}</style></defs><g id="figure_1"><g id="patch_1"><path fill="#fff" d="M 0 288 L 432 288 L 432 0 L 0 0 z"/></g><g id="axes_1"><g id="patch_2"><path fill="#fff" d="M 69.23 232 L 415.8 232 L 415.8 16.2 L 69.23 16.2 z"/></g><g id="matplotlib.axis_1"><g id="xtick_1"><g id="line2d_1"><path fill="none" stroke="#b0b0b0" stroke-linecap="square" stroke-width=".8" d="M 84.983182 232 L 84.983182 16.2" clip-path="url(#p4292a17877)"/></g><g id="line2d_2"><defs><path id="m06f72a7f81" stroke="#000" stroke-width=".8" d="M 0 0 L 0 3.5"/></defs><g><use x="84.983" y="232" stroke="#000" stroke-width=".8" xlink:href="#m06f72a7f81"/></g></g><g id="text_1"><defs><path id="DejaVuSans-Bold-48" d="M 46 36.53125 Q 46 50.203125 43.4375 55.78125 Q 40.875 61.375 34.8125 61.375 Q 28.765625 61.375 26.171875 55.78125 Q 23.578125 50.203125 23.578125 36.53125 Q 23.578125 22.703125 26.171875 17.03125 Q 28.765625 11.375 34.8125 11.375 Q 40.828125 11.375 43.40625 17.03125 Q 46 22.703125 46 36.53125 z M 64.796875 36.375 Q 64.796875 18.265625 56.984375 8.421875 Q 49.171875 -1.421875 34.8125 -1.421875 Q 20.40625 -1.421875 12.59375 8.421875 Q 4.78125 18.265625 4.78125 36.375 Q 4.78125 54.546875 12.59375 64.375 Q 20.40625 74.21875 34.8125 74.21875 Q 49.171875 74.21875 56.984375 64.375 Q 64.796875 54.546875 64.796875 36.375 z"/></defs><g transform="translate(79.764822 250.397656)scale(0.15 -0.15)"><use xlink:href="#DejaVuSans-Bold-48"/></g></g></g><g id="xtick_2"><g id="line2d_3"><path fill="none" stroke="#b0b0b0" stroke-linecap="square" stroke-width=".8" d="M 163.749091 232 L 163.749091 16.2" clip-path="url(#p4292a17877)"/></g><g id="line2d_4"><g><use x="163.749" y="232" stroke="#000" stroke-width=".8" xlink:href="#m06f72a7f81"/></g></g><g id="text_2"><defs><path id="DejaVuSans-Bold-53" d="M 10.59375 72.90625 L 57.328125 72.90625 L 57.328125 59.078125 L 25.59375 59.078125 L 25.59375 47.796875 Q 27.734375 48.390625 29.90625 48.703125 Q 32.078125 49.03125 34.421875 49.03125 Q 47.75 49.03125 55.171875 42.359375 Q 62.59375 35.6875 62.59375 23.78125 Q 62.59375 11.96875 54.515625 5.265625 Q 46.4375 -1.421875 32.078125 -1.421875 Q 25.875 -1.421875 19.796875 -0.21875 Q 13.71875 0.984375 7.71875 3.421875 L 7.71875 18.21875 Q 13.671875 14.796875 19.015625 13.078125 Q 24.359375 11.375 29.109375 11.375 Q 35.9375 11.375 39.859375 14.71875 Q 43.796875 18.0625 43.796875 23.78125 Q 43.796875 29.546875 39.859375 32.859375 Q 35.9375 36.1875 29.109375 36.1875 Q 25.046875 36.1875 20.453125 35.125 Q 15.875 34.078125 10.59375 31.890625 z"/></defs><g transform="translate(158.530732 250.397656)scale(0.15 -0.15)"><use xlink:href="#DejaVuSans-Bold-53"/></g></g></g><g id="xtick_3"><g id="line2d_5"><path fill="none" stroke="#b0b0b0" stroke-linecap="square" stroke-width=".8" d="M 242.515 232 L 242.515 16.2" clip-path="url(#p4292a17877)"/></g><g id="line2d_6"><g><use x="242.515" y="232" stroke="#000" stroke-width=".8" xlink:href="#m06f72a7f81"/></g></g><g id="text_3"><defs><path id="DejaVuSans-Bold-49" d="M 11.71875 12.984375 L 28.328125 12.984375 L 28.328125 60.109375 L 11.28125 56.59375 L 11.28125 69.390625 L 28.21875 72.90625 L 46.09375 72.90625 L 46.09375 12.984375 L 62.703125 12.984375 L 62.703125 0 L 11.71875 0 z"/></defs><g transform="translate(232.078281 250.397656)scale(0.15 -0.15)"><use xlink:href="#DejaVuSans-Bold-49"/><use x="69.58" xlink:href="#DejaVuSans-Bold-48"/></g></g></g><g id="xtick_4"><g id="line2d_7"><path fill="none" stroke="#b0b0b0" stroke-linecap="square" stroke-width=".8" d="M 321.280909 232 L 321.280909 16.2" clip-path="url(#p4292a17877)"/></g><g id="line2d_8"><g><use x="321.281" y="232" stroke="#000" stroke-width=".8" xlink:href="#m06f72a7f81"/></g></g><g id="text_4"><g transform="translate(310.84419 250.397656)scale(0.15 -0.15)"><use xlink:href="#DejaVuSans-Bold-49"/><use x="69.58" xlink:href="#DejaVuSans-Bold-53"/></g></g></g><g id="xtick_5"><g id="line2d_9"><path fill="none" stroke="#b0b0b0" stroke-linecap="square" stroke-width=".8" d="M 400.046818 232 L 400.046818 16.2" clip-path="url(#p4292a17877)"/></g><g id="line2d_10"><g><use x="400.047" y="232" stroke="#000" stroke-width=".8" xlink:href="#m06f72a7f81"/></g></g><g id="text_5"><defs><path id="DejaVuSans-Bold-50" d="M 28.8125 13.8125 L 60.890625 13.8125 L 60.890625 0 L 7.90625 0 L 7.90625 13.8125 L 34.515625 37.3125 Q 38.09375 40.53125 39.796875 43.609375 Q 41.5 46.6875 41.5 50 Q 41.5 55.125 38.0625 58.25 Q 34.625 61.375 28.90625 61.375 Q 24.515625 61.375 19.28125 59.5 Q 14.0625 57.625 8.109375 53.90625 L 8.109375 69.921875 Q 14.453125 72.015625 20.65625 73.109375 Q 26.859375 74.21875 32.8125 74.21875 Q 45.90625 74.21875 53.15625 68.453125 Q 60.40625 62.703125 60.40625 52.390625 Q 60.40625 46.4375 57.328125 41.28125 Q 54.25 36.140625 44.390625 27.484375 z"/></defs><g transform="translate(389.610099 250.397656)scale(0.15 -0.15)"><use xlink:href="#DejaVuSans-Bold-50"/><use x="69.58" xlink:href="#DejaVuSans-Bold-48"/></g></g></g><g id="text_6"><defs><path id="DejaVuSans-84" d="M -0.296875 72.90625 L 61.375 72.90625 L 61.375 64.59375 L 35.5 64.59375 L 35.5 0 L 25.59375 0 L 25.59375 64.59375 L -0.296875 64.59375 z"/><path id="DejaVuSans-105" d="M 9.421875 54.6875 L 18.40625 54.6875 L 18.40625 0 L 9.421875 0 z M 9.421875 75.984375 L 18.40625 75.984375 L 18.40625 64.59375 L 9.421875 64.59375 z"/><path id="DejaVuSans-109" d="M 52 44.1875 Q 55.375 50.25 60.0625 53.125 Q 64.75 56 71.09375 56 Q 79.640625 56 84.28125 50.015625 Q 88.921875 44.046875 88.921875 33.015625 L 88.921875 0 L 79.890625 0 L 79.890625 32.71875 Q 79.890625 40.578125 77.09375 44.375 Q 74.3125 48.1875 68.609375 48.1875 Q 61.625 48.1875 57.5625 43.546875 Q 53.515625 38.921875 53.515625 30.90625 L 53.515625 0 L 44.484375 0 L 44.484375 32.71875 Q 44.484375 40.625 41.703125 44.40625 Q 38.921875 48.1875 33.109375 48.1875 Q 26.21875 48.1875 22.15625 43.53125 Q 18.109375 38.875 18.109375 30.90625 L 18.109375 0 L 9.078125 0 L 9.078125 54.6875 L 18.109375 54.6875 L 18.109375 46.1875 Q 21.1875 51.21875 25.484375 53.609375 Q 29.78125 56 35.6875 56 Q 41.65625 56 45.828125 52.96875 Q 50 49.953125 52 44.1875 z"/><path id="DejaVuSans-101" d="M 56.203125 29.59375 L 56.203125 25.203125 L 14.890625 25.203125 Q 15.484375 15.921875 20.484375 11.0625 Q 25.484375 6.203125 34.421875 6.203125 Q 39.59375 6.203125 44.453125 7.46875 Q 49.3125 8.734375 54.109375 11.28125 L 54.109375 2.78125 Q 49.265625 0.734375 44.1875 -0.34375 Q 39.109375 -1.421875 33.890625 -1.421875 Q 20.796875 -1.421875 13.15625 6.1875 Q 5.515625 13.8125 5.515625 26.8125 Q 5.515625 40.234375 12.765625 48.109375 Q 20.015625 56 32.328125 56 Q 43.359375 56 49.78125 48.890625 Q 56.203125 41.796875 56.203125 29.59375 z M 47.21875 32.234375 Q 47.125 39.59375 43.09375 43.984375 Q 39.0625 48.390625 32.421875 48.390625 Q 24.90625 48.390625 20.390625 44.140625 Q 15.875 39.890625 15.1875 32.171875 z"/></defs><g transform="translate(223.93375 268.914844)scale(0.15 -0.15)"><use xlink:href="#DejaVuSans-84"/><use x="61.037" xlink:href="#DejaVuSans-105"/><use x="88.82" xlink:href="#DejaVuSans-109"/><use x="186.232" xlink:href="#DejaVuSans-101"/></g></g></g><g id="matplotlib.axis_2"><g id="ytick_1"><g id="line2d_11"><path fill="none" stroke="#b0b0b0" stroke-linecap="square" stroke-width=".8" d="M 69.23 222.190909 L 415.8 222.190909" clip-path="url(#p4292a17877)"/></g><g id="line2d_12"><defs><path id="me85ad59363" stroke="#000" stroke-width=".8" d="M 0 0 L -3.5 0"/></defs><g><use x="69.23" y="222.191" stroke="#000" stroke-width=".8" xlink:href="#me85ad59363"/></g></g><g id="text_7"><defs><path id="DejaVuSans-Bold-46" d="M 10.203125 18.890625 L 27.78125 18.890625 L 27.78125 0 L 10.203125 0 z"/></defs><g transform="translate(35.658906 227.889737)scale(0.15 -0.15)"><use xlink:href="#DejaVuSans-Bold-48"/><use x="69.58" xlink:href="#DejaVuSans-Bold-46"/><use x="107.568" xlink:href="#DejaVuSans-Bold-48"/></g></g></g><g id="ytick_2"><g id="line2d_13"><path fill="none" stroke="#b0b0b0" stroke-linecap="square" stroke-width=".8" d="M 69.23 182.954241 L 415.8 182.954241" clip-path="url(#p4292a17877)"/></g><g id="line2d_14"><g><use x="69.23" y="182.954" stroke="#000" stroke-width=".8" xlink:href="#me85ad59363"/></g></g><g id="text_8"><g transform="translate(35.658906 188.65307)scale(0.15 -0.15)"><use xlink:href="#DejaVuSans-Bold-48"/><use x="69.58" xlink:href="#DejaVuSans-Bold-46"/><use x="107.568" xlink:href="#DejaVuSans-Bold-50"/></g></g></g><g id="ytick_3"><g id="line2d_15"><path fill="none" stroke="#b0b0b0" stroke-linecap="square" stroke-width=".8" d="M 69.23 143.717574 L 415.8 143.717574" clip-path="url(#p4292a17877)"/></g><g id="line2d_16"><g><use x="69.23" y="143.718" stroke="#000" stroke-width=".8" xlink:href="#me85ad59363"/></g></g><g id="text_9"><defs><path id="DejaVuSans-Bold-52" d="M 36.8125 57.421875 L 16.21875 26.90625 L 36.8125 26.90625 z M 33.6875 72.90625 L 54.59375 72.90625 L 54.59375 26.90625 L 64.984375 26.90625 L 64.984375 13.28125 L 54.59375 13.28125 L 54.59375 0 L 36.8125 0 L 36.8125 13.28125 L 4.5 13.28125 L 4.5 29.390625 z"/></defs><g transform="translate(35.658906 149.416402)scale(0.15 -0.15)"><use xlink:href="#DejaVuSans-Bold-48"/><use x="69.58" xlink:href="#DejaVuSans-Bold-46"/><use x="107.568" xlink:href="#DejaVuSans-Bold-52"/></g></g></g><g id="ytick_4"><g id="line2d_17"><path fill="none" stroke="#b0b0b0" stroke-linecap="square" stroke-width=".8" d="M 69.23 104.480906 L 415.8 104.480906" clip-path="url(#p4292a17877)"/></g><g id="line2d_18"><g><use x="69.23" y="104.481" stroke="#000" stroke-width=".8" xlink:href="#me85ad59363"/></g></g><g id="text_10"><defs><path id="DejaVuSans-Bold-54" d="M 36.1875 35.984375 Q 31.25 35.984375 28.78125 32.78125 Q 26.3125 29.59375 26.3125 23.1875 Q 26.3125 16.796875 28.78125 13.59375 Q 31.25 10.40625 36.1875 10.40625 Q 41.15625 10.40625 43.625 13.59375 Q 46.09375 16.796875 46.09375 23.1875 Q 46.09375 29.59375 43.625 32.78125 Q 41.15625 35.984375 36.1875 35.984375 z M 59.421875 71 L 59.421875 57.515625 Q 54.78125 59.71875 50.671875 60.765625 Q 46.578125 61.8125 42.671875 61.8125 Q 34.28125 61.8125 29.59375 57.140625 Q 24.90625 52.484375 24.125 43.3125 Q 27.34375 45.703125 31.09375 46.890625 Q 34.859375 48.09375 39.3125 48.09375 Q 50.484375 48.09375 57.34375 41.546875 Q 64.203125 35.015625 64.203125 24.421875 Q 64.203125 12.703125 56.53125 5.640625 Q 48.875 -1.421875 35.984375 -1.421875 Q 21.78125 -1.421875 13.984375 8.171875 Q 6.203125 17.78125 6.203125 35.40625 Q 6.203125 53.46875 15.3125 63.796875 Q 24.421875 74.125 40.28125 74.125 Q 45.3125 74.125 50.046875 73.34375 Q 54.78125 72.5625 59.421875 71 z"/></defs><g transform="translate(35.658906 110.179734)scale(0.15 -0.15)"><use xlink:href="#DejaVuSans-Bold-48"/><use x="69.58" xlink:href="#DejaVuSans-Bold-46"/><use x="107.568" xlink:href="#DejaVuSans-Bold-54"/></g></g></g><g id="ytick_5"><g id="line2d_19"><path fill="none" stroke="#b0b0b0" stroke-linecap="square" stroke-width=".8" d="M 69.23 65.244238 L 415.8 65.244238" clip-path="url(#p4292a17877)"/></g><g id="line2d_20"><g><use x="69.23" y="65.244" stroke="#000" stroke-width=".8" xlink:href="#me85ad59363"/></g></g><g id="text_11"><defs><path id="DejaVuSans-Bold-56" d="M 34.8125 32.625 Q 29.546875 32.625 26.703125 29.734375 Q 23.875 26.859375 23.875 21.484375 Q 23.875 16.109375 26.703125 13.25 Q 29.546875 10.40625 34.8125 10.40625 Q 40.046875 10.40625 42.828125 13.25 Q 45.609375 16.109375 45.609375 21.484375 Q 45.609375 26.90625 42.828125 29.765625 Q 40.046875 32.625 34.8125 32.625 z M 21.09375 38.8125 Q 14.453125 40.828125 11.078125 44.96875 Q 7.71875 49.125 7.71875 55.328125 Q 7.71875 64.546875 14.59375 69.375 Q 21.484375 74.21875 34.8125 74.21875 Q 48.046875 74.21875 54.921875 69.40625 Q 61.8125 64.59375 61.8125 55.328125 Q 61.8125 49.125 58.421875 44.96875 Q 55.03125 40.828125 48.390625 38.8125 Q 55.8125 36.765625 59.59375 32.15625 Q 63.375 27.546875 63.375 20.515625 Q 63.375 9.671875 56.171875 4.125 Q 48.96875 -1.421875 34.8125 -1.421875 Q 20.609375 -1.421875 13.359375 4.125 Q 6.109375 9.671875 6.109375 20.515625 Q 6.109375 27.546875 9.890625 32.15625 Q 13.671875 36.765625 21.09375 38.8125 z M 25.484375 53.421875 Q 25.484375 49.078125 27.90625 46.734375 Q 30.328125 44.390625 34.8125 44.390625 Q 39.203125 44.390625 41.59375 46.734375 Q 44 49.078125 44 53.421875 Q 44 57.765625 41.59375 60.078125 Q 39.203125 62.40625 34.8125 62.40625 Q 30.328125 62.40625 27.90625 60.0625 Q 25.484375 57.71875 25.484375 53.421875 z"/></defs><g transform="translate(35.658906 70.943066)scale(0.15 -0.15)"><use xlink:href="#DejaVuSans-Bold-48"/><use x="69.58" xlink:href="#DejaVuSans-Bold-46"/><use x="107.568" xlink:href="#DejaVuSans-Bold-56"/></g></g></g><g id="ytick_6"><g id="line2d_21"><path fill="none" stroke="#b0b0b0" stroke-linecap="square" stroke-width=".8" d="M 69.23 26.007571 L 415.8 26.007571" clip-path="url(#p4292a17877)"/></g><g id="line2d_22"><g><use x="69.23" y="26.008" stroke="#000" stroke-width=".8" xlink:href="#me85ad59363"/></g></g><g id="text_12"><g transform="translate(35.658906 31.706399)scale(0.15 -0.15)"><use xlink:href="#DejaVuSans-Bold-49"/><use x="69.58" xlink:href="#DejaVuSans-Bold-46"/><use x="107.568" xlink:href="#DejaVuSans-Bold-48"/></g></g></g><g id="text_13"><defs><path id="DejaVuSans-124" d="M 21 76.421875 L 21 -23.578125 L 12.703125 -23.578125 L 12.703125 76.421875 z"/><path id="DejaVuSans-120" d="M 54.890625 54.6875 L 35.109375 28.078125 L 55.90625 0 L 45.3125 0 L 29.390625 21.484375 L 13.484375 0 L 2.875 0 L 24.125 28.609375 L 4.6875 54.6875 L 15.28125 54.6875 L 29.78125 35.203125 L 44.28125 54.6875 z"/></defs><g transform="translate(28.122188 133.592187)rotate(-90)scale(0.15 -0.15)"><use xlink:href="#DejaVuSans-124"/><use x="33.691" xlink:href="#DejaVuSans-120"/><use x="92.871" xlink:href="#DejaVuSans-124"/></g></g></g><g id="line2d_23"><path fill="none" stroke="#1f77b4" stroke-linecap="square" stroke-width="2" d="M 84.983182 222.190909 L 96.798068 176.280176 L 103.099341 152.678892 L 108.612955 132.919151 L 113.338909 116.835966 L 117.277205 104.14539 L 121.2155 92.186255 L 125.153795 81.032663 L 128.304432 72.736401 L 131.455068 65.032926 L 134.605705 57.952795 L 137.756341 51.524088 L 140.119318 47.145494 L 142.482295 43.157495 L 144.845273 39.568989 L 147.20825 36.387985 L 149.571227 33.621579 L 151.934205 31.275946 L 154.297182 29.356318 L 155.8725 28.315391 L 157.447818 27.466756 L 159.023136 26.811254 L 160.598455 26.349536 L 162.173773 26.08206 L 163.749091 26.009091 L 165.324409 26.130701 L 166.899727 26.44677 L 168.475045 26.956984 L 170.050364 27.660838 L 171.625682 28.557632 L 173.201 29.646479 L 174.776318 30.926297 L 177.139295 33.201267 L 179.502273 35.897947 L 181.86525 39.01032 L 184.228227 42.531441 L 186.591205 46.453451 L 188.954182 50.767601 L 191.317159 55.464264 L 194.467795 62.303265 L 197.618432 69.776437 L 200.769068 77.854136 L 203.919705 86.504325 L 207.858 98.06965 L 211.796295 110.404062 L 215.734591 123.431135 L 220.460545 139.864008 L 225.974159 159.95323 L 232.275432 183.822755 L 241.727341 220.646243 L 242.515 220.646243 L 253.542227 177.783373 L 259.8435 154.1255 L 265.357114 134.297397 L 270.083068 118.142262 L 274.021364 105.382797 L 277.959659 93.347104 L 281.897955 82.109762 L 285.048591 73.741668 L 288.199227 65.962375 L 291.349864 58.802738 L 294.5005 52.291154 L 296.863477 47.848388 L 299.226455 43.794648 L 301.589432 40.13898 L 303.952409 36.889541 L 306.315386 34.053582 L 308.678364 31.637431 L 311.041341 29.646479 L 312.616659 28.557632 L 314.191977 27.660838 L 315.767295 26.956984 L 317.342614 26.44677 L 318.917932 26.130701 L 320.49325 26.009091 L 322.068568 26.08206 L 323.643886 26.349536 L 325.219205 26.811254 L 326.794523 27.466756 L 328.369841 28.315391 L 329.945159 29.356318 L 331.520477 30.588505 L 333.883455 32.792671 L 336.246432 35.419459 L 338.609409 38.463007 L 340.972386 41.916524 L 343.335364 45.772304 L 345.698341 50.021742 L 348.061318 54.655357 L 351.211955 61.413128 L 354.362591 68.808599 L 357.513227 76.812436 L 360.663864 85.392895 L 364.602159 96.877287 L 368.540455 109.138155 L 372.47875 122.099527 L 377.204705 138.464483 L 382.718318 158.490283 L 389.019591 182.309107 L 398.4715 219.101673 L 399.259159 222.190909 L 399.259159 222.190909" clip-path="url(#p4292a17877)"/></g><g id="line2d_24"><path fill="none" stroke="#ff7f0e" stroke-linecap="square" stroke-width="2" d="M 84.983182 222.190909 L 100.736364 222.190909 L 112.55125 180.871249 L 118.852523 159.630094 L 124.366136 141.846327 L 129.092091 127.37146 L 133.030386 115.949942 L 136.968682 105.186721 L 140.906977 95.148488 L 144.057614 87.681851 L 147.20825 80.748725 L 150.358886 74.376606 L 153.509523 68.59077 L 155.8725 64.650035 L 158.235477 61.060836 L 160.598455 57.831181 L 162.961432 54.968277 L 165.324409 52.478512 L 167.687386 50.367442 L 170.050364 48.639777 L 172.413341 47.299373 L 173.988659 46.622427 L 175.563977 46.119616 L 177.139295 45.791438 L 178.714614 45.638219 L 180.289932 45.66011 L 181.86525 45.85709 L 183.440568 46.228963 L 185.015886 46.775362 L 186.591205 47.495743 L 188.166523 48.389392 L 190.5295 50.052758 L 192.892477 52.100231 L 195.255455 54.527244 L 198.406091 61.260936 L 201.556727 68.58037 L 204.707364 76.448605 L 208.645659 86.991793 L 212.583955 98.233529 L 217.309909 112.487093 L 223.611182 132.368862 L 231.487773 157.263462 L 234.638409 166.515097 L 237.001386 172.789641 L 238.576705 176.486695 L 240.152023 179.65531 L 241.727341 182.155918 L 242.515 183.110864 L 243.302659 183.846888 L 244.090318 184.350468 L 244.877977 184.61175 L 245.665636 184.625418 L 246.453295 184.391191 L 247.240955 183.913847 L 248.028614 183.202778 L 248.816273 182.271152 L 250.391591 179.811465 L 251.966909 176.675842 L 253.542227 173.004467 L 255.905205 166.757246 L 259.055841 157.527042 L 263.781795 142.724124 L 274.021364 110.32812 L 278.747318 96.185965 L 282.685614 85.061016 L 286.623909 74.652417 L 289.774545 66.902873 L 292.925182 60.154465 L 296.075818 53.938327 L 299.226455 48.29094 L 301.589432 44.447891 L 303.952409 40.954462 L 306.315386 37.821117 L 308.678364 35.057074 L 311.041341 32.670339 L 313.404318 30.667743 L 315.767295 29.05496 L 317.342614 28.198619 L 318.917932 27.518629 L 320.49325 27.015833 L 322.068568 26.690852 L 323.643886 26.544087 L 325.219205 26.575719 L 326.794523 26.785708 L 328.369841 27.173797 L 329.945159 27.739506 L 331.520477 28.482136 L 333.095795 29.400765 L 335.458773 31.106147 L 337.82175 33.200104 L 340.184727 35.676691 L 342.547705 38.528801 L 344.910682 41.748144 L 347.273659 45.325212 L 349.636636 49.249238 L 352.787273 54.999904 L 355.937909 61.313214 L 359.088545 68.151788 L 362.239182 75.472743 L 366.177477 85.226406 L 370.903432 97.660706 L 377.204705 115.054375 L 388.231932 145.667024 L 390.594909 151.745279 L 392.957886 157.251244 L 394.533205 160.500464 L 396.108523 163.329994 L 397.683841 165.664792 L 399.259159 167.431769 L 400.046818 168.081882 L 400.046818 168.081882" clip-path="url(#p4292a17877)"/></g><g id="patch_3"><path fill="none" stroke="#000" stroke-linecap="square" stroke-linejoin="miter" stroke-width="2" d="M 69.23 232 L 69.23 16.2"/></g><g id="patch_4"><path fill="none" stroke="#000" stroke-linecap="square" stroke-linejoin="miter" stroke-width="2" d="M 415.8 232 L 415.8 16.2"/></g><g id="patch_5"><path fill="none" stroke="#000" stroke-linecap="square" stroke-linejoin="miter" stroke-width="2" d="M 69.23 232 L 415.8 232"/></g><g id="patch_6"><path fill="none" stroke="#000" stroke-linecap="square" stroke-linejoin="miter" stroke-width="2" d="M 69.23 16.2 L 415.8 16.2"/></g><g id="legend_1"><g id="patch_7"><path fill="#fff" stroke="#ccc" stroke-linejoin="miter" d="M 79.73 224.5 L 186.914375 224.5 Q 189.914375 224.5 189.914375 221.5 L 189.914375 178.965625 Q 189.914375 175.965625 186.914375 175.965625 L 79.73 175.965625 Q 76.73 175.965625 76.73 178.965625 L 76.73 221.5 Q 76.73 224.5 79.73 224.5 z" opacity=".8"/></g><g id="line2d_25"><path fill="none" stroke="#1f77b4" stroke-linecap="square" stroke-width="2" d="M 82.73 188.113281 L 112.73 188.113281"/></g><g id="text_14"><defs><path id="DejaVuSans-Bold-73" d="M 9.1875 72.90625 L 27.984375 72.90625 L 27.984375 0 L 9.1875 0 z"/><path id="DejaVuSans-Bold-110" d="M 63.375 33.296875 L 63.375 0 L 45.796875 0 L 45.796875 5.421875 L 45.796875 25.484375 Q 45.796875 32.5625 45.484375 35.25 Q 45.171875 37.9375 44.390625 39.203125 Q 43.359375 40.921875 41.59375 41.875 Q 39.84375 42.828125 37.59375 42.828125 Q 32.125 42.828125 29 38.59375 Q 25.875 34.375 25.875 26.90625 L 25.875 0 L 8.40625 0 L 8.40625 54.6875 L 25.875 54.6875 L 25.875 46.6875 Q 29.828125 51.46875 34.265625 53.734375 Q 38.71875 56 44.09375 56 Q 53.5625 56 58.46875 50.1875 Q 63.375 44.390625 63.375 33.296875 z"/><path id="DejaVuSans-Bold-112" d="M 25.875 7.90625 L 25.875 -20.796875 L 8.40625 -20.796875 L 8.40625 54.6875 L 25.875 54.6875 L 25.875 46.6875 Q 29.5 51.46875 33.890625 53.734375 Q 38.28125 56 44 56 Q 54.109375 56 60.59375 47.96875 Q 67.09375 39.9375 67.09375 27.296875 Q 67.09375 14.65625 60.59375 6.609375 Q 54.109375 -1.421875 44 -1.421875 Q 38.28125 -1.421875 33.890625 0.84375 Q 29.5 3.125 25.875 7.90625 z M 37.5 43.3125 Q 31.890625 43.3125 28.875 39.1875 Q 25.875 35.0625 25.875 27.296875 Q 25.875 19.53125 28.875 15.40625 Q 31.890625 11.28125 37.5 11.28125 Q 43.109375 11.28125 46.0625 15.375 Q 49.03125 19.484375 49.03125 27.296875 Q 49.03125 35.109375 46.0625 39.203125 Q 43.109375 43.3125 37.5 43.3125 z"/><path id="DejaVuSans-Bold-117" d="M 7.8125 21.296875 L 7.8125 54.6875 L 25.390625 54.6875 L 25.390625 49.21875 Q 25.390625 44.78125 25.34375 38.0625 Q 25.296875 31.34375 25.296875 29.109375 Q 25.296875 22.515625 25.640625 19.609375 Q 25.984375 16.703125 26.8125 15.375 Q 27.875 13.671875 29.609375 12.734375 Q 31.34375 11.8125 33.59375 11.8125 Q 39.0625 11.8125 42.1875 16.015625 Q 45.3125 20.21875 45.3125 27.6875 L 45.3125 54.6875 L 62.796875 54.6875 L 62.796875 0 L 45.3125 0 L 45.3125 7.90625 Q 41.359375 3.125 36.9375 0.84375 Q 32.515625 -1.421875 27.203125 -1.421875 Q 17.71875 -1.421875 12.765625 4.390625 Q 7.8125 10.203125 7.8125 21.296875 z"/><path id="DejaVuSans-Bold-116" d="M 27.484375 70.21875 L 27.484375 54.6875 L 45.515625 54.6875 L 45.515625 42.1875 L 27.484375 42.1875 L 27.484375 19 Q 27.484375 15.1875 29 13.84375 Q 30.515625 12.5 35.015625 12.5 L 44 12.5 L 44 0 L 29 0 Q 18.65625 0 14.328125 4.3125 Q 10.015625 8.640625 10.015625 19 L 10.015625 42.1875 L 1.3125 42.1875 L 1.3125 54.6875 L 10.015625 54.6875 L 10.015625 70.21875 z"/></defs><g transform="translate(124.73 193.363281)scale(0.15 -0.15)"><use xlink:href="#DejaVuSans-Bold-73"/><use x="37.207" xlink:href="#DejaVuSans-Bold-110"/><use x="108.398" xlink:href="#DejaVuSans-Bold-112"/><use x="179.98" xlink:href="#DejaVuSans-Bold-117"/><use x="251.172" xlink:href="#DejaVuSans-Bold-116"/></g></g><g id="line2d_27"><path fill="none" stroke="#ff7f0e" stroke-linecap="square" stroke-width="2" d="M 82.73 210.130469 L 112.73 210.130469"/></g><g id="text_15"><defs><path id="DejaVuSans-Bold-79" d="M 42.484375 60.59375 Q 33.890625 60.59375 29.15625 54.25 Q 24.421875 47.90625 24.421875 36.375 Q 24.421875 24.90625 29.15625 18.546875 Q 33.890625 12.203125 42.484375 12.203125 Q 51.125 12.203125 55.859375 18.546875 Q 60.59375 24.90625 60.59375 36.375 Q 60.59375 47.90625 55.859375 54.25 Q 51.125 60.59375 42.484375 60.59375 z M 42.484375 74.21875 Q 60.0625 74.21875 70.015625 64.15625 Q 79.984375 54.109375 79.984375 36.375 Q 79.984375 18.703125 70.015625 8.640625 Q 60.0625 -1.421875 42.484375 -1.421875 Q 24.953125 -1.421875 14.96875 8.640625 Q 4.984375 18.703125 4.984375 36.375 Q 4.984375 54.109375 14.96875 64.15625 Q 24.953125 74.21875 42.484375 74.21875 z"/></defs><g transform="translate(124.73 215.380469)scale(0.15 -0.15)"><use xlink:href="#DejaVuSans-Bold-79"/><use x="85.01" xlink:href="#DejaVuSans-Bold-117"/><use x="156.201" xlink:href="#DejaVuSans-Bold-116"/><use x="204.004" xlink:href="#DejaVuSans-Bold-112"/><use x="275.586" xlink:href="#DejaVuSans-Bold-117"/><use x="346.777" xlink:href="#DejaVuSans-Bold-116"/></g></g></g></g></g><defs><clipPath id="p4292a17877"><rect width="346.57" height="215.8" x="69.23" y="16.2"/></clipPath></defs></svg>