<?xml version="1.0" encoding="UTF-8" standalone="no"?>
<!DOCTYPE svg PUBLIC "-//W3C//DTD SVG 1.1//EN"
 "http://www.w3.org/Graphics/SVG/1.1/DTD/svg11.dtd">
<!-- Generated by graphviz version 2.38.0 (20140413.2041)
 -->
<!-- Title: structs Pages: 1 -->
<svg width="757pt" height="309pt"
 viewBox="0.00 0.00 756.50 309.00" xmlns="http://www.w3.org/2000/svg" xmlns:xlink="http://www.w3.org/1999/xlink">
<g id="graph0" class="graph" transform="scale(1 1) rotate(0) translate(4 305)">
<title>structs</title>
<polygon fill="white" stroke="none" points="-4,4 -4,-305 752.5,-305 752.5,4 -4,4"/>
<!-- devicesplitteri0 -->
<g id="node1" class="node"><title>devicesplitteri0</title>
<polygon fill="none" stroke="black" points="222.5,-264.5 222.5,-300.5 322.5,-300.5 322.5,-264.5 222.5,-264.5"/>
<text text-anchor="middle" x="272.5" y="-278.8" font-family="Times New Roman,serif" font-size="14.00">devicesplitteri0</text>
</g>
<!-- devicesplittero0 -->
<g id="node2" class="node"><title>devicesplittero0</title>
<polygon fill="none" stroke="black" points="6.5,-176.5 6.5,-212.5 110.5,-212.5 110.5,-176.5 6.5,-176.5"/>
<text text-anchor="middle" x="58.5" y="-190.8" font-family="Times New Roman,serif" font-size="14.00">devicesplittero0</text>
</g>
<!-- devicesplitteri0&#45;&gt;devicesplittero0 -->
<g id="edge1" class="edge"><title>devicesplitteri0&#45;&gt;devicesplittero0</title>
<path fill="none" stroke="black" d="M222.445,-281.531C158.959,-280.381 54.7916,-274.115 30.5,-246 23.9439,-238.412 26.7865,-229.043 32.6838,-220.444"/>
<polygon fill="black" stroke="black" points="35.5201,-222.503 39.0667,-212.519 30.0683,-218.112 35.5201,-222.503"/>
<text text-anchor="middle" x="167.5" y="-234.8" font-family="Times New Roman,serif" font-size="14.00">a1.0 * split_{00}**1, p0.0 + split_{phi00}*1, d0</text>
</g>
<!-- devicesplittero1 -->
<g id="node3" class="node"><title>devicesplittero1</title>
<polygon fill="none" stroke="black" points="441.5,-176.5 441.5,-212.5 545.5,-212.5 545.5,-176.5 441.5,-176.5"/>
<text text-anchor="middle" x="493.5" y="-190.8" font-family="Times New Roman,serif" font-size="14.00">devicesplittero1</text>
</g>
<!-- devicesplitteri0&#45;&gt;devicesplittero1 -->
<g id="edge2" class="edge"><title>devicesplitteri0&#45;&gt;devicesplittero1</title>
<path fill="none" stroke="black" d="M316.427,-264.406C352.053,-250.543 402.398,-230.952 440.304,-216.201"/>
<polygon fill="black" stroke="black" points="441.606,-219.45 449.656,-212.561 439.068,-212.926 441.606,-219.45"/>
<text text-anchor="middle" x="532.5" y="-234.8" font-family="Times New Roman,serif" font-size="14.00">a1.0 * split_{01}**1, p0.0 + split_{phi01}*1, d0</text>
</g>
<!-- devicecombineri0 -->
<g id="node4" class="node"><title>devicecombineri0</title>
<polygon fill="none" stroke="black" points="0,-88.5 0,-124.5 115,-124.5 115,-88.5 0,-88.5"/>
<text text-anchor="middle" x="57.5" y="-102.8" font-family="Times New Roman,serif" font-size="14.00">devicecombineri0</text>
</g>
<!-- devicesplittero0&#45;&gt;devicecombineri0 -->
<g id="edge5" class="edge"><title>devicesplittero0&#45;&gt;devicecombineri0</title>
<path fill="none" stroke="black" d="M58.2976,-176.097C58.1598,-164.246 57.9746,-148.317 57.8173,-134.792"/>
<polygon fill="black" stroke="black" points="61.3148,-134.543 57.6987,-124.584 54.3153,-134.624 61.3148,-134.543"/>
<text text-anchor="middle" x="185" y="-146.8" font-family="Times New Roman,serif" font-size="14.00">a1.0 * arm0amp**1, p0.0 + arm0phase*1, d0</text>
</g>
<!-- devicecombineri1 -->
<g id="node6" class="node"><title>devicecombineri1</title>
<polygon fill="none" stroke="black" points="440,-88.5 440,-124.5 555,-124.5 555,-88.5 440,-88.5"/>
<text text-anchor="middle" x="497.5" y="-102.8" font-family="Times New Roman,serif" font-size="14.00">devicecombineri1</text>
</g>
<!-- devicesplittero1&#45;&gt;devicecombineri1 -->
<g id="edge6" class="edge"><title>devicesplittero1&#45;&gt;devicecombineri1</title>
<path fill="none" stroke="black" d="M494.309,-176.097C494.861,-164.246 495.602,-148.317 496.231,-134.792"/>
<polygon fill="black" stroke="black" points="499.737,-134.736 496.705,-124.584 492.744,-134.411 499.737,-134.736"/>
<text text-anchor="middle" x="622" y="-146.8" font-family="Times New Roman,serif" font-size="14.00">a1.0 * arm1amp**1, p0.0 + arm1phase*1, d0</text>
</g>
<!-- devicecombinero0 -->
<g id="node5" class="node"><title>devicecombinero0</title>
<polygon fill="none" stroke="black" points="218,-0.5 218,-36.5 337,-36.5 337,-0.5 218,-0.5"/>
<text text-anchor="middle" x="277.5" y="-14.8" font-family="Times New Roman,serif" font-size="14.00">devicecombinero0</text>
</g>
<!-- devicecombineri0&#45;&gt;devicecombinero0 -->
<g id="edge3" class="edge"><title>devicecombineri0&#45;&gt;devicecombinero0</title>
<path fill="none" stroke="black" d="M35.99,-88.1798C25.8616,-77.962 17.7305,-65.0971 26.5,-55 49.5445,-28.4669 141.523,-21.2229 207.458,-19.5275"/>
<polygon fill="black" stroke="black" points="207.881,-23.0191 217.802,-19.3009 207.728,-16.0208 207.881,-23.0191"/>
<text text-anchor="middle" x="172.5" y="-58.8" font-family="Times New Roman,serif" font-size="14.00">a1.0 * comb_{00}**1, p0.0 + comb_{phi00}*1, d0</text>
</g>
<!-- devicecombineri1&#45;&gt;devicecombinero0 -->
<g id="edge4" class="edge"><title>devicecombineri1&#45;&gt;devicecombinero0</title>
<path fill="none" stroke="black" d="M453.772,-88.4063C418.458,-74.6016 368.615,-55.1176 330.936,-40.3886"/>
<polygon fill="black" stroke="black" points="331.733,-36.9424 321.145,-36.5613 329.185,-43.462 331.733,-36.9424"/>
<text text-anchor="middle" x="546.5" y="-58.8" font-family="Times New Roman,serif" font-size="14.00">a1.0 * comb_{10}**1, p0.0 + comb_{phi10}*1, d0</text>
</g>
</g>
</svg>
