<svg xmlns="http://www.w3.org/2000/svg" xmlns:xlink="http://www.w3.org/1999/xlink" width="508" height="133pt" viewBox="0 0 381.38 133"><g id="graph0" class="graph" transform="scale(1 1) rotate(0) translate(4 129)"><title>structs</title><polygon fill="#fff" stroke="none" points="-4 4 -4 -129 377.378 -129 377.378 4 -4 4"/><g id="node1" class="node"><title>Combiner0</title><polygon fill="none" stroke="#000" points="107.878 -.5 107.878 -36.5 186.878 -36.5 186.878 -.5 107.878 -.5"/><text x="147.378" y="-14.8" font-family="Times New Roman,serif" font-size="14" text-anchor="middle">Combiner0</text></g><g id="node2" class="node"><title>Splitter0</title><polygon fill="none" stroke="#000" points="115.878 -88.5 115.878 -124.5 178.878 -124.5 178.878 -88.5 115.878 -88.5"/><text x="147.378" y="-102.8" font-family="Times New Roman,serif" font-size="14" text-anchor="middle">Splitter0</text></g><g id="edge1" class="edge"><title>Splitter0-&gt;Combiner0</title><path fill="none" stroke="#000" d="M115.783,-102.03C78.443,-97.2028 19.6852,-87.0726 6.3782,-70 -20.166,-35.9443 47.0556,-24.8214 97.566,-21.2094"/><polygon fill="#000" stroke="#000" points="97.973 -24.691 107.731 -20.565 97.53 -17.705 97.973 -24.691"/><text x="95.878" y="-58.8" font-family="Times New Roman,serif" font-size="14" text-anchor="middle">a0.5, p15.707963267948966, d2</text></g><g id="edge2" class="edge"><title>Splitter0-&gt;Combiner0</title><path fill="none" stroke="#000" d="M179.02,-90.9328C193.901,-81.8687 206.901,-69.2437 199.378,-55 197.075,-50.6383 193.968,-46.7113 190.412,-43.2012"/><polygon fill="#000" stroke="#000" points="192.488 -40.373 182.596 -36.576 187.961 -45.712 192.488 -40.373"/><text x="287.378" y="-58.8" font-family="Times New Roman,serif" font-size="14" text-anchor="middle">a0.7, p18.84955592153876, d3</text></g></g></svg>