<?xml version="1.0" encoding="UTF-8" standalone="no"?>
<!DOCTYPE svg PUBLIC "-//W3C//DTD SVG 1.1//EN"
 "http://www.w3.org/Graphics/SVG/1.1/DTD/svg11.dtd">
<!-- Generated by graphviz version 2.38.0 (20140413.2041)
 -->
<!-- Title: structs Pages: 1 -->
<svg width="381pt" height="133pt"
 viewBox="0.00 0.00 381.38 133.00" xmlns="http://www.w3.org/2000/svg" xmlns:xlink="http://www.w3.org/1999/xlink">
<g id="graph0" class="graph" transform="scale(1 1) rotate(0) translate(4 129)">
<title>structs</title>
<polygon fill="white" stroke="none" points="-4,4 -4,-129 377.378,-129 377.378,4 -4,4"/>
<!-- Combiner0 -->
<g id="node1" class="node"><title>Combiner0</title>
<polygon fill="none" stroke="black" points="107.878,-0.5 107.878,-36.5 186.878,-36.5 186.878,-0.5 107.878,-0.5"/>
<text text-anchor="middle" x="147.378" y="-14.8" font-family="Times New Roman,serif" font-size="14.00">Combiner0</text>
</g>
<!-- Splitter0 -->
<g id="node2" class="node"><title>Splitter0</title>
<polygon fill="none" stroke="black" points="115.878,-88.5 115.878,-124.5 178.878,-124.5 178.878,-88.5 115.878,-88.5"/>
<text text-anchor="middle" x="147.378" y="-102.8" font-family="Times New Roman,serif" font-size="14.00">Splitter0</text>
</g>
<!-- Splitter0&#45;&gt;Combiner0 -->
<g id="edge1" class="edge"><title>Splitter0&#45;&gt;Combiner0</title>
<path fill="none" stroke="black" d="M115.783,-102.03C78.443,-97.2028 19.6852,-87.0726 6.3782,-70 -20.166,-35.9443 47.0556,-24.8214 97.566,-21.2094"/>
<polygon fill="black" stroke="black" points="97.973,-24.6907 107.731,-20.5647 97.53,-17.7047 97.973,-24.6907"/>
<text text-anchor="middle" x="95.8782" y="-58.8" font-family="Times New Roman,serif" font-size="14.00">a0.5, p15.707963267948966, d2</text>
</g>
<!-- Splitter0&#45;&gt;Combiner0 -->
<g id="edge2" class="edge"><title>Splitter0&#45;&gt;Combiner0</title>
<path fill="none" stroke="black" d="M179.02,-90.9328C193.901,-81.8687 206.901,-69.2437 199.378,-55 197.075,-50.6383 193.968,-46.7113 190.412,-43.2012"/>
<polygon fill="black" stroke="black" points="192.488,-40.3726 182.596,-36.5761 187.961,-45.7122 192.488,-40.3726"/>
<text text-anchor="middle" x="287.378" y="-58.8" font-family="Times New Roman,serif" font-size="14.00">a0.7, p18.84955592153876, d3</text>
</g>
</g>
</svg>
