<?xml version="1.0" encoding="UTF-8" standalone="no"?>
<!DOCTYPE svg PUBLIC "-//W3C//DTD SVG 1.1//EN"
 "http://www.w3.org/Graphics/SVG/1.1/DTD/svg11.dtd">
<!-- Generated by graphviz version 2.38.0 (20140413.2041)
 -->
<!-- Title: structs Pages: 1 -->
<svg width="382pt" height="221pt"
 viewBox="0.00 0.00 381.84 221.00" xmlns="http://www.w3.org/2000/svg" xmlns:xlink="http://www.w3.org/1999/xlink">
<g id="graph0" class="graph" transform="scale(1 1) rotate(0) translate(4 217)">
<title>structs</title>
<polygon fill="white" stroke="none" points="-4,4 -4,-217 377.844,-217 377.844,4 -4,4"/>
<!-- a -->
<g id="node1" class="node"><title>a</title>
<polygon fill="none" stroke="black" points="199.844,-176.5 199.844,-212.5 253.844,-212.5 253.844,-176.5 199.844,-176.5"/>
<text text-anchor="middle" x="226.844" y="-190.8" font-family="Times New Roman,serif" font-size="14.00">a</text>
</g>
<!-- b -->
<g id="node2" class="node"><title>b</title>
<polygon fill="none" stroke="black" points="4.84381,-88.5 4.84381,-124.5 58.8438,-124.5 58.8438,-88.5 4.84381,-88.5"/>
<text text-anchor="middle" x="31.8438" y="-102.8" font-family="Times New Roman,serif" font-size="14.00">b</text>
</g>
<!-- a&#45;&gt;b -->
<g id="edge2" class="edge"><title>a&#45;&gt;b</title>
<path fill="none" stroke="black" d="M199.769,-191.846C168.467,-188.893 116.323,-180.698 77.8438,-158 67.0993,-151.662 57.4182,-142.007 49.7407,-132.83"/>
<polygon fill="black" stroke="black" points="52.4827,-130.655 43.5331,-124.984 46.9932,-134.998 52.4827,-130.655"/>
<text text-anchor="middle" x="157.844" y="-146.8" font-family="Times New Roman,serif" font-size="14.00">a0.95, p0.0 + ph_ab*1, d0.2</text>
</g>
<!-- c -->
<g id="node3" class="node"><title>c</title>
<polygon fill="none" stroke="black" points="162.844,-0.5 162.844,-36.5 216.844,-36.5 216.844,-0.5 162.844,-0.5"/>
<text text-anchor="middle" x="189.844" y="-14.8" font-family="Times New Roman,serif" font-size="14.00">c</text>
</g>
<!-- b&#45;&gt;c -->
<g id="edge3" class="edge"><title>b&#45;&gt;c</title>
<path fill="none" stroke="black" d="M12.1351,-88.1397C2.88747,-77.9076 -4.46278,-65.0419 3.84381,-55 22.3404,-32.6393 103.786,-24.2364 152.56,-21.1744"/>
<polygon fill="black" stroke="black" points="152.951,-24.6576 162.731,-20.5832 152.544,-17.6694 152.951,-24.6576"/>
<text text-anchor="middle" x="120.844" y="-58.8" font-family="Times New Roman,serif" font-size="14.00">a1.0 * amp_bc**1, p0.0 + ph_bc*1, d0.1</text>
</g>
<!-- c&#45;&gt;a -->
<g id="edge1" class="edge"><title>c&#45;&gt;a</title>
<path fill="none" stroke="black" d="M217.092,-23.7762C235.408,-28.221 258.247,-37.1662 269.844,-55 294.8,-93.3771 289.356,-116.589 269.844,-158 267.737,-162.472 264.76,-166.572 261.343,-170.271"/>
<polygon fill="black" stroke="black" points="258.756,-167.899 253.852,-177.291 263.542,-173.007 258.756,-167.899"/>
<text text-anchor="middle" x="329.844" y="-102.8" font-family="Times New Roman,serif" font-size="14.00">a0.6, p0.5, d0.1</text>
</g>
</g>
</svg>
