<?xml version="1.0" encoding="utf-8" standalone="no"?>
<!DOCTYPE svg PUBLIC "-//W3C//DTD SVG 1.1//EN"
  "http://www.w3.org/Graphics/SVG/1.1/DTD/svg11.dtd">
<!-- Created with matplotlib (https://matplotlib.org/) -->
<svg height="345.6pt" version="1.1" viewBox="0 0 460.8 345.6" width="460.8pt" xmlns="http://www.w3.org/2000/svg" xmlns:xlink="http://www.w3.org/1999/xlink">
 <defs>
  <style type="text/css">
*{stroke-linecap:butt;stroke-linejoin:round;}
  </style>
 </defs>
 <g id="figure_1">
  <g id="patch_1">
   <path d="M 0 345.6 
L 460.8 345.6 
L 460.8 0 
L 0 0 
z
" style="fill:#ffffff;"/>
  </g>
  <g id="axes_1">
   <g id="patch_2">
    <path d="M 57.6 307.584 
L 414.72 307.584 
L 414.72 41.472 
L 57.6 41.472 
z
" style="fill:#ffffff;"/>
   </g>
   <g id="matplotlib.axis_1">
    <g id="xtick_1">
     <g id="line2d_1">
      <defs>
       <path d="M 0 0 
L 0 3.5 
" id="m7b670f613a" style="stroke:#000000;stroke-width:0.8;"/>
      </defs>
      <g>
       <use style="stroke:#000000;stroke-width:0.8;" x="73.832727" xlink:href="#m7b670f613a" y="307.584"/>
      </g>
     </g>
     <g id="text_1">
      <!-- 0 -->
      <defs>
       <path d="M 31.78125 66.40625 
Q 24.171875 66.40625 20.328125 58.90625 
Q 16.5 51.421875 16.5 36.375 
Q 16.5 21.390625 20.328125 13.890625 
Q 24.171875 6.390625 31.78125 6.390625 
Q 39.453125 6.390625 43.28125 13.890625 
Q 47.125 21.390625 47.125 36.375 
Q 47.125 51.421875 43.28125 58.90625 
Q 39.453125 66.40625 31.78125 66.40625 
z
M 31.78125 74.21875 
Q 44.046875 74.21875 50.515625 64.515625 
Q 56.984375 54.828125 56.984375 36.375 
Q 56.984375 17.96875 50.515625 8.265625 
Q 44.046875 -1.421875 31.78125 -1.421875 
Q 19.53125 -1.421875 13.0625 8.265625 
Q 6.59375 17.96875 6.59375 36.375 
Q 6.59375 54.828125 13.0625 64.515625 
Q 19.53125 74.21875 31.78125 74.21875 
z
" id="DejaVuSans-48"/>
      </defs>
      <g transform="translate(70.651477 322.182437)scale(0.1 -0.1)">
       <use xlink:href="#DejaVuSans-48"/>
      </g>
     </g>
    </g>
    <g id="xtick_2">
     <g id="line2d_2">
      <g>
       <use style="stroke:#000000;stroke-width:0.8;" x="138.763636" xlink:href="#m7b670f613a" y="307.584"/>
      </g>
     </g>
     <g id="text_2">
      <!-- 2 -->
      <defs>
       <path d="M 19.1875 8.296875 
L 53.609375 8.296875 
L 53.609375 0 
L 7.328125 0 
L 7.328125 8.296875 
Q 12.9375 14.109375 22.625 23.890625 
Q 32.328125 33.6875 34.8125 36.53125 
Q 39.546875 41.84375 41.421875 45.53125 
Q 43.3125 49.21875 43.3125 52.78125 
Q 43.3125 58.59375 39.234375 62.25 
Q 35.15625 65.921875 28.609375 65.921875 
Q 23.96875 65.921875 18.8125 64.3125 
Q 13.671875 62.703125 7.8125 59.421875 
L 7.8125 69.390625 
Q 13.765625 71.78125 18.9375 73 
Q 24.125 74.21875 28.421875 74.21875 
Q 39.75 74.21875 46.484375 68.546875 
Q 53.21875 62.890625 53.21875 53.421875 
Q 53.21875 48.921875 51.53125 44.890625 
Q 49.859375 40.875 45.40625 35.40625 
Q 44.1875 33.984375 37.640625 27.21875 
Q 31.109375 20.453125 19.1875 8.296875 
z
" id="DejaVuSans-50"/>
      </defs>
      <g transform="translate(135.582386 322.182437)scale(0.1 -0.1)">
       <use xlink:href="#DejaVuSans-50"/>
      </g>
     </g>
    </g>
    <g id="xtick_3">
     <g id="line2d_3">
      <g>
       <use style="stroke:#000000;stroke-width:0.8;" x="203.694545" xlink:href="#m7b670f613a" y="307.584"/>
      </g>
     </g>
     <g id="text_3">
      <!-- 4 -->
      <defs>
       <path d="M 37.796875 64.3125 
L 12.890625 25.390625 
L 37.796875 25.390625 
z
M 35.203125 72.90625 
L 47.609375 72.90625 
L 47.609375 25.390625 
L 58.015625 25.390625 
L 58.015625 17.1875 
L 47.609375 17.1875 
L 47.609375 0 
L 37.796875 0 
L 37.796875 17.1875 
L 4.890625 17.1875 
L 4.890625 26.703125 
z
" id="DejaVuSans-52"/>
      </defs>
      <g transform="translate(200.513295 322.182437)scale(0.1 -0.1)">
       <use xlink:href="#DejaVuSans-52"/>
      </g>
     </g>
    </g>
    <g id="xtick_4">
     <g id="line2d_4">
      <g>
       <use style="stroke:#000000;stroke-width:0.8;" x="268.625455" xlink:href="#m7b670f613a" y="307.584"/>
      </g>
     </g>
     <g id="text_4">
      <!-- 6 -->
      <defs>
       <path d="M 33.015625 40.375 
Q 26.375 40.375 22.484375 35.828125 
Q 18.609375 31.296875 18.609375 23.390625 
Q 18.609375 15.53125 22.484375 10.953125 
Q 26.375 6.390625 33.015625 6.390625 
Q 39.65625 6.390625 43.53125 10.953125 
Q 47.40625 15.53125 47.40625 23.390625 
Q 47.40625 31.296875 43.53125 35.828125 
Q 39.65625 40.375 33.015625 40.375 
z
M 52.59375 71.296875 
L 52.59375 62.3125 
Q 48.875 64.0625 45.09375 64.984375 
Q 41.3125 65.921875 37.59375 65.921875 
Q 27.828125 65.921875 22.671875 59.328125 
Q 17.53125 52.734375 16.796875 39.40625 
Q 19.671875 43.65625 24.015625 45.921875 
Q 28.375 48.1875 33.59375 48.1875 
Q 44.578125 48.1875 50.953125 41.515625 
Q 57.328125 34.859375 57.328125 23.390625 
Q 57.328125 12.15625 50.6875 5.359375 
Q 44.046875 -1.421875 33.015625 -1.421875 
Q 20.359375 -1.421875 13.671875 8.265625 
Q 6.984375 17.96875 6.984375 36.375 
Q 6.984375 53.65625 15.1875 63.9375 
Q 23.390625 74.21875 37.203125 74.21875 
Q 40.921875 74.21875 44.703125 73.484375 
Q 48.484375 72.75 52.59375 71.296875 
z
" id="DejaVuSans-54"/>
      </defs>
      <g transform="translate(265.444205 322.182437)scale(0.1 -0.1)">
       <use xlink:href="#DejaVuSans-54"/>
      </g>
     </g>
    </g>
    <g id="xtick_5">
     <g id="line2d_5">
      <g>
       <use style="stroke:#000000;stroke-width:0.8;" x="333.556364" xlink:href="#m7b670f613a" y="307.584"/>
      </g>
     </g>
     <g id="text_5">
      <!-- 8 -->
      <defs>
       <path d="M 31.78125 34.625 
Q 24.75 34.625 20.71875 30.859375 
Q 16.703125 27.09375 16.703125 20.515625 
Q 16.703125 13.921875 20.71875 10.15625 
Q 24.75 6.390625 31.78125 6.390625 
Q 38.8125 6.390625 42.859375 10.171875 
Q 46.921875 13.96875 46.921875 20.515625 
Q 46.921875 27.09375 42.890625 30.859375 
Q 38.875 34.625 31.78125 34.625 
z
M 21.921875 38.8125 
Q 15.578125 40.375 12.03125 44.71875 
Q 8.5 49.078125 8.5 55.328125 
Q 8.5 64.0625 14.71875 69.140625 
Q 20.953125 74.21875 31.78125 74.21875 
Q 42.671875 74.21875 48.875 69.140625 
Q 55.078125 64.0625 55.078125 55.328125 
Q 55.078125 49.078125 51.53125 44.71875 
Q 48 40.375 41.703125 38.8125 
Q 48.828125 37.15625 52.796875 32.3125 
Q 56.78125 27.484375 56.78125 20.515625 
Q 56.78125 9.90625 50.3125 4.234375 
Q 43.84375 -1.421875 31.78125 -1.421875 
Q 19.734375 -1.421875 13.25 4.234375 
Q 6.78125 9.90625 6.78125 20.515625 
Q 6.78125 27.484375 10.78125 32.3125 
Q 14.796875 37.15625 21.921875 38.8125 
z
M 18.3125 54.390625 
Q 18.3125 48.734375 21.84375 45.5625 
Q 25.390625 42.390625 31.78125 42.390625 
Q 38.140625 42.390625 41.71875 45.5625 
Q 45.3125 48.734375 45.3125 54.390625 
Q 45.3125 60.0625 41.71875 63.234375 
Q 38.140625 66.40625 31.78125 66.40625 
Q 25.390625 66.40625 21.84375 63.234375 
Q 18.3125 60.0625 18.3125 54.390625 
z
" id="DejaVuSans-56"/>
      </defs>
      <g transform="translate(330.375114 322.182437)scale(0.1 -0.1)">
       <use xlink:href="#DejaVuSans-56"/>
      </g>
     </g>
    </g>
    <g id="xtick_6">
     <g id="line2d_6">
      <g>
       <use style="stroke:#000000;stroke-width:0.8;" x="398.487273" xlink:href="#m7b670f613a" y="307.584"/>
      </g>
     </g>
     <g id="text_6">
      <!-- 10 -->
      <defs>
       <path d="M 12.40625 8.296875 
L 28.515625 8.296875 
L 28.515625 63.921875 
L 10.984375 60.40625 
L 10.984375 69.390625 
L 28.421875 72.90625 
L 38.28125 72.90625 
L 38.28125 8.296875 
L 54.390625 8.296875 
L 54.390625 0 
L 12.40625 0 
z
" id="DejaVuSans-49"/>
      </defs>
      <g transform="translate(392.124773 322.182437)scale(0.1 -0.1)">
       <use xlink:href="#DejaVuSans-49"/>
       <use x="63.623047" xlink:href="#DejaVuSans-48"/>
      </g>
     </g>
    </g>
    <g id="text_7">
     <!-- Time -->
     <defs>
      <path d="M -0.296875 72.90625 
L 61.375 72.90625 
L 61.375 64.59375 
L 35.5 64.59375 
L 35.5 0 
L 25.59375 0 
L 25.59375 64.59375 
L -0.296875 64.59375 
z
" id="DejaVuSans-84"/>
      <path d="M 9.421875 54.6875 
L 18.40625 54.6875 
L 18.40625 0 
L 9.421875 0 
z
M 9.421875 75.984375 
L 18.40625 75.984375 
L 18.40625 64.59375 
L 9.421875 64.59375 
z
" id="DejaVuSans-105"/>
      <path d="M 52 44.1875 
Q 55.375 50.25 60.0625 53.125 
Q 64.75 56 71.09375 56 
Q 79.640625 56 84.28125 50.015625 
Q 88.921875 44.046875 88.921875 33.015625 
L 88.921875 0 
L 79.890625 0 
L 79.890625 32.71875 
Q 79.890625 40.578125 77.09375 44.375 
Q 74.3125 48.1875 68.609375 48.1875 
Q 61.625 48.1875 57.5625 43.546875 
Q 53.515625 38.921875 53.515625 30.90625 
L 53.515625 0 
L 44.484375 0 
L 44.484375 32.71875 
Q 44.484375 40.625 41.703125 44.40625 
Q 38.921875 48.1875 33.109375 48.1875 
Q 26.21875 48.1875 22.15625 43.53125 
Q 18.109375 38.875 18.109375 30.90625 
L 18.109375 0 
L 9.078125 0 
L 9.078125 54.6875 
L 18.109375 54.6875 
L 18.109375 46.1875 
Q 21.1875 51.21875 25.484375 53.609375 
Q 29.78125 56 35.6875 56 
Q 41.65625 56 45.828125 52.96875 
Q 50 49.953125 52 44.1875 
z
" id="DejaVuSans-109"/>
      <path d="M 56.203125 29.59375 
L 56.203125 25.203125 
L 14.890625 25.203125 
Q 15.484375 15.921875 20.484375 11.0625 
Q 25.484375 6.203125 34.421875 6.203125 
Q 39.59375 6.203125 44.453125 7.46875 
Q 49.3125 8.734375 54.109375 11.28125 
L 54.109375 2.78125 
Q 49.265625 0.734375 44.1875 -0.34375 
Q 39.109375 -1.421875 33.890625 -1.421875 
Q 20.796875 -1.421875 13.15625 6.1875 
Q 5.515625 13.8125 5.515625 26.8125 
Q 5.515625 40.234375 12.765625 48.109375 
Q 20.015625 56 32.328125 56 
Q 43.359375 56 49.78125 48.890625 
Q 56.203125 41.796875 56.203125 29.59375 
z
M 47.21875 32.234375 
Q 47.125 39.59375 43.09375 43.984375 
Q 39.0625 48.390625 32.421875 48.390625 
Q 24.90625 48.390625 20.390625 44.140625 
Q 15.875 39.890625 15.1875 32.171875 
z
" id="DejaVuSans-101"/>
     </defs>
     <g transform="translate(223.7725 335.860562)scale(0.1 -0.1)">
      <use xlink:href="#DejaVuSans-84"/>
      <use x="61.037109" xlink:href="#DejaVuSans-105"/>
      <use x="88.820312" xlink:href="#DejaVuSans-109"/>
      <use x="186.232422" xlink:href="#DejaVuSans-101"/>
     </g>
    </g>
   </g>
   <g id="matplotlib.axis_2">
    <g id="ytick_1">
     <g id="line2d_7">
      <defs>
       <path d="M 0 0 
L -3.5 0 
" id="m2b67fff06e" style="stroke:#000000;stroke-width:0.8;"/>
      </defs>
      <g>
       <use style="stroke:#000000;stroke-width:0.8;" x="57.6" xlink:href="#m2b67fff06e" y="295.488"/>
      </g>
     </g>
     <g id="text_8">
      <!-- 0.00 -->
      <defs>
       <path d="M 10.6875 12.40625 
L 21 12.40625 
L 21 0 
L 10.6875 0 
z
" id="DejaVuSans-46"/>
      </defs>
      <g transform="translate(28.334375 299.287219)scale(0.1 -0.1)">
       <use xlink:href="#DejaVuSans-48"/>
       <use x="63.623047" xlink:href="#DejaVuSans-46"/>
       <use x="95.410156" xlink:href="#DejaVuSans-48"/>
       <use x="159.033203" xlink:href="#DejaVuSans-48"/>
      </g>
     </g>
    </g>
    <g id="ytick_2">
     <g id="line2d_8">
      <g>
       <use style="stroke:#000000;stroke-width:0.8;" x="57.6" xlink:href="#m2b67fff06e" y="265.248"/>
      </g>
     </g>
     <g id="text_9">
      <!-- 0.25 -->
      <defs>
       <path d="M 10.796875 72.90625 
L 49.515625 72.90625 
L 49.515625 64.59375 
L 19.828125 64.59375 
L 19.828125 46.734375 
Q 21.96875 47.46875 24.109375 47.828125 
Q 26.265625 48.1875 28.421875 48.1875 
Q 40.625 48.1875 47.75 41.5 
Q 54.890625 34.8125 54.890625 23.390625 
Q 54.890625 11.625 47.5625 5.09375 
Q 40.234375 -1.421875 26.90625 -1.421875 
Q 22.3125 -1.421875 17.546875 -0.640625 
Q 12.796875 0.140625 7.71875 1.703125 
L 7.71875 11.625 
Q 12.109375 9.234375 16.796875 8.0625 
Q 21.484375 6.890625 26.703125 6.890625 
Q 35.15625 6.890625 40.078125 11.328125 
Q 45.015625 15.765625 45.015625 23.390625 
Q 45.015625 31 40.078125 35.4375 
Q 35.15625 39.890625 26.703125 39.890625 
Q 22.75 39.890625 18.8125 39.015625 
Q 14.890625 38.140625 10.796875 36.28125 
z
" id="DejaVuSans-53"/>
      </defs>
      <g transform="translate(28.334375 269.047219)scale(0.1 -0.1)">
       <use xlink:href="#DejaVuSans-48"/>
       <use x="63.623047" xlink:href="#DejaVuSans-46"/>
       <use x="95.410156" xlink:href="#DejaVuSans-50"/>
       <use x="159.033203" xlink:href="#DejaVuSans-53"/>
      </g>
     </g>
    </g>
    <g id="ytick_3">
     <g id="line2d_9">
      <g>
       <use style="stroke:#000000;stroke-width:0.8;" x="57.6" xlink:href="#m2b67fff06e" y="235.008"/>
      </g>
     </g>
     <g id="text_10">
      <!-- 0.50 -->
      <g transform="translate(28.334375 238.807219)scale(0.1 -0.1)">
       <use xlink:href="#DejaVuSans-48"/>
       <use x="63.623047" xlink:href="#DejaVuSans-46"/>
       <use x="95.410156" xlink:href="#DejaVuSans-53"/>
       <use x="159.033203" xlink:href="#DejaVuSans-48"/>
      </g>
     </g>
    </g>
    <g id="ytick_4">
     <g id="line2d_10">
      <g>
       <use style="stroke:#000000;stroke-width:0.8;" x="57.6" xlink:href="#m2b67fff06e" y="204.768"/>
      </g>
     </g>
     <g id="text_11">
      <!-- 0.75 -->
      <defs>
       <path d="M 8.203125 72.90625 
L 55.078125 72.90625 
L 55.078125 68.703125 
L 28.609375 0 
L 18.3125 0 
L 43.21875 64.59375 
L 8.203125 64.59375 
z
" id="DejaVuSans-55"/>
      </defs>
      <g transform="translate(28.334375 208.567219)scale(0.1 -0.1)">
       <use xlink:href="#DejaVuSans-48"/>
       <use x="63.623047" xlink:href="#DejaVuSans-46"/>
       <use x="95.410156" xlink:href="#DejaVuSans-55"/>
       <use x="159.033203" xlink:href="#DejaVuSans-53"/>
      </g>
     </g>
    </g>
    <g id="ytick_5">
     <g id="line2d_11">
      <g>
       <use style="stroke:#000000;stroke-width:0.8;" x="57.6" xlink:href="#m2b67fff06e" y="174.528"/>
      </g>
     </g>
     <g id="text_12">
      <!-- 1.00 -->
      <g transform="translate(28.334375 178.327219)scale(0.1 -0.1)">
       <use xlink:href="#DejaVuSans-49"/>
       <use x="63.623047" xlink:href="#DejaVuSans-46"/>
       <use x="95.410156" xlink:href="#DejaVuSans-48"/>
       <use x="159.033203" xlink:href="#DejaVuSans-48"/>
      </g>
     </g>
    </g>
    <g id="ytick_6">
     <g id="line2d_12">
      <g>
       <use style="stroke:#000000;stroke-width:0.8;" x="57.6" xlink:href="#m2b67fff06e" y="144.288"/>
      </g>
     </g>
     <g id="text_13">
      <!-- 1.25 -->
      <g transform="translate(28.334375 148.087219)scale(0.1 -0.1)">
       <use xlink:href="#DejaVuSans-49"/>
       <use x="63.623047" xlink:href="#DejaVuSans-46"/>
       <use x="95.410156" xlink:href="#DejaVuSans-50"/>
       <use x="159.033203" xlink:href="#DejaVuSans-53"/>
      </g>
     </g>
    </g>
    <g id="ytick_7">
     <g id="line2d_13">
      <g>
       <use style="stroke:#000000;stroke-width:0.8;" x="57.6" xlink:href="#m2b67fff06e" y="114.048"/>
      </g>
     </g>
     <g id="text_14">
      <!-- 1.50 -->
      <g transform="translate(28.334375 117.847219)scale(0.1 -0.1)">
       <use xlink:href="#DejaVuSans-49"/>
       <use x="63.623047" xlink:href="#DejaVuSans-46"/>
       <use x="95.410156" xlink:href="#DejaVuSans-53"/>
       <use x="159.033203" xlink:href="#DejaVuSans-48"/>
      </g>
     </g>
    </g>
    <g id="ytick_8">
     <g id="line2d_14">
      <g>
       <use style="stroke:#000000;stroke-width:0.8;" x="57.6" xlink:href="#m2b67fff06e" y="83.808"/>
      </g>
     </g>
     <g id="text_15">
      <!-- 1.75 -->
      <g transform="translate(28.334375 87.607219)scale(0.1 -0.1)">
       <use xlink:href="#DejaVuSans-49"/>
       <use x="63.623047" xlink:href="#DejaVuSans-46"/>
       <use x="95.410156" xlink:href="#DejaVuSans-55"/>
       <use x="159.033203" xlink:href="#DejaVuSans-53"/>
      </g>
     </g>
    </g>
    <g id="ytick_9">
     <g id="line2d_15">
      <g>
       <use style="stroke:#000000;stroke-width:0.8;" x="57.6" xlink:href="#m2b67fff06e" y="53.568"/>
      </g>
     </g>
     <g id="text_16">
      <!-- 2.00 -->
      <g transform="translate(28.334375 57.367219)scale(0.1 -0.1)">
       <use xlink:href="#DejaVuSans-50"/>
       <use x="63.623047" xlink:href="#DejaVuSans-46"/>
       <use x="95.410156" xlink:href="#DejaVuSans-48"/>
       <use x="159.033203" xlink:href="#DejaVuSans-48"/>
      </g>
     </g>
    </g>
    <g id="text_17">
     <!-- |x| -->
     <defs>
      <path d="M 21 76.421875 
L 21 -23.578125 
L 12.703125 -23.578125 
L 12.703125 76.421875 
z
" id="DejaVuSans-124"/>
      <path d="M 54.890625 54.6875 
L 35.109375 28.078125 
L 55.90625 0 
L 45.3125 0 
L 29.390625 21.484375 
L 13.484375 0 
L 2.875 0 
L 24.125 28.609375 
L 4.6875 54.6875 
L 15.28125 54.6875 
L 29.78125 35.203125 
L 44.28125 54.6875 
z
" id="DejaVuSans-120"/>
     </defs>
     <g transform="translate(21.976562 180.856125)rotate(-90)scale(0.1 -0.1)">
      <use xlink:href="#DejaVuSans-124"/>
      <use x="33.691406" xlink:href="#DejaVuSans-120"/>
      <use x="92.871094" xlink:href="#DejaVuSans-124"/>
     </g>
    </g>
   </g>
   <g id="line2d_16">
    <defs>
     <path d="M 0 3 
C 0.795609 3 1.55874 2.683901 2.12132 2.12132 
C 2.683901 1.55874 3 0.795609 3 0 
C 3 -0.795609 2.683901 -1.55874 2.12132 -2.12132 
C 1.55874 -2.683901 0.795609 -3 0 -3 
C -0.795609 -3 -1.55874 -2.683901 -2.12132 -2.12132 
C -2.683901 -1.55874 -3 -0.795609 -3 0 
C -3 0.795609 -2.683901 1.55874 -2.12132 2.12132 
C -1.55874 2.683901 -0.795609 3 0 3 
z
" id="mb3d5805639" style="stroke:#1f77b4;"/>
    </defs>
    <g clip-path="url(#p83e727a732)">
     <use style="fill:#1f77b4;stroke:#1f77b4;" x="73.832727" xlink:href="#mb3d5805639" y="174.528"/>
     <use style="fill:#1f77b4;stroke:#1f77b4;" x="77.079273" xlink:href="#mb3d5805639" y="174.528"/>
     <use style="fill:#1f77b4;stroke:#1f77b4;" x="80.325818" xlink:href="#mb3d5805639" y="174.528"/>
     <use style="fill:#1f77b4;stroke:#1f77b4;" x="83.572364" xlink:href="#mb3d5805639" y="174.528"/>
     <use style="fill:#1f77b4;stroke:#1f77b4;" x="86.818909" xlink:href="#mb3d5805639" y="174.528"/>
     <use style="fill:#1f77b4;stroke:#1f77b4;" x="90.065455" xlink:href="#mb3d5805639" y="174.528"/>
     <use style="fill:#1f77b4;stroke:#1f77b4;" x="93.312" xlink:href="#mb3d5805639" y="174.528"/>
     <use style="fill:#1f77b4;stroke:#1f77b4;" x="96.558545" xlink:href="#mb3d5805639" y="174.528"/>
     <use style="fill:#1f77b4;stroke:#1f77b4;" x="99.805091" xlink:href="#mb3d5805639" y="174.528"/>
     <use style="fill:#1f77b4;stroke:#1f77b4;" x="103.051636" xlink:href="#mb3d5805639" y="174.528"/>
     <use style="fill:#1f77b4;stroke:#1f77b4;" x="106.298182" xlink:href="#mb3d5805639" y="174.528"/>
     <use style="fill:#1f77b4;stroke:#1f77b4;" x="109.544727" xlink:href="#mb3d5805639" y="174.528"/>
     <use style="fill:#1f77b4;stroke:#1f77b4;" x="112.791273" xlink:href="#mb3d5805639" y="174.528"/>
     <use style="fill:#1f77b4;stroke:#1f77b4;" x="116.037818" xlink:href="#mb3d5805639" y="174.528"/>
     <use style="fill:#1f77b4;stroke:#1f77b4;" x="119.284364" xlink:href="#mb3d5805639" y="174.528"/>
     <use style="fill:#1f77b4;stroke:#1f77b4;" x="122.530909" xlink:href="#mb3d5805639" y="174.528"/>
     <use style="fill:#1f77b4;stroke:#1f77b4;" x="125.777455" xlink:href="#mb3d5805639" y="174.528"/>
     <use style="fill:#1f77b4;stroke:#1f77b4;" x="129.024" xlink:href="#mb3d5805639" y="174.528"/>
     <use style="fill:#1f77b4;stroke:#1f77b4;" x="132.270545" xlink:href="#mb3d5805639" y="174.528"/>
     <use style="fill:#1f77b4;stroke:#1f77b4;" x="135.517091" xlink:href="#mb3d5805639" y="174.528"/>
     <use style="fill:#1f77b4;stroke:#1f77b4;" x="138.763636" xlink:href="#mb3d5805639" y="53.568"/>
     <use style="fill:#1f77b4;stroke:#1f77b4;" x="142.010182" xlink:href="#mb3d5805639" y="53.568"/>
     <use style="fill:#1f77b4;stroke:#1f77b4;" x="145.256727" xlink:href="#mb3d5805639" y="53.568"/>
     <use style="fill:#1f77b4;stroke:#1f77b4;" x="148.503273" xlink:href="#mb3d5805639" y="53.568"/>
     <use style="fill:#1f77b4;stroke:#1f77b4;" x="151.749818" xlink:href="#mb3d5805639" y="53.568"/>
     <use style="fill:#1f77b4;stroke:#1f77b4;" x="154.996364" xlink:href="#mb3d5805639" y="53.568"/>
     <use style="fill:#1f77b4;stroke:#1f77b4;" x="158.242909" xlink:href="#mb3d5805639" y="53.568"/>
     <use style="fill:#1f77b4;stroke:#1f77b4;" x="161.489455" xlink:href="#mb3d5805639" y="53.568"/>
     <use style="fill:#1f77b4;stroke:#1f77b4;" x="164.736" xlink:href="#mb3d5805639" y="53.568"/>
     <use style="fill:#1f77b4;stroke:#1f77b4;" x="167.982545" xlink:href="#mb3d5805639" y="53.568"/>
     <use style="fill:#1f77b4;stroke:#1f77b4;" x="171.229091" xlink:href="#mb3d5805639" y="53.568"/>
     <use style="fill:#1f77b4;stroke:#1f77b4;" x="174.475636" xlink:href="#mb3d5805639" y="53.568"/>
     <use style="fill:#1f77b4;stroke:#1f77b4;" x="177.722182" xlink:href="#mb3d5805639" y="53.568"/>
     <use style="fill:#1f77b4;stroke:#1f77b4;" x="180.968727" xlink:href="#mb3d5805639" y="53.568"/>
     <use style="fill:#1f77b4;stroke:#1f77b4;" x="184.215273" xlink:href="#mb3d5805639" y="53.568"/>
     <use style="fill:#1f77b4;stroke:#1f77b4;" x="187.461818" xlink:href="#mb3d5805639" y="53.568"/>
     <use style="fill:#1f77b4;stroke:#1f77b4;" x="190.708364" xlink:href="#mb3d5805639" y="53.568"/>
     <use style="fill:#1f77b4;stroke:#1f77b4;" x="193.954909" xlink:href="#mb3d5805639" y="53.568"/>
     <use style="fill:#1f77b4;stroke:#1f77b4;" x="197.201455" xlink:href="#mb3d5805639" y="53.568"/>
     <use style="fill:#1f77b4;stroke:#1f77b4;" x="200.448" xlink:href="#mb3d5805639" y="53.568"/>
     <use style="fill:#1f77b4;stroke:#1f77b4;" x="203.694545" xlink:href="#mb3d5805639" y="53.568"/>
     <use style="fill:#1f77b4;stroke:#1f77b4;" x="206.941091" xlink:href="#mb3d5805639" y="53.568"/>
     <use style="fill:#1f77b4;stroke:#1f77b4;" x="210.187636" xlink:href="#mb3d5805639" y="53.568"/>
     <use style="fill:#1f77b4;stroke:#1f77b4;" x="213.434182" xlink:href="#mb3d5805639" y="53.568"/>
     <use style="fill:#1f77b4;stroke:#1f77b4;" x="216.680727" xlink:href="#mb3d5805639" y="53.568"/>
     <use style="fill:#1f77b4;stroke:#1f77b4;" x="219.927273" xlink:href="#mb3d5805639" y="53.568"/>
     <use style="fill:#1f77b4;stroke:#1f77b4;" x="223.173818" xlink:href="#mb3d5805639" y="53.568"/>
     <use style="fill:#1f77b4;stroke:#1f77b4;" x="226.420364" xlink:href="#mb3d5805639" y="53.568"/>
     <use style="fill:#1f77b4;stroke:#1f77b4;" x="229.666909" xlink:href="#mb3d5805639" y="53.568"/>
     <use style="fill:#1f77b4;stroke:#1f77b4;" x="232.913455" xlink:href="#mb3d5805639" y="53.568"/>
     <use style="fill:#1f77b4;stroke:#1f77b4;" x="236.16" xlink:href="#mb3d5805639" y="53.568"/>
     <use style="fill:#1f77b4;stroke:#1f77b4;" x="239.406545" xlink:href="#mb3d5805639" y="53.568"/>
     <use style="fill:#1f77b4;stroke:#1f77b4;" x="242.653091" xlink:href="#mb3d5805639" y="53.568"/>
     <use style="fill:#1f77b4;stroke:#1f77b4;" x="245.899636" xlink:href="#mb3d5805639" y="53.568"/>
     <use style="fill:#1f77b4;stroke:#1f77b4;" x="249.146182" xlink:href="#mb3d5805639" y="53.568"/>
     <use style="fill:#1f77b4;stroke:#1f77b4;" x="252.392727" xlink:href="#mb3d5805639" y="53.568"/>
     <use style="fill:#1f77b4;stroke:#1f77b4;" x="255.639273" xlink:href="#mb3d5805639" y="53.568"/>
     <use style="fill:#1f77b4;stroke:#1f77b4;" x="258.885818" xlink:href="#mb3d5805639" y="53.568"/>
     <use style="fill:#1f77b4;stroke:#1f77b4;" x="262.132364" xlink:href="#mb3d5805639" y="53.568"/>
     <use style="fill:#1f77b4;stroke:#1f77b4;" x="265.378909" xlink:href="#mb3d5805639" y="53.568"/>
     <use style="fill:#1f77b4;stroke:#1f77b4;" x="268.625455" xlink:href="#mb3d5805639" y="53.568"/>
     <use style="fill:#1f77b4;stroke:#1f77b4;" x="271.872" xlink:href="#mb3d5805639" y="53.568"/>
     <use style="fill:#1f77b4;stroke:#1f77b4;" x="275.118545" xlink:href="#mb3d5805639" y="53.568"/>
     <use style="fill:#1f77b4;stroke:#1f77b4;" x="278.365091" xlink:href="#mb3d5805639" y="53.568"/>
     <use style="fill:#1f77b4;stroke:#1f77b4;" x="281.611636" xlink:href="#mb3d5805639" y="53.568"/>
     <use style="fill:#1f77b4;stroke:#1f77b4;" x="284.858182" xlink:href="#mb3d5805639" y="53.568"/>
     <use style="fill:#1f77b4;stroke:#1f77b4;" x="288.104727" xlink:href="#mb3d5805639" y="53.568"/>
     <use style="fill:#1f77b4;stroke:#1f77b4;" x="291.351273" xlink:href="#mb3d5805639" y="53.568"/>
     <use style="fill:#1f77b4;stroke:#1f77b4;" x="294.597818" xlink:href="#mb3d5805639" y="53.568"/>
     <use style="fill:#1f77b4;stroke:#1f77b4;" x="297.844364" xlink:href="#mb3d5805639" y="53.568"/>
     <use style="fill:#1f77b4;stroke:#1f77b4;" x="301.090909" xlink:href="#mb3d5805639" y="295.488"/>
     <use style="fill:#1f77b4;stroke:#1f77b4;" x="304.337455" xlink:href="#mb3d5805639" y="295.488"/>
     <use style="fill:#1f77b4;stroke:#1f77b4;" x="307.584" xlink:href="#mb3d5805639" y="295.488"/>
     <use style="fill:#1f77b4;stroke:#1f77b4;" x="310.830545" xlink:href="#mb3d5805639" y="295.488"/>
     <use style="fill:#1f77b4;stroke:#1f77b4;" x="314.077091" xlink:href="#mb3d5805639" y="295.488"/>
     <use style="fill:#1f77b4;stroke:#1f77b4;" x="317.323636" xlink:href="#mb3d5805639" y="295.488"/>
     <use style="fill:#1f77b4;stroke:#1f77b4;" x="320.570182" xlink:href="#mb3d5805639" y="295.488"/>
     <use style="fill:#1f77b4;stroke:#1f77b4;" x="323.816727" xlink:href="#mb3d5805639" y="295.488"/>
     <use style="fill:#1f77b4;stroke:#1f77b4;" x="327.063273" xlink:href="#mb3d5805639" y="295.488"/>
     <use style="fill:#1f77b4;stroke:#1f77b4;" x="330.309818" xlink:href="#mb3d5805639" y="295.488"/>
     <use style="fill:#1f77b4;stroke:#1f77b4;" x="333.556364" xlink:href="#mb3d5805639" y="295.488"/>
     <use style="fill:#1f77b4;stroke:#1f77b4;" x="336.802909" xlink:href="#mb3d5805639" y="295.488"/>
     <use style="fill:#1f77b4;stroke:#1f77b4;" x="340.049455" xlink:href="#mb3d5805639" y="295.488"/>
     <use style="fill:#1f77b4;stroke:#1f77b4;" x="343.296" xlink:href="#mb3d5805639" y="295.488"/>
     <use style="fill:#1f77b4;stroke:#1f77b4;" x="346.542545" xlink:href="#mb3d5805639" y="295.488"/>
     <use style="fill:#1f77b4;stroke:#1f77b4;" x="349.789091" xlink:href="#mb3d5805639" y="295.488"/>
     <use style="fill:#1f77b4;stroke:#1f77b4;" x="353.035636" xlink:href="#mb3d5805639" y="295.488"/>
     <use style="fill:#1f77b4;stroke:#1f77b4;" x="356.282182" xlink:href="#mb3d5805639" y="295.488"/>
     <use style="fill:#1f77b4;stroke:#1f77b4;" x="359.528727" xlink:href="#mb3d5805639" y="295.488"/>
     <use style="fill:#1f77b4;stroke:#1f77b4;" x="362.775273" xlink:href="#mb3d5805639" y="295.488"/>
     <use style="fill:#1f77b4;stroke:#1f77b4;" x="366.021818" xlink:href="#mb3d5805639" y="295.488"/>
     <use style="fill:#1f77b4;stroke:#1f77b4;" x="369.268364" xlink:href="#mb3d5805639" y="295.488"/>
     <use style="fill:#1f77b4;stroke:#1f77b4;" x="372.514909" xlink:href="#mb3d5805639" y="295.488"/>
     <use style="fill:#1f77b4;stroke:#1f77b4;" x="375.761455" xlink:href="#mb3d5805639" y="295.488"/>
     <use style="fill:#1f77b4;stroke:#1f77b4;" x="379.008" xlink:href="#mb3d5805639" y="295.488"/>
     <use style="fill:#1f77b4;stroke:#1f77b4;" x="382.254545" xlink:href="#mb3d5805639" y="295.488"/>
     <use style="fill:#1f77b4;stroke:#1f77b4;" x="385.501091" xlink:href="#mb3d5805639" y="295.488"/>
     <use style="fill:#1f77b4;stroke:#1f77b4;" x="388.747636" xlink:href="#mb3d5805639" y="295.488"/>
     <use style="fill:#1f77b4;stroke:#1f77b4;" x="391.994182" xlink:href="#mb3d5805639" y="295.488"/>
     <use style="fill:#1f77b4;stroke:#1f77b4;" x="395.240727" xlink:href="#mb3d5805639" y="295.488"/>
    </g>
   </g>
   <g id="line2d_17">
    <defs>
     <path d="M -3 3 
L 3 -3 
M -3 -3 
L 3 3 
" id="m2df64eb561" style="stroke:#ff7f0e;"/>
    </defs>
    <g clip-path="url(#p83e727a732)">
     <use style="fill:#ff7f0e;stroke:#ff7f0e;" x="73.832727" xlink:href="#m2df64eb561" y="295.488"/>
     <use style="fill:#ff7f0e;stroke:#ff7f0e;" x="77.079273" xlink:href="#m2df64eb561" y="295.488"/>
     <use style="fill:#ff7f0e;stroke:#ff7f0e;" x="80.325818" xlink:href="#m2df64eb561" y="295.488"/>
     <use style="fill:#ff7f0e;stroke:#ff7f0e;" x="83.572364" xlink:href="#m2df64eb561" y="215.0496"/>
     <use style="fill:#ff7f0e;stroke:#ff7f0e;" x="86.818909" xlink:href="#m2df64eb561" y="215.0496"/>
     <use style="fill:#ff7f0e;stroke:#ff7f0e;" x="90.065455" xlink:href="#m2df64eb561" y="215.0496"/>
     <use style="fill:#ff7f0e;stroke:#ff7f0e;" x="93.312" xlink:href="#m2df64eb561" y="215.0496"/>
     <use style="fill:#ff7f0e;stroke:#ff7f0e;" x="96.558545" xlink:href="#m2df64eb561" y="229.215569"/>
     <use style="fill:#ff7f0e;stroke:#ff7f0e;" x="99.805091" xlink:href="#m2df64eb561" y="229.215569"/>
     <use style="fill:#ff7f0e;stroke:#ff7f0e;" x="103.051636" xlink:href="#m2df64eb561" y="229.215569"/>
     <use style="fill:#ff7f0e;stroke:#ff7f0e;" x="106.298182" xlink:href="#m2df64eb561" y="229.215569"/>
     <use style="fill:#ff7f0e;stroke:#ff7f0e;" x="109.544727" xlink:href="#m2df64eb561" y="236.375524"/>
     <use style="fill:#ff7f0e;stroke:#ff7f0e;" x="112.791273" xlink:href="#m2df64eb561" y="236.375524"/>
     <use style="fill:#ff7f0e;stroke:#ff7f0e;" x="116.037818" xlink:href="#m2df64eb561" y="236.375524"/>
     <use style="fill:#ff7f0e;stroke:#ff7f0e;" x="119.284364" xlink:href="#m2df64eb561" y="236.375524"/>
     <use style="fill:#ff7f0e;stroke:#ff7f0e;" x="122.530909" xlink:href="#m2df64eb561" y="231.312042"/>
     <use style="fill:#ff7f0e;stroke:#ff7f0e;" x="125.777455" xlink:href="#m2df64eb561" y="231.312042"/>
     <use style="fill:#ff7f0e;stroke:#ff7f0e;" x="129.024" xlink:href="#m2df64eb561" y="231.312042"/>
     <use style="fill:#ff7f0e;stroke:#ff7f0e;" x="132.270545" xlink:href="#m2df64eb561" y="231.312042"/>
     <use style="fill:#ff7f0e;stroke:#ff7f0e;" x="135.517091" xlink:href="#m2df64eb561" y="232.721583"/>
     <use style="fill:#ff7f0e;stroke:#ff7f0e;" x="138.763636" xlink:href="#m2df64eb561" y="232.721583"/>
     <use style="fill:#ff7f0e;stroke:#ff7f0e;" x="142.010182" xlink:href="#m2df64eb561" y="232.721583"/>
     <use style="fill:#ff7f0e;stroke:#ff7f0e;" x="145.256727" xlink:href="#m2df64eb561" y="232.721583"/>
     <use style="fill:#ff7f0e;stroke:#ff7f0e;" x="148.503273" xlink:href="#m2df64eb561" y="153.506003"/>
     <use style="fill:#ff7f0e;stroke:#ff7f0e;" x="151.749818" xlink:href="#m2df64eb561" y="153.506003"/>
     <use style="fill:#ff7f0e;stroke:#ff7f0e;" x="154.996364" xlink:href="#m2df64eb561" y="153.506003"/>
     <use style="fill:#ff7f0e;stroke:#ff7f0e;" x="158.242909" xlink:href="#m2df64eb561" y="153.506003"/>
     <use style="fill:#ff7f0e;stroke:#ff7f0e;" x="161.489455" xlink:href="#m2df64eb561" y="166.640248"/>
     <use style="fill:#ff7f0e;stroke:#ff7f0e;" x="164.736" xlink:href="#m2df64eb561" y="166.640248"/>
     <use style="fill:#ff7f0e;stroke:#ff7f0e;" x="167.982545" xlink:href="#m2df64eb561" y="166.640248"/>
     <use style="fill:#ff7f0e;stroke:#ff7f0e;" x="171.229091" xlink:href="#m2df64eb561" y="166.640248"/>
     <use style="fill:#ff7f0e;stroke:#ff7f0e;" x="174.475636" xlink:href="#m2df64eb561" y="173.583278"/>
     <use style="fill:#ff7f0e;stroke:#ff7f0e;" x="177.722182" xlink:href="#m2df64eb561" y="173.583278"/>
     <use style="fill:#ff7f0e;stroke:#ff7f0e;" x="180.968727" xlink:href="#m2df64eb561" y="173.583278"/>
     <use style="fill:#ff7f0e;stroke:#ff7f0e;" x="184.215273" xlink:href="#m2df64eb561" y="173.583278"/>
     <use style="fill:#ff7f0e;stroke:#ff7f0e;" x="187.461818" xlink:href="#m2df64eb561" y="168.502584"/>
     <use style="fill:#ff7f0e;stroke:#ff7f0e;" x="190.708364" xlink:href="#m2df64eb561" y="168.502584"/>
     <use style="fill:#ff7f0e;stroke:#ff7f0e;" x="193.954909" xlink:href="#m2df64eb561" y="168.502584"/>
     <use style="fill:#ff7f0e;stroke:#ff7f0e;" x="197.201455" xlink:href="#m2df64eb561" y="168.502584"/>
     <use style="fill:#ff7f0e;stroke:#ff7f0e;" x="200.448" xlink:href="#m2df64eb561" y="169.897475"/>
     <use style="fill:#ff7f0e;stroke:#ff7f0e;" x="203.694545" xlink:href="#m2df64eb561" y="169.897475"/>
     <use style="fill:#ff7f0e;stroke:#ff7f0e;" x="206.941091" xlink:href="#m2df64eb561" y="169.897475"/>
     <use style="fill:#ff7f0e;stroke:#ff7f0e;" x="210.187636" xlink:href="#m2df64eb561" y="169.897475"/>
     <use style="fill:#ff7f0e;stroke:#ff7f0e;" x="213.434182" xlink:href="#m2df64eb561" y="170.039133"/>
     <use style="fill:#ff7f0e;stroke:#ff7f0e;" x="216.680727" xlink:href="#m2df64eb561" y="170.039133"/>
     <use style="fill:#ff7f0e;stroke:#ff7f0e;" x="219.927273" xlink:href="#m2df64eb561" y="170.039133"/>
     <use style="fill:#ff7f0e;stroke:#ff7f0e;" x="223.173818" xlink:href="#m2df64eb561" y="170.039133"/>
     <use style="fill:#ff7f0e;stroke:#ff7f0e;" x="226.420364" xlink:href="#m2df64eb561" y="169.750043"/>
     <use style="fill:#ff7f0e;stroke:#ff7f0e;" x="229.666909" xlink:href="#m2df64eb561" y="169.750043"/>
     <use style="fill:#ff7f0e;stroke:#ff7f0e;" x="232.913455" xlink:href="#m2df64eb561" y="169.750043"/>
     <use style="fill:#ff7f0e;stroke:#ff7f0e;" x="236.16" xlink:href="#m2df64eb561" y="169.750043"/>
     <use style="fill:#ff7f0e;stroke:#ff7f0e;" x="239.406545" xlink:href="#m2df64eb561" y="169.866658"/>
     <use style="fill:#ff7f0e;stroke:#ff7f0e;" x="242.653091" xlink:href="#m2df64eb561" y="169.866658"/>
     <use style="fill:#ff7f0e;stroke:#ff7f0e;" x="245.899636" xlink:href="#m2df64eb561" y="169.866658"/>
     <use style="fill:#ff7f0e;stroke:#ff7f0e;" x="249.146182" xlink:href="#m2df64eb561" y="169.866658"/>
     <use style="fill:#ff7f0e;stroke:#ff7f0e;" x="252.392727" xlink:href="#m2df64eb561" y="169.856679"/>
     <use style="fill:#ff7f0e;stroke:#ff7f0e;" x="255.639273" xlink:href="#m2df64eb561" y="169.856679"/>
     <use style="fill:#ff7f0e;stroke:#ff7f0e;" x="258.885818" xlink:href="#m2df64eb561" y="169.856679"/>
     <use style="fill:#ff7f0e;stroke:#ff7f0e;" x="262.132364" xlink:href="#m2df64eb561" y="169.856679"/>
     <use style="fill:#ff7f0e;stroke:#ff7f0e;" x="265.378909" xlink:href="#m2df64eb561" y="169.84291"/>
     <use style="fill:#ff7f0e;stroke:#ff7f0e;" x="268.625455" xlink:href="#m2df64eb561" y="169.84291"/>
     <use style="fill:#ff7f0e;stroke:#ff7f0e;" x="271.872" xlink:href="#m2df64eb561" y="169.84291"/>
     <use style="fill:#ff7f0e;stroke:#ff7f0e;" x="275.118545" xlink:href="#m2df64eb561" y="169.84291"/>
     <use style="fill:#ff7f0e;stroke:#ff7f0e;" x="278.365091" xlink:href="#m2df64eb561" y="169.851113"/>
     <use style="fill:#ff7f0e;stroke:#ff7f0e;" x="281.611636" xlink:href="#m2df64eb561" y="169.851113"/>
     <use style="fill:#ff7f0e;stroke:#ff7f0e;" x="284.858182" xlink:href="#m2df64eb561" y="169.851113"/>
     <use style="fill:#ff7f0e;stroke:#ff7f0e;" x="288.104727" xlink:href="#m2df64eb561" y="169.851113"/>
     <use style="fill:#ff7f0e;stroke:#ff7f0e;" x="291.351273" xlink:href="#m2df64eb561" y="169.849338"/>
     <use style="fill:#ff7f0e;stroke:#ff7f0e;" x="294.597818" xlink:href="#m2df64eb561" y="169.849338"/>
     <use style="fill:#ff7f0e;stroke:#ff7f0e;" x="297.844364" xlink:href="#m2df64eb561" y="169.849338"/>
     <use style="fill:#ff7f0e;stroke:#ff7f0e;" x="301.090909" xlink:href="#m2df64eb561" y="169.849338"/>
     <use style="fill:#ff7f0e;stroke:#ff7f0e;" x="304.337455" xlink:href="#m2df64eb561" y="169.848885"/>
     <use style="fill:#ff7f0e;stroke:#ff7f0e;" x="307.584" xlink:href="#m2df64eb561" y="169.848885"/>
     <use style="fill:#ff7f0e;stroke:#ff7f0e;" x="310.830545" xlink:href="#m2df64eb561" y="245.358241"/>
     <use style="fill:#ff7f0e;stroke:#ff7f0e;" x="314.077091" xlink:href="#m2df64eb561" y="245.358241"/>
     <use style="fill:#ff7f0e;stroke:#ff7f0e;" x="317.323636" xlink:href="#m2df64eb561" y="245.35806"/>
     <use style="fill:#ff7f0e;stroke:#ff7f0e;" x="320.570182" xlink:href="#m2df64eb561" y="245.35806"/>
     <use style="fill:#ff7f0e;stroke:#ff7f0e;" x="323.816727" xlink:href="#m2df64eb561" y="275.486146"/>
     <use style="fill:#ff7f0e;stroke:#ff7f0e;" x="327.063273" xlink:href="#m2df64eb561" y="275.486146"/>
     <use style="fill:#ff7f0e;stroke:#ff7f0e;" x="330.309818" xlink:href="#m2df64eb561" y="275.486074"/>
     <use style="fill:#ff7f0e;stroke:#ff7f0e;" x="333.556364" xlink:href="#m2df64eb561" y="275.486074"/>
     <use style="fill:#ff7f0e;stroke:#ff7f0e;" x="336.802909" xlink:href="#m2df64eb561" y="287.507289"/>
     <use style="fill:#ff7f0e;stroke:#ff7f0e;" x="340.049455" xlink:href="#m2df64eb561" y="287.507289"/>
     <use style="fill:#ff7f0e;stroke:#ff7f0e;" x="343.296" xlink:href="#m2df64eb561" y="287.507289"/>
     <use style="fill:#ff7f0e;stroke:#ff7f0e;" x="346.542545" xlink:href="#m2df64eb561" y="287.507289"/>
     <use style="fill:#ff7f0e;stroke:#ff7f0e;" x="349.789091" xlink:href="#m2df64eb561" y="292.303786"/>
     <use style="fill:#ff7f0e;stroke:#ff7f0e;" x="353.035636" xlink:href="#m2df64eb561" y="292.303786"/>
     <use style="fill:#ff7f0e;stroke:#ff7f0e;" x="356.282182" xlink:href="#m2df64eb561" y="292.303786"/>
     <use style="fill:#ff7f0e;stroke:#ff7f0e;" x="359.528727" xlink:href="#m2df64eb561" y="292.303786"/>
     <use style="fill:#ff7f0e;stroke:#ff7f0e;" x="362.775273" xlink:href="#m2df64eb561" y="294.217333"/>
     <use style="fill:#ff7f0e;stroke:#ff7f0e;" x="366.021818" xlink:href="#m2df64eb561" y="294.217333"/>
     <use style="fill:#ff7f0e;stroke:#ff7f0e;" x="369.268364" xlink:href="#m2df64eb561" y="294.217333"/>
     <use style="fill:#ff7f0e;stroke:#ff7f0e;" x="372.514909" xlink:href="#m2df64eb561" y="294.217333"/>
     <use style="fill:#ff7f0e;stroke:#ff7f0e;" x="375.761455" xlink:href="#m2df64eb561" y="294.981114"/>
     <use style="fill:#ff7f0e;stroke:#ff7f0e;" x="379.008" xlink:href="#m2df64eb561" y="294.981114"/>
     <use style="fill:#ff7f0e;stroke:#ff7f0e;" x="382.254545" xlink:href="#m2df64eb561" y="294.981114"/>
     <use style="fill:#ff7f0e;stroke:#ff7f0e;" x="385.501091" xlink:href="#m2df64eb561" y="294.981114"/>
     <use style="fill:#ff7f0e;stroke:#ff7f0e;" x="388.747636" xlink:href="#m2df64eb561" y="295.285786"/>
     <use style="fill:#ff7f0e;stroke:#ff7f0e;" x="391.994182" xlink:href="#m2df64eb561" y="295.285786"/>
     <use style="fill:#ff7f0e;stroke:#ff7f0e;" x="395.240727" xlink:href="#m2df64eb561" y="295.285786"/>
     <use style="fill:#ff7f0e;stroke:#ff7f0e;" x="398.487273" xlink:href="#m2df64eb561" y="295.285786"/>
    </g>
   </g>
   <g id="patch_3">
    <path d="M 57.6 307.584 
L 57.6 41.472 
" style="fill:none;stroke:#000000;stroke-linecap:square;stroke-linejoin:miter;stroke-width:0.8;"/>
   </g>
   <g id="patch_4">
    <path d="M 414.72 307.584 
L 414.72 41.472 
" style="fill:none;stroke:#000000;stroke-linecap:square;stroke-linejoin:miter;stroke-width:0.8;"/>
   </g>
   <g id="patch_5">
    <path d="M 57.6 307.584 
L 414.72 307.584 
" style="fill:none;stroke:#000000;stroke-linecap:square;stroke-linejoin:miter;stroke-width:0.8;"/>
   </g>
   <g id="patch_6">
    <path d="M 57.6 41.472 
L 414.72 41.472 
" style="fill:none;stroke:#000000;stroke-linecap:square;stroke-linejoin:miter;stroke-width:0.8;"/>
   </g>
   <g id="legend_1">
    <g id="patch_7">
     <path d="M 64.6 302.584 
L 141.496875 302.584 
Q 143.496875 302.584 143.496875 300.584 
L 143.496875 272.22775 
Q 143.496875 270.22775 141.496875 270.22775 
L 64.6 270.22775 
Q 62.6 270.22775 62.6 272.22775 
L 62.6 300.584 
Q 62.6 302.584 64.6 302.584 
z
" style="fill:#ffffff;opacity:0.8;stroke:#cccccc;stroke-linejoin:miter;"/>
    </g>
    <g id="line2d_18"/>
    <g id="line2d_19">
     <g>
      <use style="fill:#1f77b4;stroke:#1f77b4;" x="76.6" xlink:href="#mb3d5805639" y="278.326187"/>
     </g>
    </g>
    <g id="text_18">
     <!-- Input -->
     <defs>
      <path d="M 9.8125 72.90625 
L 19.671875 72.90625 
L 19.671875 0 
L 9.8125 0 
z
" id="DejaVuSans-73"/>
      <path d="M 54.890625 33.015625 
L 54.890625 0 
L 45.90625 0 
L 45.90625 32.71875 
Q 45.90625 40.484375 42.875 44.328125 
Q 39.84375 48.1875 33.796875 48.1875 
Q 26.515625 48.1875 22.3125 43.546875 
Q 18.109375 38.921875 18.109375 30.90625 
L 18.109375 0 
L 9.078125 0 
L 9.078125 54.6875 
L 18.109375 54.6875 
L 18.109375 46.1875 
Q 21.34375 51.125 25.703125 53.5625 
Q 30.078125 56 35.796875 56 
Q 45.21875 56 50.046875 50.171875 
Q 54.890625 44.34375 54.890625 33.015625 
z
" id="DejaVuSans-110"/>
      <path d="M 18.109375 8.203125 
L 18.109375 -20.796875 
L 9.078125 -20.796875 
L 9.078125 54.6875 
L 18.109375 54.6875 
L 18.109375 46.390625 
Q 20.953125 51.265625 25.265625 53.625 
Q 29.59375 56 35.59375 56 
Q 45.5625 56 51.78125 48.09375 
Q 58.015625 40.1875 58.015625 27.296875 
Q 58.015625 14.40625 51.78125 6.484375 
Q 45.5625 -1.421875 35.59375 -1.421875 
Q 29.59375 -1.421875 25.265625 0.953125 
Q 20.953125 3.328125 18.109375 8.203125 
z
M 48.6875 27.296875 
Q 48.6875 37.203125 44.609375 42.84375 
Q 40.53125 48.484375 33.40625 48.484375 
Q 26.265625 48.484375 22.1875 42.84375 
Q 18.109375 37.203125 18.109375 27.296875 
Q 18.109375 17.390625 22.1875 11.75 
Q 26.265625 6.109375 33.40625 6.109375 
Q 40.53125 6.109375 44.609375 11.75 
Q 48.6875 17.390625 48.6875 27.296875 
z
" id="DejaVuSans-112"/>
      <path d="M 8.5 21.578125 
L 8.5 54.6875 
L 17.484375 54.6875 
L 17.484375 21.921875 
Q 17.484375 14.15625 20.5 10.265625 
Q 23.53125 6.390625 29.59375 6.390625 
Q 36.859375 6.390625 41.078125 11.03125 
Q 45.3125 15.671875 45.3125 23.6875 
L 45.3125 54.6875 
L 54.296875 54.6875 
L 54.296875 0 
L 45.3125 0 
L 45.3125 8.40625 
Q 42.046875 3.421875 37.71875 1 
Q 33.40625 -1.421875 27.6875 -1.421875 
Q 18.265625 -1.421875 13.375 4.4375 
Q 8.5 10.296875 8.5 21.578125 
z
M 31.109375 56 
z
" id="DejaVuSans-117"/>
      <path d="M 18.3125 70.21875 
L 18.3125 54.6875 
L 36.8125 54.6875 
L 36.8125 47.703125 
L 18.3125 47.703125 
L 18.3125 18.015625 
Q 18.3125 11.328125 20.140625 9.421875 
Q 21.96875 7.515625 27.59375 7.515625 
L 36.8125 7.515625 
L 36.8125 0 
L 27.59375 0 
Q 17.1875 0 13.234375 3.875 
Q 9.28125 7.765625 9.28125 18.015625 
L 9.28125 47.703125 
L 2.6875 47.703125 
L 2.6875 54.6875 
L 9.28125 54.6875 
L 9.28125 70.21875 
z
" id="DejaVuSans-116"/>
     </defs>
     <g transform="translate(94.6 281.826187)scale(0.1 -0.1)">
      <use xlink:href="#DejaVuSans-73"/>
      <use x="29.492188" xlink:href="#DejaVuSans-110"/>
      <use x="92.871094" xlink:href="#DejaVuSans-112"/>
      <use x="156.347656" xlink:href="#DejaVuSans-117"/>
      <use x="219.726562" xlink:href="#DejaVuSans-116"/>
     </g>
    </g>
    <g id="line2d_20"/>
    <g id="line2d_21">
     <g>
      <use style="fill:#ff7f0e;stroke:#ff7f0e;" x="76.6" xlink:href="#m2df64eb561" y="293.004312"/>
     </g>
    </g>
    <g id="text_19">
     <!-- Output C -->
     <defs>
      <path d="M 39.40625 66.21875 
Q 28.65625 66.21875 22.328125 58.203125 
Q 16.015625 50.203125 16.015625 36.375 
Q 16.015625 22.609375 22.328125 14.59375 
Q 28.65625 6.59375 39.40625 6.59375 
Q 50.140625 6.59375 56.421875 14.59375 
Q 62.703125 22.609375 62.703125 36.375 
Q 62.703125 50.203125 56.421875 58.203125 
Q 50.140625 66.21875 39.40625 66.21875 
z
M 39.40625 74.21875 
Q 54.734375 74.21875 63.90625 63.9375 
Q 73.09375 53.65625 73.09375 36.375 
Q 73.09375 19.140625 63.90625 8.859375 
Q 54.734375 -1.421875 39.40625 -1.421875 
Q 24.03125 -1.421875 14.8125 8.828125 
Q 5.609375 19.09375 5.609375 36.375 
Q 5.609375 53.65625 14.8125 63.9375 
Q 24.03125 74.21875 39.40625 74.21875 
z
" id="DejaVuSans-79"/>
      <path id="DejaVuSans-32"/>
      <path d="M 64.40625 67.28125 
L 64.40625 56.890625 
Q 59.421875 61.53125 53.78125 63.8125 
Q 48.140625 66.109375 41.796875 66.109375 
Q 29.296875 66.109375 22.65625 58.46875 
Q 16.015625 50.828125 16.015625 36.375 
Q 16.015625 21.96875 22.65625 14.328125 
Q 29.296875 6.6875 41.796875 6.6875 
Q 48.140625 6.6875 53.78125 8.984375 
Q 59.421875 11.28125 64.40625 15.921875 
L 64.40625 5.609375 
Q 59.234375 2.09375 53.4375 0.328125 
Q 47.65625 -1.421875 41.21875 -1.421875 
Q 24.65625 -1.421875 15.125 8.703125 
Q 5.609375 18.84375 5.609375 36.375 
Q 5.609375 53.953125 15.125 64.078125 
Q 24.65625 74.21875 41.21875 74.21875 
Q 47.75 74.21875 53.53125 72.484375 
Q 59.328125 70.75 64.40625 67.28125 
z
" id="DejaVuSans-67"/>
     </defs>
     <g transform="translate(94.6 296.504312)scale(0.1 -0.1)">
      <use xlink:href="#DejaVuSans-79"/>
      <use x="78.710938" xlink:href="#DejaVuSans-117"/>
      <use x="142.089844" xlink:href="#DejaVuSans-116"/>
      <use x="181.298828" xlink:href="#DejaVuSans-112"/>
      <use x="244.775391" xlink:href="#DejaVuSans-117"/>
      <use x="308.154297" xlink:href="#DejaVuSans-116"/>
      <use x="347.363281" xlink:href="#DejaVuSans-32"/>
      <use x="379.150391" xlink:href="#DejaVuSans-67"/>
     </g>
    </g>
   </g>
  </g>
 </g>
 <defs>
  <clipPath id="p83e727a732">
   <rect height="266.112" width="357.12" x="57.6" y="41.472"/>
  </clipPath>
 </defs>
</svg>
