<?xml version="1.0" encoding="UTF-8" standalone="no"?>
<!DOCTYPE svg PUBLIC "-//W3C//DTD SVG 1.1//EN"
 "http://www.w3.org/Graphics/SVG/1.1/DTD/svg11.dtd">
<!-- Generated by graphviz version 2.38.0 (20140413.2041)
 -->
<!-- Title: structs Pages: 1 -->
<svg width="285pt" height="221pt"
 viewBox="0.00 0.00 285.48 221.00" xmlns="http://www.w3.org/2000/svg" xmlns:xlink="http://www.w3.org/1999/xlink">
<g id="graph0" class="graph" transform="scale(1 1) rotate(0) translate(4 217)">
<title>structs</title>
<polygon fill="white" stroke="none" points="-4,4 -4,-217 281.482,-217 281.482,4 -4,4"/>
<!-- a -->
<g id="node1" class="node"><title>a</title>
<polygon fill="none" stroke="black" points="115.482,-176.5 115.482,-212.5 169.482,-212.5 169.482,-176.5 115.482,-176.5"/>
<text text-anchor="middle" x="142.482" y="-190.8" font-family="Times New Roman,serif" font-size="14.00">a</text>
</g>
<!-- b -->
<g id="node2" class="node"><title>b</title>
<polygon fill="none" stroke="black" points="115.482,-88.5 115.482,-124.5 169.482,-124.5 169.482,-88.5 115.482,-88.5"/>
<text text-anchor="middle" x="142.482" y="-102.8" font-family="Times New Roman,serif" font-size="14.00">b</text>
</g>
<!-- a&#45;&gt;b -->
<g id="edge1" class="edge"><title>a&#45;&gt;b</title>
<path fill="none" stroke="black" d="M142.482,-176.097C142.482,-164.246 142.482,-148.317 142.482,-134.792"/>
<polygon fill="black" stroke="black" points="145.982,-134.584 142.482,-124.584 138.982,-134.584 145.982,-134.584"/>
<text text-anchor="middle" x="175.982" y="-146.8" font-family="Times New Roman,serif" font-size="14.00">a0.8, p1, d1</text>
</g>
<!-- c -->
<g id="node3" class="node"><title>c</title>
<polygon fill="none" stroke="black" points="7.48232,-0.5 7.48232,-36.5 61.4823,-36.5 61.4823,-0.5 7.48232,-0.5"/>
<text text-anchor="middle" x="34.4823" y="-14.8" font-family="Times New Roman,serif" font-size="14.00">c</text>
</g>
<!-- b&#45;&gt;c -->
<g id="edge2" class="edge"><title>b&#45;&gt;c</title>
<path fill="none" stroke="black" d="M115.421,-102.497C78.9691,-97.8309 17.0797,-87.5065 3.48232,-70 -2.63881,-62.1191 0.329394,-52.9601 6.37774,-44.6231"/>
<polygon fill="black" stroke="black" points="9.09615,-46.8294 12.9243,-36.9503 3.77102,-42.2859 9.09615,-46.8294"/>
<text text-anchor="middle" x="36.9823" y="-58.8" font-family="Times New Roman,serif" font-size="14.00">a0.6, p2, d2</text>
</g>
<!-- d -->
<g id="node4" class="node"><title>d</title>
<polygon fill="none" stroke="black" points="223.482,-0.5 223.482,-36.5 277.482,-36.5 277.482,-0.5 223.482,-0.5"/>
<text text-anchor="middle" x="250.482" y="-14.8" font-family="Times New Roman,serif" font-size="14.00">d</text>
</g>
<!-- b&#45;&gt;d -->
<g id="edge3" class="edge"><title>b&#45;&gt;d</title>
<path fill="none" stroke="black" d="M164.078,-88.3033C180.413,-75.296 203.025,-57.29 221.02,-42.9607"/>
<polygon fill="black" stroke="black" points="223.281,-45.6342 228.924,-36.6669 218.921,-40.1582 223.281,-45.6342"/>
<text text-anchor="middle" x="235.982" y="-58.8" font-family="Times New Roman,serif" font-size="14.00">a0.4, p3, d3</text>
</g>
</g>
</svg>
