<?xml version="1.0" encoding="UTF-8" standalone="no"?>
<!DOCTYPE svg PUBLIC "-//W3C//DTD SVG 1.1//EN"
 "http://www.w3.org/Graphics/SVG/1.1/DTD/svg11.dtd">
<!-- Generated by graphviz version 2.38.0 (20140413.2041)
 -->
<!-- Title: structs Pages: 1 -->
<svg width="553pt" height="309pt"
 viewBox="0.00 0.00 552.50 309.00" xmlns="http://www.w3.org/2000/svg" xmlns:xlink="http://www.w3.org/1999/xlink">
<g id="graph0" class="graph" transform="scale(1 1) rotate(0) translate(4 305)">
<title>structs</title>
<polygon fill="white" stroke="none" points="-4,4 -4,-305 548.5,-305 548.5,4 -4,4"/>
<!-- Splitter0i0 -->
<g id="node1" class="node"><title>Splitter0i0</title>
<polygon fill="none" stroke="black" points="172,-264.5 172,-300.5 245,-300.5 245,-264.5 172,-264.5"/>
<text text-anchor="middle" x="208.5" y="-278.8" font-family="Times New Roman,serif" font-size="14.00">Splitter0i0</text>
</g>
<!-- Splitter0o0 -->
<g id="node2" class="node"><title>Splitter0o0</title>
<polygon fill="none" stroke="black" points="6,-176.5 6,-212.5 83,-212.5 83,-176.5 6,-176.5"/>
<text text-anchor="middle" x="44.5" y="-190.8" font-family="Times New Roman,serif" font-size="14.00">Splitter0o0</text>
</g>
<!-- Splitter0i0&#45;&gt;Splitter0o0 -->
<g id="edge1" class="edge"><title>Splitter0i0&#45;&gt;Splitter0o0</title>
<path fill="none" stroke="black" d="M171.968,-280.237C121.195,-277.626 33.2859,-269.713 13.5,-246 7.00706,-238.218 10.1023,-228.947 16.3676,-220.485"/>
<polygon fill="black" stroke="black" points="19.2193,-222.54 23.1365,-212.696 13.9354,-217.948 19.2193,-222.54"/>
<text text-anchor="middle" x="103" y="-234.8" font-family="Times New Roman,serif" font-size="14.00">a0.7071067811865475, p0.0, d1</text>
</g>
<!-- Splitter0o1 -->
<g id="node3" class="node"><title>Splitter0o1</title>
<polygon fill="none" stroke="black" points="334,-176.5 334,-212.5 411,-212.5 411,-176.5 334,-176.5"/>
<text text-anchor="middle" x="372.5" y="-190.8" font-family="Times New Roman,serif" font-size="14.00">Splitter0o1</text>
</g>
<!-- Splitter0i0&#45;&gt;Splitter0o1 -->
<g id="edge2" class="edge"><title>Splitter0i0&#45;&gt;Splitter0o1</title>
<path fill="none" stroke="black" d="M241.294,-264.303C267.076,-250.783 303.157,-231.863 330.959,-217.284"/>
<polygon fill="black" stroke="black" points="332.812,-220.264 340.043,-212.52 329.561,-214.065 332.812,-220.264"/>
<text text-anchor="middle" x="389" y="-234.8" font-family="Times New Roman,serif" font-size="14.00">a0.7071067811865475, p0.0, d1</text>
</g>
<!-- Combiner0i0 -->
<g id="node4" class="node"><title>Combiner0i0</title>
<polygon fill="none" stroke="black" points="0,-88.5 0,-124.5 89,-124.5 89,-88.5 0,-88.5"/>
<text text-anchor="middle" x="44.5" y="-102.8" font-family="Times New Roman,serif" font-size="14.00">Combiner0i0</text>
</g>
<!-- Splitter0o0&#45;&gt;Combiner0i0 -->
<g id="edge5" class="edge"><title>Splitter0o0&#45;&gt;Combiner0i0</title>
<path fill="none" stroke="black" d="M25.2386,-176.411C20.4827,-171.043 16.0292,-164.742 13.5,-158 10.2625,-149.37 13.088,-140.596 18.1293,-132.834"/>
<polygon fill="black" stroke="black" points="20.9423,-134.918 24.2873,-124.865 15.4033,-130.638 20.9423,-134.918"/>
<text text-anchor="middle" x="103" y="-146.8" font-family="Times New Roman,serif" font-size="14.00">a0.5, p15.707963267948966, d2</text>
</g>
<!-- Combiner0i1 -->
<g id="node6" class="node"><title>Combiner0i1</title>
<polygon fill="none" stroke="black" points="328,-88.5 328,-124.5 417,-124.5 417,-88.5 328,-88.5"/>
<text text-anchor="middle" x="372.5" y="-102.8" font-family="Times New Roman,serif" font-size="14.00">Combiner0i1</text>
</g>
<!-- Splitter0o1&#45;&gt;Combiner0i1 -->
<g id="edge6" class="edge"><title>Splitter0o1&#45;&gt;Combiner0i1</title>
<path fill="none" stroke="black" d="M372.5,-176.097C372.5,-164.246 372.5,-148.317 372.5,-134.792"/>
<polygon fill="black" stroke="black" points="376,-134.584 372.5,-124.584 369,-134.584 376,-134.584"/>
<text text-anchor="middle" x="458.5" y="-146.8" font-family="Times New Roman,serif" font-size="14.00">a0.7, p18.84955592153876, d3</text>
</g>
<!-- Combiner0o0 -->
<g id="node5" class="node"><title>Combiner0o0</title>
<polygon fill="none" stroke="black" points="162,-0.5 162,-36.5 255,-36.5 255,-0.5 162,-0.5"/>
<text text-anchor="middle" x="208.5" y="-14.8" font-family="Times New Roman,serif" font-size="14.00">Combiner0o0</text>
</g>
<!-- Combiner0i0&#45;&gt;Combiner0o0 -->
<g id="edge3" class="edge"><title>Combiner0i0&#45;&gt;Combiner0o0</title>
<path fill="none" stroke="black" d="M23.1365,-88.3044C13.0599,-78.1308 4.93199,-65.2687 13.5,-55 30.8247,-34.2366 100.379,-25.5874 151.5,-22.0038"/>
<polygon fill="black" stroke="black" points="152.029,-25.4768 161.78,-21.333 151.573,-18.4917 152.029,-25.4768"/>
<text text-anchor="middle" x="103" y="-58.8" font-family="Times New Roman,serif" font-size="14.00">a0.7071067811865475, p0.0, d1</text>
</g>
<!-- Combiner0i1&#45;&gt;Combiner0o0 -->
<g id="edge4" class="edge"><title>Combiner0i1&#45;&gt;Combiner0o0</title>
<path fill="none" stroke="black" d="M339.706,-88.3033C313.924,-74.7833 277.843,-55.8626 250.041,-41.2837"/>
<polygon fill="black" stroke="black" points="251.439,-38.0646 240.957,-36.5201 248.188,-44.264 251.439,-38.0646"/>
<text text-anchor="middle" x="389" y="-58.8" font-family="Times New Roman,serif" font-size="14.00">a0.7071067811865475, p0.0, d1</text>
</g>
</g>
</svg>
